<svg width="73" height="44" viewBox="0 0 73 44" fill="none" xmlns="http://www.w3.org/2000/svg">
<g id="&#208;&#160;&#208;&#181;&#209;&#129;&#209;&#131;&#209;&#128;&#209;&#129; 3" clip-path="url(#clip0_47_2310)">
<g id="b">
<g id="c">
<g id="Group">
<path id="Vector" d="M0.197678 28.5631C0.385589 27.3647 0.603638 26.1716 0.756095 24.9697C1.27374 20.9048 1.76834 16.8346 2.26825 12.7679C2.71499 9.14435 3.1564 5.51907 3.59959 1.89557C3.62618 1.68461 3.64214 1.47365 3.68114 1.26447C3.86018 0.301864 4.21119 0.012905 5.19684 0.121043C6.8845 0.307182 8.57039 0.530549 10.2545 0.745052C11.3075 0.879781 12.3729 0.959555 13.4065 1.18115C15.493 1.62434 16.7516 3.49991 16.4662 5.60594C16.3971 6.11826 16.3404 6.63413 16.2765 7.14823C15.9716 9.6354 15.6667 12.1243 15.3618 14.6115C15.1136 16.6342 14.8619 18.6569 14.6155 20.6797C14.2964 23.3069 13.9808 25.9341 13.6653 28.5613C12.8019 31.0378 11.3111 31.9207 8.69448 31.5697C6.34204 31.2541 3.98605 30.9669 1.62652 30.7117C1.02733 30.6461 0.543364 30.4794 0.197678 29.9777V28.5613V28.5631ZM4.86888 24.8669C4.86179 26.0085 5.73576 26.9091 6.85968 26.9197C7.99247 26.9321 8.96217 25.9766 8.94798 24.8633C8.9338 23.7678 8.00311 22.853 6.89159 22.8442C5.76767 22.8353 4.87597 23.7288 4.86888 24.8669Z" fill="#B22322"/>
<path id="Vector_2" d="M72.4109 26.4202C72.5438 27.1825 72.6768 27.943 72.8097 28.7053V29.9799C72.2584 30.8237 71.3366 30.6943 70.53 30.806C68.3389 31.1074 66.1353 31.3307 63.946 31.6392C61.6574 31.9618 59.6541 30.4975 59.3333 28.2054C59.2978 27.9501 59.2287 27.6983 59.1755 27.4466C59.1436 26.9662 59.1135 26.4858 59.0815 26.0054C59.1844 26.1029 59.3014 26.188 59.3865 26.2996C60.3774 27.576 61.7194 28.0015 63.2635 27.8313C65.5255 27.5831 67.784 27.3083 70.0372 26.9928C70.8402 26.8811 71.622 26.617 72.4126 26.4237L72.4109 26.4202Z" fill="#130C56"/>
<path id="Vector_3" d="M13.667 28.5616C13.9843 25.9344 14.2981 23.3072 14.6172 20.68C14.8636 18.6572 15.1153 16.6345 15.3635 14.6118C15.6684 12.1247 15.9734 9.63571 16.2783 7.14854C17.5688 7.24072 18.8594 7.35063 20.1517 7.40559C20.3308 7.41268 20.5932 7.18399 20.696 6.99785C21.1197 6.23734 21.4937 5.44847 21.8908 4.672C22.7754 2.94179 24.0518 2.40642 25.9114 2.92761C27.8809 3.48071 29.8611 3.99658 31.8377 4.52841C31.664 4.80496 31.4849 5.07796 31.3201 5.35806C30.3929 6.94112 29.4658 8.52597 28.5439 10.1126C27.0548 12.6778 25.548 15.2305 24.0961 17.8152C23.4331 18.9941 23.8958 20.157 25.181 20.5559C27.8331 21.3784 30.2919 21.0505 32.265 18.9639C33.3428 17.8241 34.2948 16.5565 35.2219 15.2855C35.6545 14.6934 35.8867 14.8494 36.2962 15.2518C37.5868 16.5211 39.1326 17.3241 40.9107 17.6982C41.4921 17.8205 42.1605 17.8896 42.6072 18.2265C43.7701 19.1004 44.8338 20.1074 45.9346 21.0629C48.1204 22.9579 50.2956 24.8636 52.4956 26.7428C53.0948 27.2551 53.7613 27.6912 54.396 28.1627C54.4811 28.2992 54.5644 28.434 54.6495 28.5705C54.6779 29.042 54.7718 29.5189 54.7186 29.9816C54.5662 31.3324 53.5894 32.0929 52.5559 32.7772C52.2634 32.9722 51.9868 32.9155 51.6837 32.6372C50.7991 31.8288 49.8666 31.0736 48.9465 30.3042C48.3757 29.8274 47.8492 29.8539 47.3918 30.3645C47.0018 30.8006 47.0249 31.3413 47.4823 31.8004C47.7464 32.0663 48.0708 32.2791 48.3101 32.5645C48.4236 32.6992 48.5034 33.0272 48.4218 33.13C47.8687 33.8302 47.2961 34.5198 46.6774 35.1633C46.2413 35.6172 45.7769 35.642 45.2681 35.1456C44.5803 34.472 43.8286 33.8639 43.0876 33.2452C42.5646 32.8091 42.0222 32.8517 41.5861 33.3268C41.1695 33.7824 41.1978 34.3213 41.7066 34.8106C41.9069 35.0038 42.1693 35.135 42.4388 35.3176C41.8591 36.0054 41.4354 36.5355 40.9833 37.0407C40.2707 37.8367 39.5261 38.5777 38.3809 38.7372C37.5832 38.8489 37.0656 38.5404 36.906 37.7888C36.5036 35.8955 34.5394 34.9488 32.8783 35.9699C32.756 36.0444 32.6195 36.0994 32.4156 36.2004C32.7135 34.9152 32.5699 33.7912 31.5257 33.0626C30.1837 32.1266 28.8843 32.3624 27.7373 33.5998C28.021 32.3234 27.7373 31.2544 26.7269 30.5861C25.2644 29.6182 23.9259 30.0153 22.7541 31.4689C23.1459 29.1555 21.9458 27.7479 19.9124 27.8525C19.0438 27.8968 18.5279 28.4872 17.9447 28.9888C17.1061 28.8984 16.2659 28.8009 15.4274 28.7176C14.8423 28.6591 14.2556 28.6166 13.6688 28.5669L13.667 28.5616Z" fill="#F8C194"/>
<path id="Vector_4" d="M54.396 28.163C53.7596 27.6915 53.0948 27.2554 52.4956 26.743C50.2974 24.8639 48.1205 22.9582 45.9347 21.0631C44.8338 20.1076 43.7702 19.1007 42.6072 18.2267C42.1605 17.8917 41.4922 17.8208 40.9107 17.6984C39.1326 17.3244 37.5868 16.5231 36.2962 15.2521C35.8867 14.8496 35.6545 14.6936 35.2219 15.2857C34.2948 16.555 33.3428 17.8225 32.265 18.9642C30.2919 21.0525 27.8331 21.3787 25.1811 20.5561C23.8958 20.1573 23.4331 18.9926 24.0961 17.8155C25.548 15.2308 27.0549 12.6762 28.544 10.1128C29.4658 8.52623 30.393 6.94139 31.3201 5.35832C31.485 5.07645 31.664 4.80522 31.8378 4.52867C32.8713 3.29484 34.3125 3.08565 35.7874 2.95092C38.8135 2.67614 41.8414 2.39428 44.8657 2.10886C45.8868 2.01314 46.8299 2.217 47.7216 2.72401C49.5671 3.77348 51.4338 4.78572 53.265 5.85824C53.9546 6.26242 54.6194 6.45565 55.4083 6.24647C55.7912 6.14542 56.2042 6.16315 56.6049 6.12769C57.4292 12.7542 58.2553 19.3808 59.0796 26.0056C59.1116 26.486 59.1417 26.9664 59.1736 27.4468C58.3032 27.4468 57.431 27.4965 56.5641 27.438C55.7203 27.3812 54.9917 27.5408 54.396 28.1648V28.163Z" fill="#FFD4B3"/>
<path id="Vector_5" d="M17.943 28.9834C18.5262 28.4817 19.0421 27.8914 19.9107 27.8471C21.9441 27.7443 23.1442 29.15 22.7525 31.4635C23.9243 30.0116 25.2645 29.6127 26.7252 30.5807C27.7374 31.2508 28.0193 32.318 27.7357 33.5943C28.8826 32.357 30.1821 32.1212 31.524 33.0572C32.5682 33.7858 32.7118 34.9097 32.414 36.195C32.6196 36.0939 32.7543 36.039 32.8767 35.9645C34.5377 34.9434 36.5019 35.8901 36.9043 37.7834C37.0639 38.535 37.5833 38.8435 38.3793 38.7318C39.5245 38.5722 40.269 37.8312 40.9817 37.0353C41.4337 36.53 41.8574 36 42.4371 35.3121C42.1694 35.1295 41.9053 35.0001 41.705 34.8051C41.198 34.3159 41.1678 33.7769 41.5844 33.3213C42.0187 32.8462 42.563 32.8019 43.0859 33.2398C43.8252 33.8585 44.5786 34.4665 45.2664 35.1402C45.7734 35.6366 46.2397 35.6117 46.6758 35.1579C47.2944 34.5144 47.867 33.8266 48.4201 33.1246C48.5017 33.0217 48.4202 32.692 48.3085 32.5591C48.0691 32.2736 47.7447 32.0627 47.4806 31.795C47.0232 31.3359 47.0002 30.7952 47.3902 30.3591C47.8475 29.8485 48.3741 29.8219 48.9449 30.2988C49.8649 31.0682 50.7992 31.8234 51.682 32.6317C51.9852 32.9101 52.2617 32.9668 52.5542 32.7718C53.5877 32.0857 54.5645 31.327 54.717 29.9762C54.7701 29.5152 54.6744 29.0366 54.6478 28.565C55.2364 29.0738 55.8444 29.5596 56.4082 30.0949C57.3761 31.015 57.4488 32.2187 56.6422 33.2717C55.2754 35.0533 53.9494 35.3635 51.8841 34.3212C51.2814 34.9984 50.6538 35.6897 50.0404 36.3953C48.9165 37.6894 47.5976 37.9394 46.05 37.1824C45.8904 37.1044 45.5518 37.17 45.4207 37.2976C44.9651 37.739 44.5626 38.2372 44.1425 38.7141C42.5577 40.5116 41.6553 40.696 39.4784 39.6288C38.9182 40.2723 38.3279 40.9105 37.7801 41.5841C36.9238 42.6389 35.8921 43.1725 34.5005 42.8729C34.3073 42.8322 34.036 42.9172 33.8676 43.036C32.7597 43.8284 31.6978 43.9437 30.7121 43.3445C29.6981 42.7276 29.3205 41.7898 29.5297 40.423C29.5474 40.3113 29.5315 40.1961 29.5315 40.0011C28.3916 40.7049 27.2907 40.7598 26.2483 39.9851C25.2201 39.2228 25.1031 38.1202 25.3176 36.9129C22.382 38.2744 20.4922 35.9858 21.1712 33.6067C20.8999 33.7362 20.7085 33.8337 20.5153 33.9205C19.4321 34.4045 18.2071 34.1368 17.4271 33.2451C16.6702 32.38 16.5709 31.1621 17.1843 30.1605C17.4289 29.7616 17.6913 29.3734 17.9448 28.9816L17.943 28.9834Z" fill="#FFD4B3"/>
<path id="Vector_6" d="M59.0795 26.0037C58.2552 19.3771 57.4291 12.7523 56.6048 6.12579C56.3619 4.68631 56.5604 3.37093 57.6099 2.25587C58.5052 1.3039 59.6787 1.11244 60.8824 0.965306C63.0806 0.694075 65.2788 0.43348 67.4735 0.144522C68.7942 -0.0292081 69.2268 0.304069 69.3881 1.62832C70.0387 6.95012 70.7035 12.2719 71.3541 17.5937C71.7139 20.5347 72.0579 23.4793 72.4089 26.4203C71.6182 26.6135 70.8364 26.8776 70.0334 26.9893C67.7802 27.3049 65.5217 27.5814 63.2597 27.8278C61.7156 27.9962 60.3719 27.5725 59.3827 26.2962C59.2976 26.1863 59.1806 26.0994 59.0778 26.0019L59.0795 26.0037ZM68.0071 24.9081C68.016 23.731 67.1952 22.8907 66.0269 22.8818C64.8481 22.873 64.006 23.692 63.9971 24.8585C63.9883 26.0338 64.8108 26.8759 65.9773 26.8847C67.1544 26.8936 68 26.071 68.0071 24.9081Z" fill="#130C56"/>
<path id="Vector_7" d="M4.86886 24.867C4.87595 23.7289 5.76942 22.8372 6.89157 22.8443C8.00132 22.8531 8.93378 23.7679 8.94797 24.8634C8.96215 25.9767 7.99245 26.9322 6.85966 26.9198C5.73574 26.9074 4.86177 26.0069 4.86886 24.867Z" fill="#FEFEFE"/>
<path id="Vector_8" d="M68.0071 24.9082C67.9983 26.0711 67.1544 26.8936 65.9773 26.8848C64.8109 26.8759 63.9883 26.0339 63.9972 24.8585C64.006 23.6921 64.8481 22.873 66.027 22.8819C67.1952 22.8908 68.016 23.7311 68.0071 24.9082Z" fill="#FEFEFE"/>
</g>
</g>
</g>
</g>
<defs>
<clipPath id="clip0_47_2310">
<rect width="72.6119" height="43.6274" fill="white" transform="translate(0.197693 0.100098)"/>
</clipPath>
</defs>
</svg>
