<svg width="52" height="60" viewBox="0 0 52 60" fill="none" xmlns="http://www.w3.org/2000/svg">
<g id="&#208;&#160;&#208;&#181;&#209;&#129;&#209;&#131;&#209;&#128;&#209;&#129; 2" clip-path="url(#clip0_47_2291)">
<g id="b">
<g id="c">
<g id="Group">
<path id="Vector" d="M44.2631 59.8656C44.0857 59.872 43.9082 59.8847 43.7307 59.8847C29.6411 59.8847 15.5498 59.8847 1.46007 59.8847H0.843689C0.881718 59.506 0.921331 59.1637 0.946684 58.8214C1.11623 56.5777 1.26201 54.3324 1.45849 52.0919C1.61694 50.2871 1.69617 48.4602 2.06061 46.6934C2.65957 43.7905 4.31699 41.4882 6.9188 40.0827C9.59667 38.636 12.414 37.446 15.1711 36.1436C15.2186 36.2244 15.3153 36.3115 15.3058 36.386C15.1822 37.4571 15.038 38.5251 14.9112 39.5947C14.8288 40.2855 14.767 40.978 14.683 41.7877C15.7589 41.634 16.6906 41.5009 17.7776 41.344C17.5891 41.6641 17.5003 41.832 17.3958 41.9889C16.8412 42.8271 16.2945 43.6701 15.7193 44.4941C15.5054 44.7999 15.4341 45.0534 15.6591 45.3925C16.5306 46.7029 17.3213 48.0719 18.2562 49.3348C19.7409 51.3393 21.3001 53.2898 22.8592 55.2388C23.8622 56.4922 24.9175 57.7028 25.9491 58.9308C26.0505 58.8801 26.1155 58.8658 26.1503 58.8262C27.1533 57.6663 28.1706 56.5175 29.1483 55.3355C30.4492 53.7604 31.7659 52.1933 32.9876 50.5565C34.1744 48.9672 35.2487 47.2924 36.3722 45.6571C36.5782 45.3592 36.556 45.0883 36.3436 44.7904C36.0251 44.3404 35.7352 43.8713 35.4436 43.4039C35.0221 42.7289 34.6086 42.0475 34.1633 41.325H37.7095C37.5954 40.7546 37.4908 40.2364 37.3879 39.7199C37.5923 39.7848 37.8109 39.8213 37.9963 39.9195C39.5254 40.7292 40.7217 41.9033 41.6788 43.3342C43.0304 45.3529 43.4344 47.6362 43.5533 50.0035C43.6167 51.2584 43.707 52.5118 43.7989 53.7652C43.9478 55.7997 44.1079 57.8343 44.2631 59.8688V59.8656Z" fill="#130C56"/>
<path id="Vector_2" d="M19.2384 32.7127C19.24 32.5954 19.2051 32.4607 19.2495 32.3625C19.7138 31.3183 19.2796 30.5656 18.5507 29.8193C18.0342 29.2901 17.6348 28.6373 17.2419 28.0019C16.8489 27.368 16.5273 26.6899 16.1739 26.0307C15.06 26.4823 14.339 26.3001 13.599 25.2812C12.3615 23.5763 11.9115 21.7065 12.5849 19.6545C12.7545 19.1395 13.0397 18.688 13.6434 18.577C13.9651 19.5452 14.2836 20.5133 14.6084 21.4815C14.7605 21.9347 14.9237 22.3831 15.0822 22.8331C15.2042 22.4924 15.1836 22.185 15.1709 21.8776C15.1043 20.0839 14.9728 18.2902 14.9934 16.4965C15.0172 14.4826 15.4371 12.5415 16.4987 10.7827C17.2102 9.60539 18.0294 8.52632 19.2178 7.78476C19.8484 7.3918 20.4886 7.17155 21.1969 7.67384C21.4251 7.83547 21.7499 7.91628 22.0351 7.92895C23.3519 7.98758 24.6813 8.12861 25.9854 8.01452C27.9977 7.83864 30.0402 7.61046 31.5978 6.05762C33.1506 7.23651 34.2455 8.74658 34.5862 10.6306C34.9602 12.6905 35.6463 14.6236 36.4148 16.5472C36.8157 17.5487 36.9931 18.5913 36.8711 19.6783C36.7824 20.4626 36.7364 21.2502 36.6651 22.0377C36.6366 22.3514 36.5938 22.662 36.5574 22.9741L36.7428 23.028C37.535 21.6637 38.0516 20.1727 38.6268 18.707C39.2923 19.1332 39.4824 19.8272 39.5664 20.5324C39.793 22.4259 39.343 24.1499 38.0453 25.5744C37.3829 26.3001 36.7301 26.5298 35.7176 25.9863C35.5528 26.3159 35.4197 26.6661 35.2169 26.9703C34.4404 28.1302 33.6735 29.2996 32.8337 30.4135C32.5628 30.7732 32.4709 31.0727 32.5564 31.4847C32.6404 31.8871 32.6879 32.2975 32.7529 32.7048L32.7418 32.7254C30.6122 34.8043 28.4826 36.8816 26.3577 38.9637C26.2516 39.0683 26.1898 39.2188 26.1074 39.3487H25.8776C25.7952 39.2204 25.735 39.0683 25.6288 38.9637C23.5024 36.88 21.3712 34.8027 19.24 32.7238L19.2352 32.7143L19.2384 32.7127Z" fill="#EFC090"/>
<path id="Vector_3" d="M38.6317 18.7057C38.0565 20.1698 37.5399 21.6624 36.7476 23.0267L36.5623 22.9729C36.5987 22.6607 36.6415 22.3486 36.67 22.0364C36.7413 21.2505 36.7873 20.4614 36.876 19.677C36.998 18.59 36.8205 17.5474 36.4196 16.546C35.6511 14.6224 34.9635 12.6892 34.5911 10.6293C34.2488 8.74531 33.1539 7.23525 31.6027 6.05635C30.0451 7.6092 28.0042 7.83895 25.9902 8.01325C24.6846 8.12734 23.3567 7.98632 22.04 7.92769C21.7548 7.91501 21.4299 7.8342 21.2018 7.67258C20.4935 7.17028 19.8533 7.39053 19.2227 7.7835C18.0359 8.52347 17.2151 9.60254 16.5036 10.7814C15.442 12.5387 15.0221 14.4813 14.9983 16.4953C14.9761 18.2874 15.1092 20.0827 15.1758 21.8764C15.1869 22.1838 15.2075 22.4912 15.087 22.8318C14.9286 22.3818 14.7654 21.9318 14.6133 21.4802C14.2884 20.5137 13.9699 19.5455 13.6483 18.5758C13.4407 17.7582 13.2664 16.931 13.0224 16.1245C11.384 10.7228 14.6354 1.78286 23.0636 0.344099C25.4309 -0.0599577 27.7665 -0.0520351 29.9389 1.07457C30.8658 1.55627 31.6502 2.31209 32.5027 2.93798C32.6532 3.04732 32.8101 3.19943 32.9796 3.2232C36.6035 3.71124 38.4621 6.06111 39.3891 9.34426C40.1623 12.0823 39.7361 14.7824 38.9882 17.4571C38.8709 17.8738 38.7489 18.2906 38.6301 18.7057H38.6317Z" fill="#130C56"/>
<path id="Vector_4" d="M37.3894 39.7185C37.4924 40.2366 37.597 40.7532 37.7111 41.3236H34.1649C34.6101 42.0477 35.0237 42.7275 35.4452 43.4025C35.7367 43.87 36.0267 44.3406 36.3452 44.789C36.5575 45.0869 36.5781 45.3578 36.3737 45.6557C35.2487 47.291 34.1744 48.9658 32.9891 50.5551C31.7675 52.1919 30.4507 53.759 29.1498 55.3341C28.1737 56.5161 27.1549 57.6633 26.1519 58.8248C26.117 58.8644 26.052 58.8787 25.9506 58.9294C24.9207 57.7014 23.8638 56.4908 22.8608 55.2374C21.3032 53.2884 19.7424 51.3379 18.2577 49.3334C17.3228 48.0706 16.5337 46.7015 15.6606 45.3911C15.4356 45.052 15.5069 44.7985 15.7209 44.4927C16.2945 43.6687 16.8427 42.8258 17.3973 41.9875C17.5019 41.8307 17.5906 41.6627 17.7792 41.3426C16.6906 41.4979 15.7605 41.631 14.6846 41.7863C14.7686 40.9766 14.8303 40.2842 14.9127 39.5933C15.0395 38.5237 15.1837 37.4542 15.3073 36.3846C15.3152 36.3101 15.2201 36.223 15.1726 36.1422C16.3547 35.1186 17.5367 34.0918 18.722 33.0713C18.8804 32.9351 19.0658 32.8305 19.2401 32.7101L19.2449 32.7196C19.4081 34.3421 19.5 35.9742 19.7519 37.5825C20.0276 39.3445 20.4523 41.0828 20.8104 42.8321C21.6217 45.6494 22.4314 48.4651 23.2427 51.2824C23.8495 52.97 24.4453 54.6607 25.0696 56.3434C25.3327 57.0517 25.6511 57.7394 25.9427 58.435C26.811 56.5621 27.5462 54.7003 28.245 52.8226C28.554 51.9955 28.7917 51.1414 29.0611 50.3C29.7678 47.8107 30.4761 45.323 31.1828 42.8337C32.0131 39.5109 32.6009 36.1517 32.7451 32.7227L32.7562 32.7021C33.2823 33.1347 33.8147 33.5578 34.3312 34.0015C35.1172 34.6765 35.892 35.3658 36.67 36.0487C36.9093 37.2719 37.1485 38.4952 37.3878 39.7169L37.3894 39.7185Z" fill="#130C56"/>
<path id="Vector_5" d="M37.3893 39.718L36.6715 36.0498C39.3716 37.3143 42.1334 38.4615 44.7542 39.8733C47.9788 41.6099 49.8152 44.4177 50.1876 48.0891C50.4364 50.5388 50.5869 52.9996 50.7881 55.4556C50.907 56.9071 51.0353 58.3585 51.1637 59.8654H44.2646C44.1093 57.8308 43.9493 55.7979 43.8003 53.7618C43.7084 52.5084 43.6181 51.255 43.5547 50.0001C43.4359 47.6328 43.0318 45.3494 41.6802 43.3307C40.7232 41.9015 39.5284 40.7258 37.9978 39.9161C37.8124 39.8178 37.5921 39.7814 37.3893 39.7164V39.718Z" fill="#130C56"/>
<path id="Vector_6" d="M29.061 50.3008C28.7916 51.1422 28.5539 51.9963 28.2449 52.8234C27.5446 54.6995 26.8109 56.5629 25.9426 58.4358C25.6495 57.7386 25.331 57.0525 25.0695 56.3442C24.4468 54.6631 23.851 52.9708 23.2425 51.2848C23.6593 49.2424 24.0839 47.2015 24.4816 45.1558C24.5228 44.9419 24.4658 44.644 24.3375 44.4713C23.6799 43.5856 22.9827 42.7299 22.2997 41.8632L25.8824 39.3501C25.9584 39.3501 26.0361 39.3501 26.1121 39.3501C26.6461 39.7145 27.188 40.0711 27.7141 40.4482C28.3622 40.9124 28.9976 41.3926 29.6377 41.8663C29.0958 42.7347 28.5492 43.5998 28.0183 44.4745C27.9565 44.5775 27.9486 44.7391 27.9724 44.8627C28.3289 46.6786 28.6965 48.4913 29.061 50.304V50.3008Z" fill="#B22322"/>
<path id="Vector_7" d="M25.8824 39.3477C24.6876 40.1859 23.4929 41.0242 22.2997 41.8608C21.8038 42.1856 21.3078 42.5089 20.8103 42.8337C20.4506 41.0844 20.0275 39.3461 19.7518 37.5841C19.4999 35.9758 19.408 34.3438 19.2448 32.7212C21.376 34.8001 23.5072 36.8774 25.6336 38.9611C25.7398 39.0657 25.8016 39.2178 25.8824 39.3461V39.3477Z" fill="#FEFEFE"/>
<path id="Vector_8" d="M29.6377 41.8618C28.9976 41.388 28.3622 40.9079 27.7141 40.4436C27.188 40.0665 26.6461 39.7116 26.1121 39.3455C26.1945 39.2156 26.2547 39.0651 26.3625 38.9605C28.4873 36.8784 30.617 34.8011 32.7466 32.7222C32.6024 36.1511 32.0129 39.5103 31.1842 42.8331C30.6692 42.5083 30.1527 42.185 29.6377 41.8618Z" fill="#FEFEFE"/>
<path id="Vector_9" d="M20.8104 42.8337C21.3063 42.5089 21.8023 42.1857 22.2998 41.8608C22.9828 42.7276 23.68 43.5848 24.3375 44.469C24.4659 44.6417 24.5229 44.9396 24.4817 45.1535C24.0856 47.2007 23.6594 49.2416 23.2426 51.2825C22.4313 48.4652 21.6216 45.6495 20.8104 42.8322V42.8337Z" fill="#EFC090"/>
<path id="Vector_10" d="M29.6378 41.8618C30.1528 42.1851 30.6693 42.5099 31.1843 42.8331C30.476 45.3224 29.7693 47.8117 29.061 50.2995C28.6966 48.4868 28.329 46.6725 27.9725 44.8582C27.9487 44.7346 27.9566 44.5714 28.0184 44.47C28.5492 43.5953 29.0959 42.7301 29.6378 41.8618Z" fill="#EFC090"/>
</g>
</g>
</g>
</g>
<defs>
<clipPath id="clip0_47_2291">
<rect width="50.3201" height="59.7861" fill="white" transform="translate(0.843628 0.100098)"/>
</clipPath>
</defs>
</svg>
