<svg width="56" height="57" viewBox="0 0 56 57" fill="none" xmlns="http://www.w3.org/2000/svg">
<g id="&#208;&#160;&#208;&#181;&#209;&#129;&#209;&#131;&#209;&#128;&#209;&#129; 1" clip-path="url(#clip0_47_2244)">
<g id="b">
<g id="c">
<g id="Group">
<path id="Vector" d="M26.516 46.2023C24.2125 46.2068 21.9104 46.2142 19.6069 46.2142C14.9268 46.2157 10.2453 46.2187 5.56521 46.2142C2.31911 46.2113 0.00811713 43.9152 0.00662809 40.6825C0.00365001 29.202 0.00365001 17.72 0.00662809 6.23947C0.00811713 3.03952 2.32208 0.730017 5.52799 0.727039C9.03766 0.724061 12.5488 0.737462 16.0585 0.743418C16.0585 4.64321 16.0615 8.54301 16.0555 12.4413C16.0555 13.028 16.2416 13.506 16.7762 13.7815C17.3286 14.0673 17.8424 13.9542 18.3293 13.5804C19.5652 12.6304 20.8115 11.6953 22.0519 10.7527C22.9736 10.0514 23.4099 10.0484 24.3346 10.7498C25.5466 11.67 26.7662 12.5798 27.9663 13.5149C28.4786 13.914 29.0072 14.0927 29.6087 13.7829C30.1924 13.4822 30.3339 12.9521 30.3324 12.3311C30.322 8.46856 30.3279 4.60599 30.3279 0.744907C34.0223 0.741929 37.7195 0.676412 41.4124 0.758309C44.1909 0.819359 46.3679 3.24798 46.3768 6.12481C46.3917 10.787 46.3828 15.4477 46.3798 20.1099C46.3798 22.7097 46.3709 25.3096 46.3664 27.9095C43.092 25.3677 39.4245 24.3164 35.3058 25.0282C29.1873 26.0839 24.4045 31.2777 24.0948 37.7982C23.9489 40.8641 24.8096 43.6605 26.516 46.2038V46.2023ZM11.1551 39.9722C12.4356 39.9722 13.7162 39.9781 14.9968 39.9707C15.9811 39.9647 16.4963 39.4436 16.5037 38.4489C16.5097 37.6508 16.5141 36.8526 16.5037 36.0545C16.4903 35.1685 15.9602 34.6265 15.0787 34.6235C12.4624 34.6146 9.8462 34.6146 7.22996 34.6235C6.34994 34.6265 5.81984 35.173 5.80793 36.059C5.7975 36.8571 5.80048 37.6552 5.80793 38.4534C5.81537 39.4421 6.33356 39.9662 7.3193 39.9707C8.59988 39.9766 9.88045 39.9722 11.161 39.9722H11.1551Z" fill="#FEBB42"/>
<path id="Vector_2" d="M26.5161 46.2024C24.8111 43.6592 23.9505 40.8642 24.0949 37.7968C24.4031 31.2763 29.1859 26.0825 35.3059 25.0268C39.4246 24.3165 43.0906 25.3663 46.3665 27.9081C48.7013 29.9362 50.2916 32.4229 50.9542 35.4635C51.727 39.0074 51.1523 42.3369 49.3118 45.4549C49.2106 45.6277 49.1361 45.8153 49.0482 45.997C48.9529 46.0833 48.8517 46.1622 48.7653 46.2546C47.9657 47.1167 47.1765 47.9893 46.368 48.844C46.0597 49.1701 45.7128 49.4575 45.3837 49.7627C45.0546 49.9176 44.7122 50.0501 44.398 50.2303C38.4716 53.6149 30.9222 52.0559 26.8243 46.5955C26.7246 46.4615 26.6188 46.3335 26.5146 46.2024H26.5161ZM37.6809 47.9982C42.9045 48.0116 47.2554 43.7083 47.2703 38.5101C47.2852 33.1808 43.0251 28.8358 37.7703 28.8224C32.4246 28.809 28.1094 33.0795 28.0975 38.3939C28.0855 43.677 32.3829 47.9848 37.6809 47.9982Z" fill="#B7C0CB"/>
<path id="Vector_3" d="M30.3265 0.743479C30.3265 4.60605 30.3221 8.46862 30.331 12.3297C30.3325 12.9506 30.191 13.4807 29.6073 13.7815C29.0058 14.0927 28.4771 13.9125 27.9649 13.5135C26.7648 12.5784 25.5452 11.6686 24.3331 10.7483C23.4085 10.047 22.9722 10.05 22.0505 10.7513C20.8101 11.6954 19.5638 12.6305 18.3278 13.579C17.8409 13.9528 17.3272 14.0659 16.7748 13.78C16.2402 13.5046 16.0526 13.0266 16.0541 12.4399C16.06 8.54009 16.0571 4.6403 16.0571 0.74199C20.0179 0.736033 23.9788 0.728588 27.9396 0.724121C28.7348 0.724121 29.5314 0.736033 30.3265 0.74199V0.743479Z" fill="#B22322"/>
<path id="Vector_4" d="M45.3853 49.7624C45.7143 49.4571 46.0613 49.1682 46.3695 48.8436C47.1781 47.9889 47.9673 47.1178 48.7669 46.2542C48.8532 46.1604 48.9545 46.0815 49.0498 45.9966C50.9632 47.913 52.8856 49.8204 54.7885 51.7487C55.5643 52.535 55.746 53.5028 55.3916 54.5288C55.0342 55.5652 54.251 56.1623 53.1714 56.3112C52.2438 56.4392 51.468 56.0923 50.8232 55.4207C49.0126 53.5326 47.1989 51.649 45.3853 49.7639V49.7624Z" fill="#B22322"/>
</g>
</g>
</g>
</g>
<defs>
<clipPath id="clip0_47_2244">
<rect width="55.5591" height="55.6201" fill="white" transform="translate(0.00366211 0.716309)"/>
</clipPath>
</defs>
</svg>
