<svg width="64" height="53" viewBox="0 0 64 53" fill="none" xmlns="http://www.w3.org/2000/svg">
<g id="&#208;&#160;&#208;&#181;&#209;&#129;&#209;&#131;&#209;&#128;&#209;&#129; 6" clip-path="url(#clip0_47_2257)">
<g id="b">
<g id="c">
<g id="Group">
<path id="Vector" d="M63.3729 6.24564V6.85678C62.9838 7.76661 62.6377 8.69635 62.1935 9.57861C61.757 10.4455 61.7876 11.2145 62.2839 12.0492C62.7372 12.812 62.6407 13.1612 62.0204 13.7831C60.5362 15.2704 59.0474 16.7531 57.5601 18.2373C56.3868 19.4075 56.1356 19.4106 54.97 18.271C54.9118 18.2143 54.8567 18.153 54.7954 18.0994C54.27 17.6369 53.812 17.5878 53.2484 17.9922C52.4197 18.5865 51.5987 19.1931 50.7992 19.8257C50.1252 20.3587 50.0931 20.9729 50.6813 21.6086C51.0688 22.0267 51.4854 22.4188 51.8898 22.8232C52.9283 23.8601 52.965 23.9674 52.2957 25.2448C51.9847 25.836 51.9755 26.3706 52.2145 26.9879C53.1105 29.3023 53.956 31.6366 54.8505 33.9525C55.0757 34.5345 55.0451 35.0369 54.7663 35.5853C53.5379 37.9977 52.3508 40.4316 51.1025 42.8333C50.9049 43.2147 50.5204 43.5884 50.1314 43.7676C47.3713 45.0328 44.5836 46.2352 41.8173 47.4866C41.22 47.7561 40.7038 47.7301 40.1309 47.436C38.4997 46.5966 36.8454 45.8017 35.2157 44.9623C34.6827 44.6882 34.191 44.6667 33.6411 44.8949C32.4188 45.4035 31.1843 45.8859 29.9513 46.3684C29.2176 46.6564 28.8561 46.5783 28.3828 45.9962C27.352 44.7326 26.3303 43.4613 25.321 42.1808C24.8768 41.6186 24.9135 41.2158 25.3087 40.6246C25.494 40.3473 25.6824 40.0149 25.7039 39.6964C25.759 38.8846 25.756 38.0651 25.7115 37.2533C25.6656 36.4139 25.1264 36.0172 24.2962 36.1689C23.2532 36.3603 22.2131 36.5671 21.1777 36.7907C20.5635 36.924 20.0259 36.8551 19.5036 36.4691C18.8649 35.9958 18.2047 35.5455 17.5154 35.1533C17.1601 34.9512 16.7251 34.8057 16.3192 34.7919C14.9529 34.7474 13.5836 34.8011 12.2173 34.7566C11.8405 34.7444 11.3871 34.6157 11.1099 34.3783C8.50599 32.1497 5.92201 29.8981 3.36868 27.6143C3.07612 27.3524 2.87087 26.8546 2.85096 26.4564C2.78816 25.1146 2.85096 23.7667 2.81267 22.4234C2.80042 21.9915 2.69013 21.532 2.50633 21.1414C1.91203 19.8716 1.26259 18.6294 0.634598 17.3749V14.6838C0.93481 14.2028 1.36369 13.9884 1.93348 13.9148C3.75313 13.6805 5.56513 13.391 7.38325 13.1383C8.01278 13.051 8.35741 12.7109 8.4968 12.0998C8.69132 11.2466 8.93333 10.4057 9.12479 9.55257C9.26264 8.93683 9.59349 8.56616 10.2092 8.36704C12.709 7.55677 15.198 6.7128 17.6931 5.88722C18.7438 5.53952 19.2723 5.85965 19.4913 6.95175C19.6996 7.98871 19.9263 9.0226 20.104 10.0657C20.1959 10.6033 20.444 10.997 20.8683 11.3309C22.3602 12.5026 23.8337 13.6958 25.3225 14.8706C25.543 15.0437 25.7927 15.2061 26.0562 15.2949C28.9894 16.2844 31.9226 17.2754 34.8711 18.2158C35.2295 18.3307 35.761 18.2863 36.0781 18.0948C39.9517 15.7575 43.8055 13.3864 47.6531 11.0061C48.5047 10.4792 48.4603 9.56482 47.5995 9.06089C46.8015 8.59373 46.6452 8.17557 46.996 7.34999C47.7863 5.49664 48.5935 3.65247 49.3793 1.79759C49.5953 1.28753 49.9353 0.975067 50.4806 0.849468C51.3935 0.636562 52.3003 0.397618 53.207 0.163268C53.7906 0.0116303 54.267 0.126508 54.7035 0.578358C55.7083 1.61991 56.736 2.64002 57.773 3.65094C59.9633 5.78613 58.9662 5.35725 61.9408 5.38329C62.63 5.38942 63.1094 5.60385 63.3729 6.24564ZM29.8915 36.08C29.9712 36.2087 30.0416 36.4538 30.1581 36.4798C30.3694 36.5242 30.6559 36.5074 30.8289 36.394C31.6453 35.8533 32.4403 35.2805 33.2276 34.6969C33.5217 34.4794 33.7483 34.4779 34.044 34.6969C34.8129 35.2698 35.5894 35.8349 36.3936 36.3557C36.5927 36.4844 36.9481 36.5288 37.1502 36.4369C37.2712 36.3818 37.3141 35.9621 37.2544 35.743C37.0308 34.9175 36.8025 34.0873 36.4778 33.2985C36.222 32.6781 36.3859 32.3427 36.9174 32.0026C37.6205 31.5523 38.2883 31.0423 38.9362 30.5138C39.1261 30.3591 39.1951 30.0589 39.3207 29.8246C39.0817 29.7097 38.8458 29.5075 38.6008 29.4953C37.6634 29.4508 36.7229 29.4539 35.784 29.4708C35.3919 29.4784 35.1927 29.3314 35.0779 28.9592C34.8328 28.1612 34.5862 27.3601 34.2768 26.585C34.1466 26.2588 33.8617 25.9953 33.6473 25.7028C33.4282 25.9861 33.1326 26.2373 33.0039 26.5575C32.6853 27.3509 32.4296 28.1703 32.1799 28.9883C32.0727 29.339 31.8889 29.4753 31.5228 29.4708C30.5839 29.457 29.6434 29.4539 28.706 29.4953C28.4579 29.506 28.2189 29.6974 27.9769 29.8077C28.1071 30.0589 28.1806 30.3745 28.3797 30.546C28.9051 30.9963 29.4887 31.3777 30.0416 31.7974C31.2302 32.7026 31.0709 32.2324 30.6482 33.6921C30.4215 34.4748 30.1581 35.2452 29.8931 36.08H29.8915ZM44.7505 41.3628C44.7919 41.0381 44.8685 40.8038 44.8409 40.5847C44.7612 39.9537 44.968 39.5769 45.6312 39.4666C45.8457 39.4314 46.0402 39.2767 46.4078 39.0975C46.0417 38.9397 45.8533 38.8156 45.6496 38.7789C45.0232 38.664 44.7383 38.3423 44.8317 37.6837C44.8639 37.454 44.7704 37.2074 44.7184 36.8658C44.5162 37.0358 44.389 37.0925 44.3431 37.189C43.9525 37.99 43.3812 38.2091 42.5709 37.7955C42.453 37.7358 42.2876 37.7695 41.9812 37.748C42.2462 38.1463 42.3963 38.4296 42.6 38.6671C42.8696 38.9795 42.9033 39.2414 42.6153 39.5692C42.3994 39.8158 42.2493 40.1191 42.0701 40.3979L42.1788 40.5434C42.6398 40.4346 43.156 40.1451 43.5466 40.2646C43.9694 40.3948 44.2757 40.9049 44.7521 41.3644L44.7505 41.3628ZM47.4432 32.6536C47.3789 32.6643 47.313 32.6751 47.2487 32.6842C47.192 32.8497 47.1216 33.012 47.0818 33.1805C46.852 34.1363 46.8535 34.1317 45.8962 34.265C45.717 34.2895 45.5439 34.3707 45.2024 34.4779C45.6052 34.7352 45.8396 34.9251 46.1061 35.0477C46.5334 35.2452 46.6605 35.5194 46.5212 35.9743C46.4323 36.2623 46.4385 36.5778 46.4032 36.8811L46.5702 36.9531C46.7356 36.8198 46.9255 36.7065 47.0619 36.5487C47.4892 36.0586 47.9319 35.9498 48.4756 36.3772C48.6441 36.5089 48.8861 36.5503 49.269 36.7019C49.0959 36.2424 49.027 35.9437 48.8784 35.694C48.6349 35.2835 48.7023 34.9971 49.0776 34.7107C49.315 34.5299 49.4942 34.2742 49.701 34.0521L49.5968 33.8851C49.2798 33.9035 48.9566 33.882 48.6502 33.9479C48.2612 34.0306 48.0391 33.9265 47.8951 33.5512C47.7772 33.2403 47.5979 32.9523 47.4463 32.6536H47.4432ZM44.5346 22.3131L44.3707 22.2993C44.2543 22.5 44.0888 22.6869 44.0276 22.9028C43.8361 23.5829 43.4011 23.7223 42.77 23.5645C42.5663 23.514 42.3396 23.5569 42.1237 23.5569L41.9628 23.854C42.1849 23.9965 42.4086 24.1359 42.6261 24.2829C43.0779 24.5846 43.1453 24.9553 42.8696 25.4286C42.7317 25.6645 42.6735 25.9478 42.5786 26.2082L42.7394 26.3124C43.0059 26.1791 43.2924 26.075 43.5328 25.9065C43.9249 25.6339 44.2267 25.6859 44.5392 26.0336C44.7306 26.245 44.9833 26.4028 45.2085 26.5835L45.3571 26.4947C45.3326 26.2465 45.3464 25.9861 45.2774 25.7503C45.1212 25.2249 45.207 24.8558 45.7691 24.6413C46.005 24.5509 46.1964 24.3472 46.4094 24.1956L46.3481 24.0332C46.077 23.9781 45.8043 23.8678 45.5363 23.8785C45.0017 23.8984 44.8271 23.6166 44.7582 23.154C44.7153 22.8691 44.6111 22.5934 44.5346 22.3131ZM49.7837 27.5776C49.4467 27.6189 49.2736 27.596 49.1465 27.6618C48.3776 28.0601 47.8446 27.8364 47.4724 27.0859C47.4111 26.9649 47.2564 26.8898 47.0619 26.7198C47.0128 26.9894 46.9409 27.1472 46.9654 27.2896C47.0971 28.0876 46.8198 28.567 45.9759 28.6727C45.8166 28.6926 45.6726 28.8213 45.3663 28.9806C45.7706 29.1506 46.0126 29.2946 46.273 29.3528C46.7984 29.4677 47.0328 29.7357 46.9638 30.2902C46.9317 30.5475 47.0006 30.8156 47.0236 31.0806L47.1966 31.1357C47.3866 30.9136 47.6071 30.7099 47.7572 30.4633C48.0008 30.062 48.2841 29.9701 48.7191 30.1615C48.9887 30.281 49.3012 30.3025 49.5938 30.3668L49.6749 30.1968C49.5264 29.964 49.4084 29.702 49.2215 29.5044C48.8693 29.1277 48.9183 28.8091 49.2369 28.443C49.4237 28.2285 49.5493 27.9605 49.7867 27.5806L49.7837 27.5776Z" fill="#B22322"/>
<path id="Vector_2" d="M29.8914 36.0804C30.1564 35.2456 30.4214 34.4736 30.6466 33.6925C31.0678 32.2343 31.2286 32.703 30.04 31.7977C29.4886 31.3781 28.9035 30.9967 28.3781 30.5464C28.179 30.3748 28.1055 30.0577 27.9753 29.8081C28.2188 29.6993 28.4578 29.5079 28.7044 29.4956C29.6418 29.4543 30.5822 29.4573 31.5212 29.4711C31.8888 29.4757 32.071 29.3409 32.1783 28.9886C32.4279 28.1707 32.6852 27.3512 33.0023 26.5578C33.131 26.2392 33.4251 25.9865 33.6456 25.7031C33.8601 25.9957 34.1465 26.2591 34.2751 26.5854C34.583 27.3604 34.8312 28.1615 35.0762 28.9595C35.1896 29.3302 35.3887 29.4772 35.7823 29.4711C36.7213 29.4543 37.6617 29.4512 38.5991 29.4956C38.8442 29.5063 39.0785 29.71 39.319 29.8249C39.195 30.0593 39.1245 30.3595 38.9346 30.5142C38.2867 31.0426 37.6188 31.5527 36.9158 32.003C36.3843 32.343 36.2204 32.6785 36.4762 33.2988C36.8009 34.0876 37.0291 34.9178 37.2528 35.7434C37.3125 35.9624 37.2696 36.3821 37.1486 36.4373C36.9464 36.5292 36.5895 36.4847 36.392 36.3561C35.5878 35.8338 34.8112 35.2701 34.0423 34.6972C33.7467 34.4767 33.52 34.4782 33.2259 34.6972C32.4386 35.2808 31.6437 35.8537 30.8273 36.3944C30.6542 36.5092 30.3678 36.5261 30.1564 36.4801C30.0385 36.4556 29.9695 36.209 29.8899 36.0804H29.8914Z" fill="#FEBB42"/>
<path id="Vector_3" d="M44.7489 41.3633C44.2741 40.9038 43.9677 40.3938 43.5435 40.2636C43.1529 40.1441 42.6367 40.4336 42.1757 40.5423L42.0669 40.3968C42.2461 40.1181 42.3962 39.8148 42.6122 39.5682C42.9002 39.2404 42.8665 38.9785 42.5969 38.666C42.3932 38.4286 42.2415 38.1452 41.9781 37.747C42.2829 37.7684 42.4498 37.7332 42.5678 37.7945C43.378 38.2096 43.9494 37.9905 44.3399 37.1879C44.3859 37.093 44.513 37.0348 44.7152 36.8647C44.7673 37.2048 44.8607 37.4529 44.8286 37.6827C44.7351 38.3413 45.02 38.663 45.6465 38.7778C45.8502 38.8146 46.0386 38.9387 46.4047 39.0964C46.0386 39.2756 45.8425 39.4303 45.6281 39.4656C44.9649 39.5758 44.7581 39.9542 44.8377 40.5837C44.8653 40.8043 44.7887 41.0371 44.7474 41.3618L44.7489 41.3633Z" fill="#FEBB42"/>
<path id="Vector_4" d="M47.4416 32.6553C47.5933 32.954 47.7725 33.2419 47.8904 33.5528C48.0329 33.9281 48.255 34.0323 48.6455 33.9496C48.9519 33.8837 49.2766 33.9051 49.5921 33.8868L49.6963 34.0537C49.491 34.2758 49.3103 34.5316 49.0729 34.7123C48.6976 34.9988 48.6318 35.2852 48.8738 35.6957C49.0223 35.9454 49.0913 36.244 49.2643 36.7035C48.8814 36.5519 48.6409 36.5121 48.4709 36.3788C47.9256 35.953 47.483 36.0602 47.0572 36.5504C46.9193 36.7081 46.7309 36.8215 46.5655 36.9547L46.3985 36.8828C46.4353 36.5795 46.4292 36.264 46.5165 35.976C46.6574 35.5211 46.5287 35.2454 46.1014 35.0493C45.8364 34.9268 45.6005 34.7368 45.1977 34.4795C45.5393 34.3723 45.7123 34.2927 45.8916 34.2666C46.8489 34.1349 46.8473 34.1395 47.0771 33.1822C47.1184 33.0122 47.1874 32.8513 47.244 32.6859C47.3084 32.6752 47.3742 32.6645 47.4386 32.6553H47.4416Z" fill="#FEBB42"/>
<path id="Vector_5" d="M44.533 22.3151C44.6096 22.5954 44.7137 22.8711 44.7566 23.156C44.8255 23.6185 45.0002 23.9019 45.5347 23.8804C45.8028 23.8697 46.0754 23.98 46.3465 24.0351L46.4078 24.1975C46.1964 24.3491 46.0034 24.5529 45.7675 24.6432C45.2054 24.8577 45.1196 25.2283 45.2759 25.7522C45.3463 25.9881 45.3325 26.2469 45.3555 26.4966L45.2069 26.5854C44.9818 26.4032 44.7291 26.2469 44.5376 26.0355C44.2236 25.6879 43.9234 25.6358 43.5313 25.9084C43.2893 26.0769 43.0028 26.1811 42.7378 26.3143L42.577 26.2102C42.672 25.9482 42.7302 25.6664 42.868 25.4305C43.1437 24.9572 43.0764 24.5866 42.6245 24.2848C42.4055 24.1378 42.1818 23.9984 41.9613 23.8559L42.1221 23.5588C42.3381 23.5588 42.5663 23.5159 42.7685 23.5665C43.3995 23.7242 43.8345 23.5864 44.026 22.9048C44.0873 22.6888 44.2512 22.5019 44.3691 22.3013L44.533 22.3151Z" fill="#FEBB42"/>
<path id="Vector_6" d="M49.7821 27.5791C49.5447 27.9589 49.4191 28.227 49.2323 28.4414C48.9137 28.806 48.8647 29.1261 49.2169 29.5029C49.4023 29.702 49.5218 29.9624 49.6703 30.1952L49.5891 30.3652C49.2966 30.2994 48.9841 30.2779 48.7145 30.16C48.2795 29.9685 47.9962 30.0604 47.7526 30.4617C47.6025 30.7083 47.382 30.912 47.192 31.1341L47.019 31.079C46.996 30.8156 46.9271 30.546 46.9592 30.2886C47.0297 29.7357 46.7938 29.4661 46.2684 29.3512C46.008 29.2946 45.766 29.1491 45.3617 28.979C45.668 28.8197 45.812 28.6911 45.9713 28.6712C46.8152 28.5655 47.0909 28.0861 46.9608 27.2881C46.9378 27.1456 47.0082 26.9878 47.0572 26.7183C47.2533 26.8883 47.408 26.9633 47.4677 27.0843C47.8415 27.8349 48.373 28.057 49.1419 27.6603C49.269 27.5944 49.4421 27.6174 49.7791 27.576L49.7821 27.5791Z" fill="#FEBB42"/>
<path id="Vector_7" d="M39.3635 50.0275C39.6897 50.0275 40.0252 49.9769 40.3361 50.0443C40.5628 50.0933 40.8707 50.2588 40.9381 50.4456C41.056 50.7734 40.984 51.1242 40.5414 51.262C39.8245 51.4856 39.1169 51.7414 38.4016 51.9697C37.9865 52.1014 37.7491 51.9789 37.7108 51.4979C37.5959 50.0275 37.5867 50.0275 39.362 50.0275H39.3635Z" fill="#B22322"/>
</g>
</g>
</g>
</g>
<defs>
<clipPath id="clip0_47_2257">
<rect width="62.7383" height="51.9199" fill="white" transform="translate(0.634583 0.100586)"/>
</clipPath>
</defs>
</svg>
