<svg width="50" height="53" viewBox="0 0 50 53" fill="none" xmlns="http://www.w3.org/2000/svg">
<g id="&#208;&#160;&#208;&#181;&#209;&#129;&#209;&#131;&#209;&#128;&#209;&#129; 5" clip-path="url(#clip0_47_2273)">
<g id="b">
<g id="c">
<g id="Group">
<path id="Vector" d="M5.45839 20.4666C5.45295 17.6168 5.44615 14.7684 5.44343 11.9186C5.44071 8.84863 5.47198 5.77861 5.42576 2.70859C5.41216 1.74733 5.69496 1.06752 6.58143 0.671875H34.8751C35.4163 1.0009 35.9492 1.38296 35.9764 2.0682C36.0172 3.10559 35.9642 4.14842 35.9519 5.18853C35.8296 5.0716 35.6895 4.96827 35.5903 4.83503C35.2137 4.32653 34.7283 4.19737 34.0988 4.20009C27.1756 4.22456 20.2511 4.2164 13.3279 4.22456C12.9771 4.22456 12.6249 4.28846 12.2742 4.32381C11.5209 4.29254 10.7677 4.2436 10.0145 4.2368C8.82888 4.22592 7.91114 5.12735 7.90978 6.30478C7.9057 11.0172 7.90978 15.7297 7.9125 20.4421L5.46111 20.4679L5.45839 20.4666Z" fill="#B22322"/>
<path id="Vector_2" d="M35.9506 5.19C35.9642 4.14989 36.0158 3.10842 35.9764 2.06967C35.9492 1.38442 35.4163 1.00237 34.8751 0.67334H38.0294C38.9499 1.04859 39.2681 1.74608 39.2477 2.71957C39.2082 4.61216 39.2422 6.50611 39.2449 8.3987C39.1824 8.38238 39.0995 8.38646 39.06 8.34703C38.0199 7.29741 36.9853 6.2437 35.9492 5.19H35.9506Z" fill="#B22322"/>
<path id="Vector_3" d="M5.45834 20.4668C6.27547 20.4586 7.0926 20.4491 7.90973 20.4409C8.89138 20.4409 9.87302 20.4436 10.8547 20.4436L12.2823 20.5021C12.5229 20.7523 12.8302 20.9644 12.9906 21.2567C13.733 22.6068 14.44 23.9773 15.1443 25.3464C15.2775 25.6061 15.4366 25.7258 15.7357 25.7108C16.663 25.6632 17.5929 25.636 18.5202 25.6007C18.7173 25.6292 18.9159 25.6809 19.113 25.6809C27.2014 25.685 35.2898 25.6836 43.3795 25.6809C43.5644 25.6809 43.7493 25.6578 43.9342 25.6455C44.1028 25.6659 44.2714 25.6877 44.44 25.7081C45.4869 26.1595 45.8717 26.9848 45.8703 28.0888C45.8594 35.5259 45.8608 42.9617 45.8676 50.3988C45.8676 51.5259 45.4611 52.3621 44.3475 52.7577C44.0253 52.7645 43.7031 52.7768 43.3822 52.7768C30.0362 52.7768 16.6902 52.7645 3.34413 52.7971C1.94508 52.8026 0.846505 51.9501 0.853303 50.2873C0.895451 40.9943 0.885934 31.7013 0.856022 22.4083C0.851943 21.3002 1.42298 20.3852 2.81387 20.4763C3.69083 20.5334 4.57594 20.4735 5.45698 20.4668H5.45834Z" fill="#FECE78"/>
<path id="Vector_4" d="M12.2823 20.5033C11.8065 20.4843 11.3306 20.4639 10.8547 20.4449C10.8561 15.8208 10.8629 11.1967 10.8561 6.57267C10.8547 5.51216 11.2953 4.75486 12.2715 4.3225C12.6222 4.28851 12.9744 4.2246 13.3252 4.22325C20.2484 4.21509 27.1729 4.22324 34.0961 4.19877C34.7269 4.19605 35.2123 4.32658 35.5876 4.83371C35.6868 4.96696 35.8282 5.07029 35.9492 5.18722C36.9853 6.24092 38.0199 7.29463 39.0601 8.34425C39.0995 8.38368 39.1824 8.3796 39.245 8.39592C40.3367 9.50537 41.3619 10.6964 42.542 11.7025C43.6447 12.6434 44.0145 13.6821 43.9696 15.1247C43.8595 18.6284 43.9356 22.1376 43.937 25.6441C43.7521 25.6563 43.5672 25.6794 43.3823 25.6794C35.2939 25.6808 27.2055 25.6821 19.1158 25.6794C18.9186 25.6794 18.7201 25.6264 18.523 25.5992C18.1518 24.8487 17.7793 24.0982 17.4081 23.349C19.5794 23.349 21.7494 23.3477 23.9207 23.3477C28.7704 23.3477 33.6216 23.3477 38.4713 23.3477C39.0995 23.3477 39.5101 23.0213 39.5046 22.5441C39.4992 22.0914 39.1131 21.7569 38.5624 21.7569C31.2368 21.7569 23.9098 21.761 16.5842 21.7637C16.489 21.6046 16.3925 21.4469 16.2973 21.2878C15.9982 20.7861 15.5658 20.4925 14.973 20.4884C14.077 20.4829 13.181 20.4979 12.2851 20.5033H12.2823ZM27.4 18.0859C31.0464 18.0859 34.6943 18.0859 38.3408 18.0859C38.4931 18.0859 38.6467 18.0941 38.799 18.0791C39.2164 18.0383 39.438 17.8004 39.4611 17.383C39.491 16.8269 39.1593 16.5577 38.4373 16.5577C31.0764 16.5577 23.714 16.5577 16.353 16.5577C16.2184 16.5577 16.0526 16.521 15.9533 16.5849C15.7358 16.7236 15.4421 16.884 15.3836 17.0934C15.3184 17.3273 15.404 17.693 15.5658 17.8711C15.714 18.0329 16.0526 18.0778 16.3082 18.0778C20.0063 18.09 23.7031 18.0859 27.4013 18.0859H27.4Z" fill="#F4F6FC"/>
<path id="Vector_5" d="M44.3489 52.7604C45.4624 52.3647 45.8703 51.5286 45.8689 50.4014C45.8621 42.9643 45.8608 35.5285 45.8716 28.0914C45.873 26.9874 45.4882 26.1621 44.4413 25.7107C45.3903 25.7067 46.3407 25.6645 47.287 25.708C48.2564 25.7529 49.0545 26.6026 49.1239 27.5707C49.1388 27.7733 49.1334 27.9772 49.1334 28.1812C49.1334 35.5408 49.1062 42.9004 49.1551 50.26C49.166 51.8848 48.1531 52.914 46.5868 52.7889C45.8458 52.7291 45.0967 52.7658 44.3502 52.759L44.3489 52.7604Z" fill="#FEBB42"/>
<path id="Vector_6" d="M12.2715 4.32257C11.2953 4.75493 10.8548 5.51224 10.8561 6.57274C10.8629 11.1968 10.8561 15.8209 10.8548 20.4449C9.87314 20.4449 8.8915 20.4422 7.90985 20.4422C7.90849 15.7298 7.90305 11.0173 7.90713 6.3049C7.90713 5.12746 8.82623 4.22604 10.0118 4.23691C10.7651 4.24371 11.5183 4.29402 12.2715 4.32393V4.32257Z" fill="#B22322"/>
<path id="Vector_7" d="M12.2823 20.5035C13.1783 20.4981 14.0743 20.4845 14.9703 20.4885C15.5631 20.4913 15.9955 20.7863 16.2946 21.288C16.3898 21.4471 16.4849 21.6062 16.5815 21.7639C16.8561 22.2928 17.1321 22.8217 17.4068 23.3505C17.7779 24.1011 18.1505 24.8516 18.5216 25.6007C17.593 25.6361 16.6644 25.6633 15.7371 25.7108C15.438 25.7258 15.279 25.6062 15.1457 25.3465C14.4401 23.976 13.7331 22.6068 12.9921 21.2567C12.8316 20.9631 12.523 20.751 12.2837 20.5021L12.2823 20.5035Z" fill="#FEBB42"/>
<path id="Vector_8" d="M27.3999 18.086C23.7017 18.086 20.0049 18.0901 16.3068 18.0779C16.0512 18.0779 15.7126 18.033 15.5644 17.8712C15.4026 17.6931 15.317 17.326 15.3822 17.0935C15.4407 16.8841 15.7344 16.7237 15.9519 16.585C16.0512 16.5225 16.2157 16.5578 16.3516 16.5578C23.7126 16.5578 31.075 16.5578 38.4359 16.5578C39.1579 16.5578 39.4896 16.827 39.4597 17.3831C39.438 17.8005 39.2164 18.0384 38.7976 18.0792C38.6467 18.0942 38.493 18.086 38.3394 18.086C34.6929 18.086 31.045 18.086 27.3985 18.086H27.3999Z" fill="#6AA8FE"/>
<path id="Vector_9" d="M17.4067 23.3503C17.1321 22.8214 16.8561 22.2925 16.5814 21.7636C23.9071 21.7609 31.234 21.7568 38.5597 21.7568C39.1117 21.7568 39.4965 22.0927 39.5019 22.5441C39.5073 23.0213 39.0967 23.3476 38.4686 23.3476C33.6188 23.349 28.7677 23.3476 23.9179 23.3476C21.7466 23.3476 19.5767 23.3476 17.4054 23.3489L17.4067 23.3503Z" fill="#6AA8FE"/>
</g>
</g>
</g>
</g>
<defs>
<clipPath id="clip0_47_2273">
<rect width="48.3005" height="52.1265" fill="white" transform="translate(0.853394 0.67334)"/>
</clipPath>
</defs>
</svg>
