<svg width="59" height="59" viewBox="0 0 59 59" fill="none" xmlns="http://www.w3.org/2000/svg">
<g id="&#208;&#160;&#208;&#181;&#209;&#129;&#209;&#131;&#209;&#128;&#209;&#129; 4" clip-path="url(#clip0_47_2225)">
<g id="b">
<g id="c">
<g id="Group">
<path id="Vector" d="M34.9076 37.8985C34.9076 42.9927 34.9091 48.0855 34.9076 53.1797C34.9076 56.0915 32.692 58.3086 29.7802 58.3086C21.9218 58.3086 14.0634 58.3056 6.20503 58.2996C3.10478 58.2965 0.931439 56.1142 0.929932 53.0003C0.929932 37.3047 0.929932 21.6105 0.929932 5.91633C0.929932 3.28179 2.20952 1.52895 4.72649 0.700011C4.82295 0.66836 4.90434 0.589987 4.99326 0.532715C13.5691 0.532715 22.1464 0.532715 30.7222 0.532715C30.7448 0.559844 30.7629 0.609581 30.7885 0.612595C32.9106 0.914029 34.9829 3.04969 34.9196 5.76712C34.8548 8.56593 34.9061 11.3663 34.9061 14.1651C33.7712 14.2058 32.6348 14.2465 31.4999 14.2856C31.4999 11.3934 31.5029 8.50263 31.4999 5.61037C31.4999 4.68648 30.8322 3.93289 29.9641 3.93138C25.964 3.92385 21.964 3.9344 17.964 3.93892C17.7394 3.93138 17.5133 3.91782 17.2888 3.91782C13.661 3.91782 10.0332 3.91782 6.40398 3.91782C4.91941 3.91782 4.31353 4.51617 4.31353 5.98566C4.31353 21.6045 4.31353 37.2218 4.31353 52.8406C4.31353 52.9536 4.31202 53.0667 4.31353 53.1782C4.33312 54.194 5.04149 54.9069 6.06486 54.9129C7.71974 54.922 9.3731 54.9175 11.028 54.9144C13.34 54.9099 15.652 54.9009 17.9625 54.8933C21.8902 54.8979 25.8193 54.9024 29.747 54.9054C30.8292 54.9054 31.4999 54.2347 31.4999 53.1541C31.4999 48.0237 31.4999 42.8933 31.4999 37.7644L34.9046 37.9L34.9076 37.8985Z" fill="#130C56"/>
<path id="Vector_2" d="M58.7089 27.4991C58.5687 28.0522 58.4391 28.6084 58.2838 29.1585C56.9922 33.7674 53.057 37.1857 48.3169 37.7614C47.2966 37.885 46.2566 37.8669 45.2242 37.8745C43.4759 37.8865 41.7276 37.8669 39.9793 37.8609C39.9762 34.4894 39.9732 31.1163 39.9702 27.7448C41.0207 27.6543 41.6733 26.9987 41.6733 26.0311C41.6733 25.0635 41.0207 24.4079 39.9702 24.319L39.9793 14.2028C41.821 14.1968 43.6643 14.1787 45.5061 14.1893C46.4435 14.1953 47.3885 14.1848 48.3169 14.2993C53.0781 14.8946 56.9922 18.2873 58.2823 22.9022C58.4466 23.487 58.5672 24.0854 58.7089 24.6762V27.4976V27.4991ZM48.4435 26.0341C48.445 25.1148 47.696 24.3506 46.7766 24.3355C45.8316 24.319 45.0509 25.0846 45.0494 26.0281C45.0479 26.946 45.7984 27.7116 46.7148 27.7282C47.6523 27.7448 48.442 26.9716 48.4435 26.0341Z" fill="#FECE78"/>
<path id="Vector_3" d="M34.9076 14.1651C36.5986 14.1771 38.2897 14.1907 39.9807 14.2028C39.9777 17.5743 39.9747 20.9473 39.9717 24.3189C38.9106 24.4937 38.2987 25.1056 38.2851 26.0039C38.2701 26.9263 38.888 27.5638 39.9717 27.7447C39.9747 31.1162 39.9777 34.4893 39.9807 37.8608C38.2897 37.8729 36.5986 37.8864 34.9076 37.8985C33.7727 37.8533 32.6378 37.8081 31.5029 37.7628C31.0537 37.5549 30.7146 37.6573 30.365 38.0266C29.5104 38.9249 28.6061 39.7764 27.7289 40.6536C27.1728 41.2098 26.5367 41.4479 25.7862 41.1163C25.0567 40.7938 24.7342 40.2015 24.7402 39.4042C24.7507 37.8819 24.7327 36.3582 24.7507 34.8359C24.7553 34.435 24.6498 34.1411 24.3739 33.8367C20.2187 29.2308 20.392 22.1576 24.7492 17.7431C26.6211 15.8471 28.8894 14.7318 31.5029 14.2841L34.9091 14.1636L34.9076 14.1651ZM34.897 26.025C34.894 25.1102 34.1268 24.3445 33.212 24.3415C32.2956 24.3385 31.5255 25.0966 31.5134 26.0114C31.5029 26.9489 32.2881 27.7356 33.2256 27.7236C34.1389 27.7115 34.9 26.9384 34.8955 26.025H34.897Z" fill="#FECE78"/>
<path id="Vector_4" d="M17.9655 54.8935C15.6535 54.901 13.3415 54.9101 11.031 54.9146C9.37616 54.9176 7.72279 54.9221 6.06792 54.9131C5.04455 54.9071 4.33618 54.1957 4.31659 53.1783C4.31508 53.0653 4.31659 52.9523 4.31659 52.8407C4.31659 37.2219 4.31659 21.6046 4.31659 5.98581C4.31659 4.51632 4.92247 3.91797 6.40703 3.91797C10.0348 3.91797 13.6626 3.91797 17.2918 3.91797C17.5164 3.91797 17.7425 3.93153 17.967 3.93907C17.97 5.05739 17.9716 6.1742 17.9746 7.29252C16.9195 7.43872 16.3001 8.05365 16.2865 8.96699C16.273 9.90445 16.8984 10.5465 17.9746 10.6972C17.9746 23.1766 17.9746 35.6575 17.9746 48.1369C17.4139 48.1429 16.8517 48.1414 16.2911 48.1534C15.3265 48.176 14.606 48.8814 14.5925 49.8098C14.5789 50.7639 15.3039 51.4993 16.2911 51.5235C16.8517 51.537 17.4139 51.5355 17.9746 51.5415L17.967 54.895L17.9655 54.8935Z" fill="#6AA8FE"/>
<path id="Vector_5" d="M17.9655 54.8934C17.9685 53.775 17.97 52.6582 17.973 51.5399C18.5548 51.5324 19.1366 51.5248 19.7168 51.5158C20.6437 51.5007 21.3355 50.7969 21.3416 49.8654C21.3476 48.8903 20.6663 48.1744 19.7168 48.1593C19.1351 48.1503 18.5533 48.1427 17.973 48.1352C17.973 35.6558 17.973 23.1749 17.973 10.6956C19.013 10.5855 19.643 9.95706 19.649 9.02111C19.6565 8.04295 19.0356 7.4024 17.973 7.29087C17.97 6.17255 17.9685 5.05574 17.9655 3.93742C21.9655 3.9329 25.9656 3.92235 29.9656 3.92988C30.8337 3.93139 31.4999 4.68498 31.5014 5.60887C31.5044 8.50113 31.5014 11.3919 31.5014 14.2841C28.8895 14.7318 26.6197 15.8471 24.7478 17.7431C20.3905 22.1576 20.2172 29.2308 24.3725 33.8367C24.6483 34.1426 24.7538 34.4365 24.7493 34.8359C24.7297 36.3582 24.7493 37.8819 24.7387 39.4042C24.7327 40.2015 25.0552 40.7923 25.7847 41.1163C26.5338 41.4479 27.1713 41.2098 27.7274 40.6536C28.6046 39.7764 29.5089 38.9249 30.3635 38.0266C30.7147 37.6573 31.0538 37.5549 31.5014 37.7629C31.5014 42.8933 31.5014 48.0237 31.5014 53.1526C31.5014 54.2332 30.8307 54.9054 29.7486 54.9039C25.8209 54.9009 21.8917 54.8964 17.964 54.8918L17.9655 54.8934Z" fill="#6AA8FE"/>
<path id="Vector_6" d="M39.9717 27.7446C38.8881 27.5623 38.2701 26.9263 38.2852 26.0039C38.3003 25.1056 38.9107 24.4952 39.9717 24.3188C41.0222 24.4078 41.6748 25.0649 41.6748 26.031C41.6748 26.9986 41.0237 27.6542 39.9717 27.7446Z" fill="#B22322"/>
<path id="Vector_7" d="M48.4435 26.0338C48.442 26.9713 47.6522 27.7444 46.7147 27.7279C45.7984 27.7113 45.0478 26.9441 45.0493 26.0278C45.0508 25.0843 45.8315 24.3186 46.7765 24.3352C47.6959 24.3518 48.445 25.1159 48.4435 26.0338Z" fill="#B22322"/>
<path id="Vector_8" d="M34.897 26.0248C34.9 26.9397 34.1404 27.7114 33.2271 27.7234C32.2896 27.7355 31.5028 26.9487 31.5149 26.0113C31.5255 25.0964 32.2971 24.3368 33.2135 24.3413C34.1283 24.3443 34.8955 25.11 34.8985 26.0248H34.897Z" fill="#B22322"/>
<path id="Vector_9" d="M17.9731 48.1367C18.5549 48.1443 19.1366 48.1518 19.7169 48.1608C20.6664 48.1759 21.3477 48.8918 21.3416 49.8669C21.3356 50.7984 20.6438 51.5022 19.7169 51.5173C19.1351 51.5263 18.5534 51.5339 17.9731 51.5414C17.4124 51.5354 16.8503 51.5369 16.2896 51.5248C15.3024 51.5022 14.5774 50.7652 14.591 49.8112C14.6046 48.8828 15.3235 48.1774 16.2896 48.1548C16.8503 48.1412 17.4124 48.1427 17.9731 48.1382V48.1367Z" fill="#FEFEFE"/>
<path id="Vector_10" d="M17.9731 7.29248C19.0356 7.40401 19.6566 8.04456 19.6491 9.02271C19.643 9.95867 19.013 10.5872 17.9731 10.6972C16.897 10.5465 16.27 9.90441 16.2851 8.96695C16.2986 8.05511 16.9196 7.43868 17.9731 7.29248Z" fill="#FEFEFE"/>
</g>
</g>
</g>
</g>
<defs>
<clipPath id="clip0_47_2225">
<rect width="57.7789" height="57.7759" fill="white" transform="translate(0.929932 0.532715)"/>
</clipPath>
</defs>
</svg>
