<svg width="41" height="41" viewBox="0 0 41 41" fill="none" xmlns="http://www.w3.org/2000/svg">
<g id="Group 22">
<circle id="Ellipse 3" cx="20.624" cy="20.3232" r="20" fill="white"/>
<path id="Vector" d="M30.0477 26.5049C30.0477 26.4219 29.9647 26.4219 29.9647 26.3389C29.6326 25.6747 28.8854 24.8445 27.8891 23.9312C27.391 23.5161 27.1419 23.184 26.9759 23.0179C26.7268 22.6859 26.7268 22.4368 26.8098 22.1047C26.8929 21.8556 27.2249 21.4405 27.8061 20.6933C28.1382 20.2782 28.3042 20.0291 28.5533 19.7801C29.7986 18.1196 30.3798 17.0403 30.2137 16.5422L30.1307 16.4591C30.0477 16.3761 29.9647 16.2931 29.7986 16.2931C29.6326 16.2101 29.3835 16.2101 29.1345 16.2931H25.9796C25.8966 16.2931 25.8966 16.2931 25.7305 16.2931C25.6475 16.2931 25.5645 16.2931 25.5645 16.2931H25.4815H25.3984L25.3154 16.3761C25.2324 16.4591 25.2324 16.4591 25.2324 16.5422C24.9003 17.4554 24.4852 18.2026 24.0701 19.0328C23.821 19.448 23.5719 19.8631 23.3229 20.1952C23.0738 20.5273 22.9077 20.7763 22.7417 20.9424C22.5756 21.1084 22.4096 21.1914 22.3266 21.3575C22.2435 21.4405 22.0775 21.5235 22.0775 21.4405C21.9945 21.4405 21.9115 21.4405 21.9115 21.3575C21.8284 21.2745 21.7454 21.1914 21.6624 21.1084C21.5794 21.0254 21.5794 20.8593 21.4963 20.6933C21.4963 20.5273 21.4963 20.3612 21.4963 20.2782C21.4963 20.1952 21.4963 19.9461 21.4963 19.7801C21.4963 19.531 21.4963 19.3649 21.4963 19.2819C21.4963 19.0328 21.4963 18.7008 21.4963 18.3687C21.4963 18.0366 21.4963 17.7875 21.4963 17.6215C21.4963 17.4554 21.4963 17.2063 21.4963 17.0403C21.4963 16.7912 21.4963 16.6252 21.4963 16.5422C21.4963 16.4591 21.4133 16.2931 21.4133 16.2101C21.3303 16.127 21.2473 16.044 21.1643 15.961C21.0812 15.878 20.9152 15.878 20.8322 15.7949C20.4171 15.7119 19.9189 15.6289 19.3378 15.6289C18.0094 15.6289 17.0961 15.7119 16.764 15.878C16.598 15.961 16.432 16.044 16.3489 16.2101C16.1829 16.3761 16.1829 16.4591 16.2659 16.4591C16.681 16.5422 17.0131 16.7082 17.1792 16.9573L17.2622 17.1233C17.3452 17.2063 17.3452 17.3724 17.4282 17.6215C17.5112 17.8705 17.5112 18.1196 17.5112 18.4517C17.5112 18.9498 17.5112 19.448 17.5112 19.7801C17.5112 20.1952 17.4282 20.4442 17.4282 20.6933C17.4282 20.9424 17.3452 21.1084 17.2622 21.1914C17.1792 21.3575 17.1792 21.4405 17.0961 21.4405C17.0961 21.4405 17.0961 21.5235 17.0131 21.5235C16.9301 21.5235 16.8471 21.6066 16.681 21.6066C16.598 21.6066 16.432 21.5235 16.3489 21.4405C16.1829 21.3575 16.0168 21.1914 15.9338 21.0254C15.7678 20.8594 15.6017 20.6103 15.4357 20.2782C15.2696 19.9461 15.0206 19.614 14.8545 19.1159L14.6885 18.7838C14.6055 18.6177 14.4394 18.2856 14.2734 17.8705C14.1073 17.4554 13.9413 17.1233 13.7752 16.7082C13.6922 16.5422 13.6092 16.4591 13.5262 16.3761H13.4431C13.4431 16.3761 13.3601 16.2931 13.2771 16.2931C13.1941 16.2931 13.111 16.2101 13.028 16.2101H10.0392C9.70709 16.2101 9.54105 16.2931 9.45803 16.3761L9.375 16.4591C9.375 16.4591 9.375 16.5422 9.375 16.6252C9.375 16.7082 9.37501 16.7912 9.45803 16.9573C9.87314 17.9535 10.3713 18.9498 10.8694 19.9461C11.3676 20.8593 11.8657 21.6896 12.1978 22.2707C12.6129 22.8519 12.945 23.4331 13.3601 23.9312C13.7752 24.4293 14.0243 24.7614 14.1073 24.9275C14.2734 25.0935 14.3564 25.1765 14.4394 25.2596L14.6885 25.5086C14.8545 25.6747 15.1036 25.9237 15.4357 26.1728C15.7678 26.4219 16.1829 26.6709 16.598 26.92C17.0131 27.1691 17.5113 27.3351 18.0094 27.5012C18.5906 27.6672 19.0887 27.7503 19.5868 27.6672H20.8322C21.0812 27.6672 21.2473 27.5842 21.4133 27.4182L21.4963 27.3351C21.4963 27.2521 21.5794 27.2521 21.5794 27.1691C21.5794 27.0861 21.5794 27.003 21.5794 26.837C21.5794 26.5049 21.5794 26.2558 21.6624 26.0068C21.7454 25.7577 21.7454 25.5917 21.8285 25.4256C21.9115 25.2596 21.9945 25.1765 22.0775 25.0935C22.1605 25.0105 22.2436 24.9275 22.2436 24.9275H22.3266C22.4926 24.8444 22.7417 24.9275 22.9077 25.0935C23.1568 25.2596 23.4059 25.5086 23.5719 25.7577C23.738 26.0068 23.987 26.2558 24.3191 26.5879C24.6512 26.92 24.9003 27.1691 25.0663 27.2521L25.3154 27.4182C25.4814 27.5012 25.6475 27.5842 25.8966 27.6672C26.1456 27.7503 26.3117 27.7502 26.4777 27.7502L29.3005 27.6672C29.5496 27.6672 29.7986 27.5842 29.9647 27.5012C30.1307 27.4182 30.2137 27.3351 30.2137 27.1691C30.2137 27.0861 30.2137 26.92 30.2137 26.837C30.0477 26.671 30.0477 26.5879 30.0477 26.5049Z" fill="#7294C7"/>
</g>
</svg>
