<svg width="41" height="41" viewBox="0 0 41 41" fill="none" xmlns="http://www.w3.org/2000/svg">
<g id="Group 21">
<circle id="Ellipse 3" cx="20.624" cy="20.3232" r="20" fill="white"/>
<path id="Vector" d="M9.78845 19.9737L14.3865 21.6882L16.179 27.4553C16.2569 27.845 16.7245 27.9229 17.0363 27.6891L19.6081 25.5849C19.8419 25.3511 20.2316 25.3511 20.5433 25.5849L25.1414 28.936C25.4531 29.1698 25.9207 29.014 25.9986 28.6243L29.4277 12.2583C29.5056 11.8686 29.116 11.4789 28.7263 11.6348L9.78845 18.9606C9.32084 19.1164 9.32084 19.8178 9.78845 19.9737ZM15.9452 20.831L24.9855 15.2977C25.1414 15.2197 25.2972 15.4535 25.1414 15.5315L17.7377 22.4676C17.5039 22.7014 17.2701 23.0131 17.2701 23.4028L17.0363 25.2732C17.0363 25.507 16.6466 25.5849 16.5687 25.2732L15.6335 21.8441C15.3997 21.4544 15.5555 20.9868 15.9452 20.831Z" fill="#2F89CE"/>
</g>
</svg>
