<svg width="219" height="38" viewBox="0 0 219 38" fill="none" xmlns="http://www.w3.org/2000/svg">
<path d="M85.4845 33.6496C82.3856 33.6496 79.8783 33.1858 77.9767 32.2581C76.0751 31.3304 74.7299 30.1357 73.92 28.6739C73.1241 27.2191 72.7227 25.6237 72.7227 23.8878H81.9278C81.9278 24.6328 82.2095 25.2231 82.7588 25.6378C83.3152 26.0595 84.1322 26.2633 85.2098 26.2633C86.3437 26.2633 87.1325 26.1157 87.5903 25.8275C88.041 25.5394 88.2664 25.1037 88.2664 24.4993C88.2664 24.1127 88.1115 23.7965 87.8086 23.5294C87.5058 23.2624 87.0339 23.0234 86.386 22.8266C85.738 22.6158 84.8083 22.3909 83.6251 22.1519C81.4489 21.7514 79.6036 21.2313 78.1035 20.5636C76.6033 19.903 75.4131 18.9683 74.5468 17.7665C73.6805 16.5648 73.2438 15.0186 73.2438 13.1422C73.2438 10.2888 74.2791 8.10314 76.3357 6.58511C78.3993 5.07411 81.3432 4.31509 85.1605 4.31509C88.9777 4.31509 92.0696 5.15142 94.0275 6.82406C95.9784 8.49671 96.9644 10.8089 96.9644 13.7536H87.7945C87.7664 12.4815 86.8226 11.849 84.9421 11.849C83.9843 11.849 83.3364 11.9826 82.9983 12.2496C82.6532 12.5237 82.4771 12.861 82.4771 13.2827C82.4771 13.6552 82.6321 13.9574 82.942 14.2174C83.2518 14.4704 83.7801 14.6953 84.5477 14.8991C85.3013 15.1029 86.386 15.3138 87.7945 15.5317C91.1892 16.0377 93.6965 17.0145 95.3164 18.4623C96.9363 19.91 97.7462 21.913 97.7462 24.4782C97.7462 26.4811 97.225 28.1749 96.1827 29.5523C95.1474 30.9368 93.7036 31.9629 91.8724 32.6306C90.0342 33.3053 87.9002 33.6426 85.4774 33.6426" fill="#1F1B20"/>
<path d="M111.726 25.6659C112.325 25.6659 112.867 25.5113 113.346 25.2091C113.832 24.9069 114.199 24.4923 114.473 23.9511C114.755 23.41 114.889 22.8126 114.889 22.1449C114.889 21.4773 114.755 20.894 114.473 20.3598C114.199 19.8257 113.825 19.4111 113.339 19.1018C112.846 18.7926 112.318 18.638 111.726 18.638C110.811 18.638 110.05 18.9472 109.459 19.5587C108.86 20.1771 108.571 21.0345 108.571 22.1379C108.571 23.2413 108.867 24.1549 109.459 24.7593C110.057 25.3637 110.811 25.6589 111.726 25.6589M109.261 33.6356C107.437 33.6356 105.761 33.1507 104.247 32.1738C102.733 31.1969 101.542 29.8335 100.669 28.0835C99.7958 26.3336 99.3521 24.3587 99.3521 22.152C99.3521 19.9452 99.7887 18.0195 100.648 16.2696C101.507 14.5126 102.69 13.1422 104.198 12.1372C105.698 11.1462 107.367 10.6402 109.205 10.6402C110.515 10.6402 111.698 10.8581 112.748 11.2868C113.804 11.7155 114.692 12.348 115.417 13.1984L115.769 11.3782H124.157V32.8695H115.769L115.417 31.0844C114.699 31.9278 113.804 32.5673 112.748 32.989C111.698 33.4107 110.536 33.6145 109.261 33.6145V33.6356Z" fill="#1F1B20"/>
<path d="M156.428 10.6613C159.154 10.6613 161.189 11.596 162.555 13.4725C163.915 15.3349 164.591 18.0055 164.591 21.4703V32.8906H155.322V21.8568C155.322 20.7394 155.125 19.9241 154.731 19.4111C154.343 18.898 153.822 18.645 153.16 18.645C152.681 18.645 152.251 18.7996 151.871 19.1159C151.484 19.4322 151.188 19.8819 150.97 20.4723C150.751 21.0626 150.639 21.7373 150.639 22.5174V32.8906H141.37V21.8568C141.37 20.7394 141.173 19.9241 140.778 19.4111C140.391 18.898 139.87 18.645 139.208 18.645C138.49 18.645 137.884 18.9964 137.412 19.6992C136.933 20.395 136.708 21.3438 136.708 22.5174V32.8906H127.432V11.3992H135.743L136.215 13.2757C136.926 12.4605 137.813 11.8139 138.863 11.3571C139.919 10.8932 141.124 10.6613 142.476 10.6613C145.532 10.6613 147.751 11.8561 149.103 14.2456C150.35 12.9384 151.533 12.0107 152.653 11.4695C153.773 10.9284 155.033 10.6613 156.428 10.6613Z" fill="#1F1B20"/>
<path d="M179.367 33.6496C175.909 33.6496 173.077 32.8555 170.88 31.2461C168.69 29.6437 167.591 26.9661 167.591 23.2132V11.3992H176.881V22.4331C176.881 24.5766 177.705 25.6448 179.367 25.6448C181.029 25.6448 181.846 24.5766 181.846 22.4331V11.3992H191.135V23.2061C191.135 26.945 190.03 29.6226 187.818 31.232C185.6 32.8414 182.783 33.6426 179.367 33.6426" fill="#1F1B20"/>
<path d="M206.229 33.6496C203.13 33.6496 200.622 33.1858 198.721 32.2581C196.819 31.3304 195.474 30.1357 194.664 28.6739C193.868 27.2191 193.467 25.6237 193.467 23.8878H202.672C202.672 24.6328 202.954 25.2231 203.503 25.6378C204.059 26.0595 204.876 26.2633 205.954 26.2633C207.088 26.2633 207.877 26.1157 208.334 25.8275C208.785 25.5394 209.011 25.1037 209.011 24.4993C209.011 24.1127 208.856 23.7965 208.553 23.5294C208.25 23.2624 207.778 23.0234 207.13 22.8266C206.482 22.6158 205.552 22.3909 204.369 22.1519C202.193 21.7514 200.348 21.2313 198.848 20.5636C197.347 19.903 196.157 18.9683 195.291 17.7665C194.425 16.5648 193.988 15.0186 193.988 13.1422C193.988 10.2888 195.023 8.10314 197.08 6.58511C199.143 5.07411 202.087 4.31509 205.905 4.31509C209.722 4.31509 212.814 5.15142 214.772 6.82406C216.723 8.49671 217.709 10.8089 217.709 13.7536H208.539C208.511 12.4815 207.567 11.849 205.686 11.849C204.728 11.849 204.08 11.9826 203.742 12.2496C203.397 12.5237 203.221 12.861 203.221 13.2827C203.221 13.6552 203.376 13.9574 203.686 14.2174C203.996 14.4704 204.524 14.6953 205.292 14.8991C206.045 15.1029 207.137 15.3138 208.539 15.5317C211.933 16.0377 214.441 17.0145 216.061 18.4623C217.68 19.91 218.49 21.913 218.49 24.4782C218.49 26.4811 217.969 28.1749 216.927 29.5523C215.892 30.9368 214.448 31.9629 212.617 32.6306C210.778 33.3053 208.644 33.6426 206.222 33.6426" fill="#1F1B20"/>
<path fill-rule="evenodd" clip-rule="evenodd" d="M17.6046 34.8514V18.5467L3.44128 10.7949V25.6097C3.44128 26.7412 3.64553 27.1348 4.63154 27.704L17.6046 34.8585V34.8514Z" fill="#B22322"/>
<path d="M17.6046 34.8514V18.5467L3.44128 10.7949V25.6097C3.44128 26.7412 3.64553 27.1348 4.63154 27.704L17.6046 34.8585V34.8514Z" stroke="#1F1B20" stroke-width="0.57" stroke-miterlimit="22.93"/>
<path fill-rule="evenodd" clip-rule="evenodd" d="M18.9498 19.2846V34.8514L33.0709 27.0715L18.9498 19.2846Z" fill="#B22322"/>
<path d="M18.9498 19.2846V34.8514L33.0709 27.0715L18.9498 19.2846Z" stroke="#1F1B20" stroke-width="0.57" stroke-miterlimit="22.93"/>
<path fill-rule="evenodd" clip-rule="evenodd" d="M51.3333 19.3056L65.4191 27.0645L65.4614 27.0364V11.5117L51.3333 19.3056Z" fill="#B22322"/>
<path d="M51.3333 19.3056L65.4191 27.0645L65.4614 27.0364V11.5117L51.3333 19.3056Z" stroke="#1F1B20" stroke-width="0.57" stroke-miterlimit="22.93"/>
<path d="M64.0457 27.8233L33.4301 10.9703C28.8029 8.41921 24.1686 5.86105 19.5414 3.30992C18.5625 2.75471 17.999 2.76877 16.9919 3.32397L4.87805 10.0005L35.1063 26.6567C39.9589 29.3343 44.6354 31.9065 49.488 34.5842C50.3965 35.1112 50.7276 35.2026 51.6502 34.6544L64.0457 27.8233ZM49.9528 18.5394L64.736 10.38C60.4468 8.01862 56.1577 5.65021 51.8685 3.28883C50.7557 2.69146 50.2557 2.87419 49.3964 3.29586L35.8529 10.7595L49.9599 18.5324L49.9528 18.5394ZM65.4684 11.5045L51.3403 19.2984L65.4262 27.0573L65.4684 27.0291V11.5115V11.5045ZM17.6046 34.8512V18.5464L3.44129 10.7946V25.6095C3.44129 26.741 3.64554 27.1346 4.63155 27.7038L17.6046 34.8582V34.8512ZM18.9498 19.2844V34.8512L33.0709 27.0713L18.9498 19.2914V19.2844ZM34.4584 29.3624L19.9781 37.3461C18.5273 38.1473 18.0906 38.1965 16.4848 37.318C12.1323 34.9215 7.77974 32.5179 3.42721 30.1214C1.27207 28.9337 0.757935 28.252 0.757935 25.8695V11.9894C0.757935 9.69127 1.096 9.03064 3.13845 7.90618C7.41351 5.5448 11.6886 3.19044 15.9566 0.836091C17.8511 -0.267292 18.8371 -0.30946 20.6754 0.864202L34.4513 8.47544L48.3189 0.836091C50.1571 -0.260264 51.0868 -0.182957 52.9602 0.850146C55.4886 2.23465 61.4962 5.55885 65.7713 7.9132C67.701 8.98145 68.1518 9.87399 68.1518 12.0035V25.9047C68.1518 28.2731 67.7081 28.8283 65.4614 30.1285C62.8555 31.6324 57.3902 34.5631 52.3263 37.3532C50.96 38.1192 50.3472 38.1965 48.9316 37.3532L34.4513 29.3765L34.4584 29.3624Z" fill="#1F1B20"/>
</svg>
