<svg width="19" height="19" viewBox="0 0 19 19" fill="none" xmlns="http://www.w3.org/2000/svg">
<g id="phone 1" clip-path="url(#clip0_47_2152)">
<g id="b">
<g id="c">
<g id="Group">
<path id="Vector" d="M15.0779 18.9171C14.6637 18.9074 14.1443 18.7381 13.6249 18.5819C7.81278 16.827 3.12329 12.2162 1.27222 6.43194C1.11073 5.92742 0.95652 5.41275 0.878442 4.8913C0.731502 3.90356 1.09328 3.08366 1.90169 2.50804C2.61942 1.99724 3.37547 1.53819 4.12666 1.07576C4.6795 0.735708 5.36717 0.963537 5.6014 1.57012C6.11496 2.8984 6.6101 4.23393 7.10621 5.5685C7.22308 5.88292 7.16828 6.18718 6.98594 6.4687C6.7197 6.87937 6.45831 7.29295 6.18625 7.69975C5.89819 8.13123 5.90498 8.54867 6.18819 8.98305C7.40348 10.8492 8.9437 12.3874 10.8161 13.5943C11.2196 13.8541 11.6192 13.8628 12.0227 13.603C12.4344 13.3384 12.8481 13.0762 13.2544 12.8039C13.5886 12.5804 13.9319 12.5495 14.3053 12.6907C15.5589 13.1648 16.8159 13.6306 18.07 14.1032C18.8411 14.3939 19.0632 15.0701 18.62 15.7628C18.2131 16.3989 17.8081 17.0364 17.3984 17.6706C16.8751 18.4808 16.1089 18.9156 15.0774 18.9166L15.0779 18.9171Z" fill="#B22322"/>
<path id="Vector_2" d="M10.802 0.924163C14.3999 0.980757 17.5982 3.48253 18.5535 6.98898C18.7388 7.6686 18.8363 8.36031 18.846 9.06412C18.8528 9.54348 18.5676 9.87434 18.1418 9.8845C17.7034 9.89466 17.4018 9.57347 17.394 9.08782C17.3445 5.97318 15.268 3.33306 12.2433 2.58476C11.7089 2.4527 11.1454 2.4348 10.5935 2.37676C10.3055 2.34628 10.0838 2.22874 9.95484 1.96754C9.82923 1.71359 9.85251 1.46254 10.014 1.22987C10.1464 1.0388 10.3355 0.941576 10.5654 0.92513C10.6435 0.919809 10.7225 0.924163 10.8011 0.924163H10.802Z" fill="#B22322"/>
<path id="Vector_3" d="M10.722 3.86562C13.4174 3.92028 15.6535 6.02299 15.8781 8.68923C15.8892 8.82176 15.9008 8.9543 15.9028 9.08733C15.9096 9.5454 15.6113 9.87723 15.1918 9.88352C14.7704 9.88981 14.4644 9.56814 14.4557 9.11054C14.4251 7.49881 13.4266 6.09216 11.9174 5.54073C11.4941 5.38594 11.0542 5.31483 10.6022 5.30999C10.2836 5.30661 10.0218 5.11167 9.92283 4.82676C9.82681 4.55008 9.90586 4.24244 10.1246 4.04895C10.304 3.89029 10.5184 3.84676 10.7225 3.86562H10.722Z" fill="#B22322"/>
<path id="Vector_4" d="M10.6663 6.80177C11.8932 6.82111 12.9368 7.85772 12.9644 9.0849C12.9746 9.53137 12.6861 9.86658 12.2763 9.884C11.85 9.90238 11.5353 9.59619 11.513 9.14198C11.4882 8.63698 11.126 8.27661 10.6187 8.25243C10.174 8.23114 9.86996 7.92302 9.88063 7.50364C9.89081 7.09199 10.2235 6.79451 10.6663 6.80177Z" fill="#B22322"/>
</g>
</g>
</g>
</g>
<defs>
<clipPath id="clip0_47_2152">
<rect width="18" height="18" fill="white" transform="translate(0.846436 0.916901)"/>
</clipPath>
</defs>
</svg>
