<svg width="61" height="69" viewBox="0 0 61 69" fill="none" xmlns="http://www.w3.org/2000/svg">
<g id="&#208;&#191;&#209;&#128;&#208;&#190;&#208;&#178;&#208;&#181;&#209;&#128;&#208;&#186;&#208;&#176; &#208;&#189;&#208;&#176; &#208;&#177;&#209;&#128;&#208;&#176;&#208;&#186;" clip-path="url(#clip0_252_201)">
<g id="b">
<g id="c">
<g id="Group">
<path id="Vector" d="M30.1329 68.8387C28.3512 68.2112 26.5327 67.6632 24.7907 66.9407C20.9854 65.364 17.5658 63.1507 14.4677 60.4321C9.22349 55.8278 5.64471 50.1213 3.21395 43.6281C1.68325 39.538 0.758705 35.301 0.180099 30.9906C-0.092366 28.9486 -0.208699 26.8822 -0.279112 24.8218C-0.355647 22.6146 -0.325033 20.3981 -0.279112 18.1908C-0.257682 17.1255 -0.156656 16.054 0.0331516 15.007C0.103564 14.6182 0.461748 14.1406 0.816871 13.9661C5.8835 11.4619 10.9379 8.93316 16.0627 6.55444C20.4099 4.53698 24.8458 2.70626 29.2451 0.802064C29.5329 0.676546 29.8421 0.606134 30.139 0.51123C30.139 2.8379 30.136 5.16151 30.1329 7.48817C27.4695 8.62395 24.7693 9.6832 22.1457 10.9078C17.0086 13.3048 11.9083 15.7876 6.80804 18.2613C6.53252 18.3929 6.20494 18.7664 6.19576 19.0389C6.10086 21.9043 5.99983 24.7729 6.02738 27.6383C6.058 31.0518 6.65191 34.401 7.48767 37.7012C8.95103 43.475 11.4859 48.71 15.5698 53.097C19.5802 57.4044 24.5305 60.2056 30.1451 61.8771C30.1451 64.1977 30.1421 66.5213 30.139 68.8418L30.1329 68.8387Z" fill="#9FACBA"/>
<path id="Vector_2" d="M30.13 7.48512C30.13 5.15845 30.1331 2.83485 30.1361 0.508179C31.9577 1.2521 33.8098 1.93173 35.5977 2.74913C42.0205 5.68195 48.425 8.64846 54.8264 11.6272C56.2377 12.2854 57.5847 13.0875 58.9991 13.7426C59.8409 14.1345 60.2236 14.7437 60.2634 15.6162C60.3736 17.9735 60.5512 20.3338 60.5451 22.6911C60.5389 26.5852 60.1257 30.4457 59.4491 34.2877C58.6317 38.9135 57.2786 43.3556 55.2672 47.5987C53.2436 51.8663 50.5986 55.6869 47.2341 59.0086C43.4318 62.7588 39.0111 65.5416 34.0609 67.5009C32.7781 68.0091 31.4464 68.3948 30.1361 68.8387C30.1361 66.5182 30.1392 64.1946 30.1423 61.8741L30.1361 61.8036C31.3913 61.3659 32.6771 60.9924 33.9017 60.4781C39.7949 58.0106 44.5186 54.1256 47.9872 48.7376C51.569 43.1719 53.2804 36.994 53.9814 30.4885C54.3886 26.7016 54.4223 22.9085 54.012 19.1123C53.9569 18.6103 53.7549 18.399 53.3508 18.2062C48.8168 16.0264 44.3104 13.7824 39.7489 11.6609C36.6875 10.2373 33.5496 8.98521 30.4453 7.65656L30.13 7.48818V7.48512Z" fill="#9FACBA"/>
<path id="Vector_3" d="M39.6663 23.5238C41.3225 23.1289 42.7644 23.4596 43.8757 24.8127C45.0268 26.2148 45.0758 28.1251 43.9308 29.5273C43.1961 30.4304 42.3359 31.2325 41.5338 32.0805C41.0103 32.5887 40.4776 33.0907 39.9633 33.6051C36.3233 37.242 32.6863 40.882 29.0463 44.519C27.0686 46.4966 24.8705 46.4997 22.8959 44.5281C20.8234 42.4617 18.7447 40.4014 16.6905 38.3166C14.9332 36.5318 15.0189 33.9663 16.8497 32.4601C18.2028 31.3457 20.1927 31.3059 21.5826 32.3836C21.8704 32.607 22.1428 32.8519 22.403 33.1091C23.548 34.2418 24.6838 35.3807 25.8257 36.5165C25.8594 36.5501 25.9053 36.5716 26.1165 36.7644C26.2604 36.5379 26.3706 36.2777 26.5543 36.094C30.2372 32.3958 33.917 28.6946 37.6335 25.0301C38.2274 24.4423 38.9867 24.0229 39.6694 23.5238H39.6663Z" fill="#B22322"/>
</g>
</g>
</g>
</g>
<defs>
<clipPath id="clip0_252_201">
<rect width="60.873" height="68.3306" fill="white" transform="translate(-0.32811 0.508179)"/>
</clipPath>
</defs>
</svg>
