<svg width="53" height="69" viewBox="0 0 53 69" fill="none" xmlns="http://www.w3.org/2000/svg">
<g id="&#209;&#130;&#208;&#176;&#208;&#188;&#208;&#190;&#208;&#182;&#208;&#189;&#209;&#143;" clip-path="url(#clip0_252_845)">
<g id="b">
<g id="c">
<g id="Group">
<path id="Vector" d="M2.58582 68.8389C1.41576 68.3656 0.969177 67.5111 0.969177 66.2368C0.992995 46.6079 0.987041 26.976 0.987041 7.34709C0.987041 5.53098 1.7254 4.78369 3.52067 4.78369C6.7212 4.78667 9.92471 4.79262 13.1252 4.79858C12.0058 5.397 11.5294 6.31697 11.6545 7.58527C11.7021 8.06758 11.6545 8.55883 11.6455 9.0471C9.9783 9.0471 8.31104 9.05007 6.64379 9.05305C5.56305 9.05305 5.2564 9.35673 5.2564 10.4345C5.2564 28.018 5.2564 45.6046 5.2564 63.1882C5.2564 64.26 5.56305 64.5666 6.64677 64.5666C19.9669 64.5666 33.2841 64.5666 46.6043 64.5755C47.161 64.5755 47.6046 64.4386 47.9381 63.989C47.947 64.9358 48.0244 65.8915 47.9381 66.8293C47.8964 67.2938 47.5987 67.7552 47.3426 68.1691C47.1789 68.434 46.8752 68.6157 46.634 68.836H2.58582V68.8389Z" fill="#B22322"/>
<path id="Vector_2" d="M46.634 68.8386C46.8752 68.6183 47.1789 68.4396 47.3426 68.1717C47.5986 67.7549 47.8964 67.2934 47.938 66.8319C48.0214 65.8941 47.947 64.9384 47.938 63.9916C47.947 63.7029 47.9678 63.4141 47.9678 63.1253C47.9678 45.5804 47.9678 28.0385 47.9678 10.4937C47.9678 10.2049 47.95 9.91609 47.938 9.6273C47.947 8.76092 47.95 7.89455 47.9708 7.03115C47.9887 6.31959 47.7386 5.73903 47.1967 5.2716C47.0359 5.13465 46.9109 4.95602 46.771 4.79822C47.9053 4.79227 49.0396 4.76845 50.171 4.78631C51.35 4.80418 52.2044 5.68842 52.2372 6.87633C52.2431 7.05497 52.2372 7.23063 52.2372 7.40926C52.2372 27.0173 52.2312 46.6254 52.2521 66.2335C52.2521 67.5078 51.8144 68.3652 50.6354 68.8386H46.631H46.634Z" fill="#B22322"/>
<path id="Vector_3" d="M11.6455 9.04989C11.6514 8.56162 11.7021 8.07038 11.6544 7.58807C11.5264 6.31977 12.0057 5.3998 13.1252 4.80137C14.7031 4.79542 16.2781 4.79542 17.856 4.78649C19.2464 4.78053 20.1127 3.97668 20.208 2.61013C20.2973 1.33289 21.1429 0.523084 22.4201 0.520107C25.2366 0.508198 28.056 0.508198 30.8784 0.511176C32.0485 0.511176 32.9595 1.38351 33.025 2.52677C33.1084 3.9737 33.9569 4.7716 35.4425 4.78351C36.952 4.79542 38.4615 4.78947 39.9709 4.79244C41.1618 5.28964 41.6709 6.18281 41.5697 7.46302C41.528 7.99 41.5756 8.52292 41.5846 9.05287C41.5786 10.0741 41.5757 11.0953 41.5637 12.1164C41.5548 12.962 41.1946 13.3252 40.3371 13.3252C31.1404 13.3252 21.9437 13.3252 12.7471 13.3192C11.9373 13.3192 11.6723 13.0483 11.6604 12.2445C11.6485 11.1786 11.6455 10.1128 11.6395 9.04691L11.6455 9.04989Z" fill="#FEDB91"/>
<path id="Vector_4" d="M41.5848 9.05584C41.5759 8.52589 41.5282 7.99296 41.5699 7.46599C41.6682 6.1828 41.159 5.29261 39.9711 4.79541C42.2368 4.79541 44.5025 4.80136 46.7682 4.80136C46.9081 4.95916 47.0361 5.13779 47.1939 5.27475C47.7358 5.74217 47.9859 6.32273 47.968 7.03429C47.9471 7.90067 47.9442 8.76407 47.9352 9.63044C47.6048 9.18683 47.1701 9.035 46.6133 9.04393C44.9372 9.07072 43.261 9.05584 41.5848 9.05584Z" fill="#B22322"/>
</g>
</g>
</g>
<rect id="Rectangle 10" x="10.923" y="19.8389" width="30.6616" height="2.4541" fill="#D9D9D9"/>
<rect id="Rectangle 11" x="10.923" y="24.6523" width="30.6616" height="2.4541" fill="#D9D9D9"/>
<rect id="Rectangle 12" x="10.923" y="29.6523" width="18.3232" height="2.4541" fill="#D9D9D9"/>
<rect id="Rectangle 13" x="10.923" y="42.8389" width="30.6616" height="2.4541" fill="#D9D9D9"/>
<rect id="Rectangle 14" x="10.923" y="47.6523" width="30.6616" height="2.4541" fill="#D9D9D9"/>
<rect id="Rectangle 15" x="10.923" y="52.6523" width="18.3232" height="2.4541" fill="#D9D9D9"/>
</g>
<defs>
<clipPath id="clip0_252_845">
<rect width="51.2859" height="68.3306" fill="white" transform="translate(0.969177 0.508301)"/>
</clipPath>
</defs>
</svg>
