<svg width="58" height="69" viewBox="0 0 58 69" fill="none" xmlns="http://www.w3.org/2000/svg">
<g id="&#208;&#180;&#208;&#190;&#209;&#129;&#209;&#130;&#208;&#176;&#208;&#178;&#208;&#186;&#208;&#176; &#208;&#177;&#209;&#128;&#208;&#181;&#208;&#189;&#208;&#180;&#208;&#190;&#208;&#178;" clip-path="url(#clip0_252_387)">
<g id="b">
<g id="c">
<g id="Group">
<path id="Vector" d="M33.4739 53.5028C32.3836 54.1638 31.25 54.6735 29.9527 54.8063C28.118 54.9916 26.4315 54.6426 24.8902 53.6171C24.816 53.5677 24.7264 53.5399 24.6431 53.5028C24.1643 52.9746 23.7133 52.4155 23.2006 51.9244C22.3203 51.0781 21.2732 50.6086 20.016 50.7229C18.7898 50.8341 17.5542 51.0781 16.3403 51.004C13.5635 50.831 10.7064 48.1252 10.2214 45.3854C10.0762 44.5761 9.93416 43.7669 9.79207 42.9576C9.39053 41.7499 8.53184 40.9653 7.37045 40.5731C3.86465 39.39 1.98975 34.9082 3.17894 31.5229C3.35191 31.0286 3.59902 30.5468 3.88319 30.1051C4.955 28.4464 4.89632 26.834 3.83994 25.1877C1.71793 21.8734 3.1079 16.8757 6.62296 15.1151C7.01215 14.9205 7.4384 14.7908 7.8245 14.59C9.233 13.8642 10.0515 12.6966 10.0762 11.1182C10.1473 6.62708 15.1913 3.27573 19.0369 4.48345C20.8191 5.04253 22.3975 4.51743 23.5342 3.02554C26.0917 -0.331996 32.0284 -0.328907 34.5859 3.02554C35.7442 4.54523 37.3195 4.95604 39.1543 4.48963C43.4168 3.40855 47.8307 6.68577 48.0284 11.0503C48.1118 12.8726 49.0323 14.1669 50.7373 14.7754C54.1504 15.9923 55.9327 20.0387 55.074 23.3653C54.8979 24.0418 54.5643 24.7028 54.1967 25.302C53.2207 26.8989 53.1898 28.4557 54.2029 30.0433C56.5782 33.7622 54.901 38.9175 50.8052 40.536C49.6408 40.9962 48.7357 41.7252 48.3249 42.9576C48.2261 43.4024 48.1118 43.8441 48.0284 44.292C47.9326 44.8109 47.9048 45.3422 47.7751 45.8518C46.972 49.058 42.9288 51.9893 39.0462 50.8711C37.477 50.4202 36.084 50.8001 34.9133 51.9213C34.4006 52.4124 33.9496 52.9715 33.4709 53.4997L33.4739 53.5028ZM11.7133 27.6835C11.7195 37.2773 19.4662 45.0518 29.0261 45.0549C38.6323 45.0549 46.4006 37.2742 46.3852 27.6588C46.3728 18.0742 38.5983 10.312 29.0322 10.3306C19.4415 10.3491 11.7071 18.102 11.7133 27.6835Z" fill="#FED180"/>
<path id="Vector_2" d="M9.79218 42.9577C9.93427 43.7669 10.0794 44.5762 10.2215 45.3855C10.7096 48.1252 13.5667 50.831 16.3405 51.004C17.5544 51.0812 18.7899 50.8341 20.0161 50.7229C21.2733 50.6117 22.3173 51.0782 23.2007 51.9245C23.7134 52.4187 24.1644 52.9747 24.6432 53.5029C21.8324 58.3739 19.0184 63.245 16.2076 68.1129C16.1737 68.1716 16.152 68.2488 16.1026 68.289C15.8462 68.4928 15.5528 68.8728 15.3335 68.8326C15.0586 68.7832 14.7281 68.4342 14.6169 68.1407C13.542 65.2496 12.5072 62.3399 11.4601 59.4395C11.3737 59.2017 11.2779 58.967 11.1636 58.6643C9.51419 58.9577 7.86786 59.2511 6.22153 59.5446C4.59064 59.838 2.96284 60.1562 1.32268 60.4094C0.985999 60.4619 0.454725 60.3693 0.300285 60.1469C0.148933 59.9307 0.269397 59.4025 0.439281 59.106C3.43851 53.8643 6.46245 48.638 9.48639 43.4086C9.57906 43.2511 9.69026 43.1059 9.79527 42.9546L9.79218 42.9577Z" fill="#B22322"/>
<path id="Vector_3" d="M33.4742 53.5028C33.953 52.9746 34.404 52.4155 34.9167 51.9244C36.0874 50.8032 37.4804 50.4202 39.0495 50.8742C42.9322 51.9924 46.9723 49.058 47.7785 45.8549C47.9051 45.3453 47.936 44.814 48.0318 44.2951C48.1152 43.8472 48.2264 43.4055 48.3283 42.9607C49.6194 45.1661 50.9167 47.3684 52.1986 49.58C54.0241 52.7306 55.8496 55.8812 57.6472 59.0503C57.8264 59.3653 57.9777 59.9924 57.8233 60.1375C57.5731 60.3754 57.0387 60.4557 56.6588 60.3908C53.4403 59.841 50.2279 59.2449 46.9538 58.6518C46.3391 60.3445 45.7368 62.0063 45.1345 63.668C44.6094 65.1198 44.1152 66.5808 43.5499 68.0171C43.4171 68.3538 43.0897 68.7646 42.7839 68.8294C42.5615 68.8758 42.1353 68.4681 41.9592 68.1684C39.1175 63.2881 36.2974 58.3955 33.4773 53.5059L33.4742 53.5028Z" fill="#B22322"/>
<path id="Vector_4" d="M29.0818 16.3044C29.9961 18.4759 30.861 20.4836 31.6795 22.5099C31.9143 23.0936 32.2077 23.3315 32.8749 23.3716C35.0741 23.4983 37.2672 23.7268 39.6177 23.9276C38.6695 24.7523 37.8293 25.4875 36.9861 26.2195C36.0965 26.9886 35.2162 27.767 34.3112 28.5176C33.9652 28.8048 33.8757 29.0736 33.9899 29.5276C34.5336 31.733 35.034 33.9508 35.5869 36.3292C34.8517 35.8875 34.2463 35.5292 33.6471 35.1647C32.288 34.34 30.9228 33.5245 29.5729 32.6813C29.2116 32.4558 28.9397 32.4589 28.5722 32.6875C26.8517 33.7593 25.1096 34.7971 23.3737 35.8473C23.1451 35.9863 22.9073 36.113 22.5459 36.3168C23 34.3616 23.3243 32.5207 23.8741 30.7539C24.2911 29.4133 24.1119 28.5392 22.9104 27.6898C21.505 26.6983 20.2695 25.4628 18.9567 24.3353C18.8393 24.2334 18.688 24.1685 18.5552 24.0851L18.6602 23.9214C20.322 23.7763 21.9868 23.6342 23.6486 23.489C24.0841 23.4519 24.5289 23.3346 24.9552 23.3871C25.9343 23.5014 26.2926 22.9577 26.6046 22.1485C27.2903 20.3662 28.0687 18.618 28.81 16.8573C28.8687 16.7153 28.949 16.5824 29.0911 16.3075L29.0818 16.3044Z" fill="#FED180"/>
</g>
</g>
</g>
</g>
<defs>
<clipPath id="clip0_252_387">
<rect width="57.6557" height="68.3306" fill="white" transform="translate(0.229248 0.508301)"/>
</clipPath>
</defs>
</svg>
