<svg width="61" height="66" viewBox="0 0 61 66" fill="none" xmlns="http://www.w3.org/2000/svg">
<g id="&#209;&#131;&#208;&#191;&#208;&#176;&#208;&#186;&#208;&#190;&#208;&#178;&#208;&#186;&#208;&#176; &#209;&#130;&#208;&#190;&#208;&#178;&#208;&#176;&#209;&#128;&#208;&#176;" clip-path="url(#clip0_252_620)">
<g id="b">
<g id="c">
<g id="Group">
<path id="Vector" d="M60.1899 16.5278C60.2037 16.782 60.2311 17.0396 60.2311 17.2938C60.2311 31.5596 60.2311 45.8253 60.2311 60.0945C60.2311 62.8357 58.8468 64.7696 56.432 65.3742C55.9923 65.4841 55.5182 65.5013 55.0614 65.5013C38.5079 65.5082 21.9578 65.5082 5.40431 65.5013C2.36773 65.5013 0.24487 63.4265 0.241435 60.4002C0.227695 45.9318 0.234565 31.46 0.238 16.9881C0.238 16.8369 0.265481 16.6824 0.279221 16.5312C1.70477 16.4763 3.13375 16.3801 4.55929 16.3732C10.1928 16.356 15.8263 16.3663 21.4563 16.3663C21.4563 21.2372 21.5284 26.1116 21.4116 30.9825C21.367 32.8889 23.5826 34.0362 25.0425 33.1569C26.5299 32.2603 28.11 31.5115 29.6317 30.6665C30.0611 30.4294 30.3977 30.4226 30.834 30.6665C32.4485 31.5596 34.0664 32.4458 35.7152 33.2668C37.182 33.995 39.0128 32.8408 39.0163 31.2195C39.0266 26.2696 39.0163 21.3197 39.0163 16.3732C39.7342 16.3732 40.4487 16.3698 41.1666 16.3732C47.5077 16.4282 53.8522 16.4831 60.1934 16.5381L60.1899 16.5278ZM18.1483 51.9363C20.6628 51.9363 23.1738 51.9363 25.6883 51.9363C26.6638 51.9363 27.1505 51.4496 27.1482 50.4764C27.1482 49.8077 26.8024 49.4734 26.1108 49.4734C21.0063 49.4734 15.9053 49.4734 10.8008 49.4734C9.12791 49.4734 9.16569 49.4734 9.1176 51.1119C9.09699 51.8195 9.34088 51.9603 9.99697 51.9535C12.7141 51.9191 15.4347 51.9397 18.1518 51.9397L18.1483 51.9363ZM50.589 49.5867C50.3794 49.889 50.2489 50.1466 50.0531 50.3459C48.7752 51.6409 47.4768 52.9118 46.2058 54.2137C45.8348 54.595 45.56 54.6191 45.1994 54.2137C44.7734 53.7397 44.2994 53.3034 43.8459 52.85C42.6025 51.6065 42.6162 51.6203 41.3796 52.8603C40.9846 53.2553 40.9468 53.5164 41.3658 53.9217C42.5647 55.0759 43.7257 56.2679 44.9074 57.4427C45.1375 57.6694 45.3745 57.8892 45.5566 58.061C47.8409 55.7767 50.0634 53.5576 52.2653 51.3558C51.8015 50.8645 51.2931 50.3321 50.5855 49.5833L50.589 49.5867ZM15.0705 57.4667C16.4789 57.4667 17.8873 57.4667 19.2957 57.4667C21.0063 57.4667 20.9754 57.4667 21.0132 55.7217C21.0269 55.0656 20.8723 54.8389 20.1716 54.8492C17.1007 54.8904 14.0297 54.8664 10.9554 54.8664C9.11073 54.8664 9.14165 54.8664 9.1176 56.7282C9.11073 57.3808 9.36149 57.4873 9.92484 57.477C11.6389 57.4495 13.3565 57.4667 15.0705 57.4667Z" fill="#FEBB42"/>
<path id="Vector_2" d="M60.19 16.5277C53.8489 16.4728 47.5043 16.4178 41.1632 16.3628C40.4453 16.356 39.7308 16.3628 39.0129 16.3628H21.4598C15.8263 16.3628 10.1928 16.3525 4.56279 16.3697C3.13724 16.3732 1.70826 16.4728 0.282715 16.5277C1.05217 15.2636 1.80101 13.9858 2.5945 12.7389C5.28758 8.50002 8.00471 4.27491 10.6875 0.0291877C11.8039 -1.73986 13.3187 -2.62267 15.4656 -2.6158C25.338 -2.57458 35.2137 -2.58145 45.0861 -2.6158C47.099 -2.62267 48.5932 -1.82917 49.6547 -0.163175C53.1 5.23672 56.5454 10.6401 59.9839 16.0434C60.0766 16.1877 60.1247 16.3629 60.19 16.5243V16.5277Z" fill="#FEC357"/>
<path id="Vector_3" d="M21.4597 16.3664H39.0128C39.0128 21.3163 39.0231 26.2662 39.0128 31.2126C39.0128 32.834 37.1785 33.9882 35.7117 33.2599C34.0629 32.439 32.445 31.5527 30.8305 30.6596C30.3943 30.4192 30.0577 30.4226 29.6283 30.6596C28.1065 31.5046 26.5264 32.2535 25.039 33.15C23.5826 34.0294 21.3635 32.8821 21.4082 30.9756C21.525 26.1047 21.4529 21.2338 21.4529 16.3595L21.4597 16.3664Z" fill="#B22322"/>
<path id="Vector_4" d="M18.1484 51.9363C15.4313 51.9363 12.7107 51.9157 9.99362 51.9501C9.34096 51.9569 9.09707 51.8161 9.11425 51.1085C9.1589 49.4734 9.12112 49.47 10.7974 49.47C15.9019 49.47 21.0029 49.47 26.1074 49.47C26.799 49.47 27.1448 49.8043 27.1448 50.473C27.1471 51.4463 26.6605 51.9329 25.6849 51.9329C23.1705 51.9329 20.6594 51.9329 18.145 51.9329L18.1484 51.9363Z" fill="#FED17F"/>
<path id="Vector_5" d="M50.5889 49.5833C51.2965 50.3321 51.8049 50.868 52.2686 51.3557C50.0668 53.5576 47.8443 55.7766 45.56 58.061C45.3779 57.8892 45.1409 57.6694 44.9108 57.4426C43.7325 56.2679 42.5715 55.0759 41.3692 53.9217C40.9501 53.5164 40.9879 53.2553 41.383 52.8603C42.6196 51.6202 42.6058 51.6065 43.8493 52.85C44.3028 53.3034 44.7734 53.7362 45.2027 54.2137C45.5634 54.6156 45.8382 54.5916 46.2092 54.2137C47.4767 52.9118 48.7786 51.6408 50.0565 50.3458C50.2523 50.15 50.3828 49.889 50.5923 49.5867L50.5889 49.5833Z" fill="#FED180"/>
<path id="Vector_6" d="M15.0705 57.4667C13.3565 57.4667 11.6389 57.4495 9.92485 57.477C9.3615 57.4873 9.10731 57.3808 9.11761 56.7282C9.14166 54.8664 9.1073 54.8664 10.9554 54.8664C14.0263 54.8664 17.1007 54.8904 20.1716 54.8492C20.8723 54.8389 21.0269 55.0656 21.0132 55.7217C20.9754 57.4667 21.0063 57.4667 19.2957 57.4667C17.8873 57.4667 16.4789 57.4667 15.0705 57.4667Z" fill="#FED17F"/>
</g>
</g>
</g>
</g>
<defs>
<clipPath id="clip0_252_620">
<rect width="60" height="68.1239" fill="white" transform="translate(0.234558 -2.61572)"/>
</clipPath>
</defs>
</svg>
