<svg width="60" height="62" viewBox="0 0 60 62" fill="none" xmlns="http://www.w3.org/2000/svg">
<g id="&#209;&#128;&#208;&#176;&#209;&#129;&#209;&#135;&#208;&#181;&#209;&#130; &#209;&#129;&#209;&#130;&#208;&#190;&#208;&#184;&#208;&#188;&#208;&#190;&#209;&#129;&#209;&#130;&#208;&#184;" clip-path="url(#clip0_252_10)">
<g id="b">
<g id="c">
<g id="Group">
<path id="Vector" d="M2.66604 61.8154C1.41374 61.335 0.477209 60.5334 0.288284 59.1489C0.180328 58.3608 0.269392 57.5457 0.269392 56.7441C0.32337 56.8278 0.39894 56.9034 0.428628 56.9951C0.860456 58.3554 2.20452 59.1894 3.65924 59.184C18.9594 59.1381 34.2569 59.1543 49.5571 59.1543C49.9593 59.1543 50.3641 59.1354 50.7662 59.1597C51.3492 59.1948 51.5516 58.9276 51.5381 58.3635C51.5138 57.3352 51.53 56.3069 51.53 55.2786C53.4193 55.2732 55.3085 55.2705 57.2005 55.2651C57.2059 56.5282 57.2356 57.794 57.2086 59.0571C57.187 60.1448 56.264 61.2648 55.1223 61.6778C55.0117 61.7183 54.9064 61.7668 54.7984 61.8127H2.66604V61.8154Z" fill="#B22322"/>
<path id="Vector_2" d="M57.1978 55.2707C55.3086 55.2761 53.4193 55.2788 51.5274 55.2842C34.4432 55.2842 17.3617 55.2842 0.277533 55.2842C0.272135 51.8377 0.264038 48.3911 0.264038 44.9446C0.264038 40.3294 0.272135 35.7143 0.274834 31.0964C2.18837 31.0964 4.10191 31.0964 6.01544 31.0964C21.1834 31.0964 36.354 31.0991 51.522 31.1018C51.7109 31.1396 51.8998 31.2071 52.0915 31.2098C53.7918 31.2179 55.4948 31.2098 57.1951 31.2098C57.2005 33.1854 57.2059 35.161 57.2113 37.1366C57.0413 37.1717 56.8713 37.2365 56.7012 37.2392C55.7404 37.2473 54.7823 37.2392 53.8215 37.2392C53.4922 37.2446 53.1602 37.25 52.831 37.25C50.9984 37.2527 49.1685 37.25 47.336 37.2581C44.4535 37.2743 41.7681 39.9408 41.7276 42.8206C41.7276 43.1768 41.7033 43.5358 41.733 43.8893C41.8544 45.3602 42.5049 46.5936 43.5656 47.5815C44.8637 48.7906 46.4453 49.2494 48.2104 49.2359C51.2116 49.2116 54.2128 49.2386 57.214 49.2467C57.2086 51.252 57.2005 53.26 57.1951 55.2653L57.1978 55.2707Z" fill="#FEBB42"/>
<circle id="Ellipse 4" cx="47.9103" cy="43.1904" r="3.06879" fill="#130C56"/>
<path id="Vector_3" d="M7.96124 21.0725C8.28781 17.8068 8.61978 14.5438 8.93825 11.2781C9.07859 9.8585 9.22434 8.43616 9.3107 7.01113C9.41866 5.23254 10.3336 4.43906 12.1095 4.61989C15.3509 4.95185 18.5923 5.25953 21.8337 5.5861C24.0549 5.81011 26.2734 6.04222 28.4919 6.28242C28.8266 6.31751 29.0425 6.24194 29.2422 5.94236C30.3542 4.26363 31.4851 2.59839 32.6186 0.933157C33.4229 -0.248971 34.551 -0.470283 35.7413 0.339394C41.8165 4.47145 47.8891 8.60889 53.959 12.7517C55.0871 13.5209 55.2707 14.7004 54.4934 15.8528C53.322 17.5855 52.1588 19.3263 50.9929 21.0644C50.1994 22.2277 49.4059 23.3882 48.6124 24.5487C47.406 24.5487 46.1969 24.546 44.9905 24.5433C46.1429 22.8457 47.2657 21.1292 48.4586 19.4586C48.993 18.711 49.0577 18.0551 48.6124 17.2401C48.1158 16.3278 47.8918 15.2995 48.0726 14.2658C48.1968 13.556 47.9593 13.0891 47.4276 12.714C46.7394 12.2255 46.0323 11.7612 45.3332 11.2862C42.888 9.62369 40.4536 7.94766 37.9895 6.31751C37.698 6.12589 37.1528 6.01793 36.8721 6.15827C35.6036 6.80062 34.2838 6.99764 32.8912 6.90318C32.3649 6.86809 31.9844 7.11909 31.6875 7.55901C30.365 9.52923 29.029 11.4886 27.6931 13.4508C25.9819 15.9608 24.26 18.4627 22.5543 20.9754C21.7554 22.1548 20.9862 23.3531 20.2036 24.5433C18.989 24.5433 17.7745 24.5433 16.5627 24.5433C16.8137 24.1547 17.0593 23.7633 17.3184 23.3801C20.2629 19.0591 23.2102 14.7408 26.1547 10.4199C26.2896 10.2202 26.3895 9.99614 26.5379 9.72625C24.6136 9.54002 22.8026 9.36729 20.9889 9.19186C19.6125 9.05692 18.236 8.94896 16.865 8.77353C16.2793 8.69796 15.7773 8.83021 15.4831 9.28902C14.7571 10.4199 13.7396 11.1405 12.5575 11.7235C12.2093 11.8935 11.845 12.3307 11.7748 12.6978C11.594 13.637 11.5832 14.6086 11.4941 15.5667C11.3673 16.9243 11.2269 18.2791 11.1001 19.6367C10.9462 21.2722 10.7978 22.9105 10.6467 24.546C9.63997 24.546 8.63597 24.5514 7.62927 24.5541L7.96124 21.0671V21.0725Z" fill="#A8E73A"/>
<path id="Vector_4" d="M7.62937 24.5596C8.63607 24.5596 9.64007 24.5542 10.6468 24.5515C12.6197 24.5515 14.5926 24.5515 16.5655 24.5515C17.78 24.5515 18.9945 24.5515 20.2064 24.5515C22.5787 24.5515 24.9511 24.5515 27.3234 24.5515C28.4516 24.5596 29.577 24.5731 30.7052 24.5704C33.9466 24.565 37.188 24.5569 40.4294 24.5488C41.9489 24.5488 43.4684 24.5488 44.9906 24.5488C46.197 24.5488 47.4061 24.5515 48.6125 24.5542C48.7394 24.5623 48.8662 24.5704 48.9931 24.5758C49.1172 24.6352 49.2387 24.6973 49.3655 24.7512C50.8985 25.4071 51.53 26.3652 51.53 28.0439C51.53 29.0641 51.5273 30.0843 51.5247 31.1045C36.3567 31.1045 21.1861 31.1018 6.01811 31.0991C4.10457 31.0991 2.19104 31.0991 0.277501 31.0991C0.269404 29.9116 0.23162 28.7241 0.264007 27.5365C0.301792 26.1925 1.18164 25.1669 2.63636 24.6703C3.13566 24.6352 3.63226 24.5785 4.13156 24.5731C5.2975 24.5569 6.46613 24.565 7.63207 24.5623L7.62937 24.5596Z" fill="#B22322"/>
<path id="Vector_5" d="M0.280449 55.2839C17.3646 55.2839 34.4461 55.2839 51.5303 55.2839C51.5303 56.3122 51.5141 57.3405 51.5384 58.3688C51.5519 58.9329 51.3495 59.2001 50.7665 59.165C50.3644 59.1407 49.9595 59.1596 49.5574 59.1596C34.2572 59.1596 18.9597 59.1407 3.6595 59.1893C2.20478 59.1947 0.860717 58.3607 0.42889 57.0005C0.399202 56.9087 0.323632 56.8331 0.269653 56.7494L0.280449 55.2893V55.2839Z" fill="#B22322"/>
<path id="Vector_6" d="M53.8243 37.242C54.7851 37.242 55.7432 37.2501 56.704 37.242C56.8741 37.242 57.0441 37.1745 57.2141 37.1394C57.735 37.1556 58.2559 37.1718 58.7768 37.188C59.8321 37.2231 60.2342 37.6279 60.2342 38.6697C60.2342 41.6898 60.2342 44.7099 60.2342 47.7327C60.2342 48.7961 59.8024 49.2171 58.7282 49.2252C58.2262 49.2279 57.7215 49.2414 57.2195 49.2495C54.2183 49.2441 51.2171 49.2171 48.2159 49.2387C46.4508 49.2522 44.8693 48.7907 43.5711 47.5842C42.5077 46.5964 41.86 45.363 41.7385 43.8921C41.7088 43.5386 41.7331 43.1796 41.7331 42.8233C41.7763 42.9313 41.833 43.0339 41.8627 43.1445C42.5185 45.4926 43.9867 47.174 46.3969 47.5222C48.6046 47.8433 50.8825 47.7219 53.128 47.7381C53.6246 47.7408 54.2129 47.6409 54.3857 47.004C54.4774 46.6585 54.5449 46.2942 54.5476 45.9379C54.5611 43.5817 54.5584 41.2229 54.553 38.8667C54.553 38.2217 54.3965 37.636 53.827 37.242H53.8243Z" fill="#FED180"/>
<path id="Vector_7" d="M51.5245 31.1045C51.5245 30.0843 51.5299 29.0641 51.5299 28.0439C51.5299 26.3625 50.9011 25.4044 49.3654 24.7512C49.2385 24.6973 49.1171 24.6352 48.9929 24.5758C50.6042 24.5731 52.2181 24.538 53.8294 24.5812C54.3962 24.5974 54.9575 24.7971 55.5216 24.9132C56.6552 25.5663 57.257 26.5109 57.2192 27.8523C57.1868 28.9724 57.203 30.0951 57.1949 31.2152C55.4946 31.2152 53.7916 31.2206 52.0913 31.2152C51.9024 31.2152 51.7134 31.145 51.5218 31.1072L51.5245 31.1045Z" fill="#B22322"/>
<path id="Vector_8" d="M55.5246 24.9131C54.9605 24.7971 54.3991 24.5973 53.8324 24.5811C52.2211 24.538 50.6072 24.573 48.9959 24.5757C48.8691 24.5676 48.7422 24.5595 48.6154 24.5541C49.4088 23.3909 50.2023 22.2304 50.9958 21.0671C51.7191 21.0671 52.4397 21.0671 53.163 21.0752C54.5908 21.0914 55.4949 21.9929 55.5138 23.4071C55.5192 23.9091 55.5219 24.4111 55.5273 24.9131H55.5246Z" fill="#FEBB42"/>
<path id="Vector_9" d="M7.62962 24.5596C6.46368 24.5596 5.29505 24.5542 4.12911 24.5704C3.62981 24.5785 3.13321 24.6351 2.63391 24.6675C2.63661 24.2249 2.63661 23.7796 2.64471 23.337C2.6636 21.9983 3.54075 21.0995 4.87672 21.0753C5.90501 21.0564 6.9333 21.0699 7.96159 21.0699C7.85093 22.2331 7.74027 23.3936 7.62962 24.5569V24.5596Z" fill="#FEBB42"/>
<path id="Vector_10" d="M53.8242 37.2417C54.3937 37.6384 54.5502 38.2214 54.5502 38.8665C54.5556 41.2226 54.5583 43.5815 54.5448 45.9376C54.5448 46.2939 54.4774 46.6582 54.3829 47.0037C54.2102 47.6406 53.6218 47.7432 53.1252 47.7378C50.8797 47.7216 48.6018 47.8431 46.3941 47.5219C43.9839 47.171 42.5157 45.4923 41.8599 43.1442C41.8302 43.0336 41.7735 42.931 41.7303 42.8231C41.7708 39.946 44.4563 37.2795 47.3387 37.2606C49.1713 37.2498 51.0011 37.2552 52.8337 37.2525C53.163 37.2525 53.495 37.2444 53.8242 37.2417ZM45.1202 43.2009C45.1202 44.7339 46.3374 45.9646 47.865 45.97C49.4196 45.9754 50.6773 44.7204 50.6638 43.1793C50.6476 41.676 49.3764 40.421 47.8758 40.4291C46.3563 40.4372 45.1256 41.6787 45.1229 43.2036L45.1202 43.2009Z" fill="#FED180"/>
<path id="Vector_11" d="M27.3262 24.5488C24.9538 24.5488 22.5815 24.5488 20.2091 24.5488C20.9918 23.3586 21.761 22.1603 22.5599 20.9808C24.2656 18.4681 25.9875 15.9662 27.6986 13.4562C29.0346 11.4968 30.3706 9.53471 31.693 7.5645C31.9899 7.12187 32.3678 6.87357 32.8967 6.90866C34.2894 7.00312 35.6092 6.8061 36.8777 6.16376C37.1583 6.02071 37.7035 6.12867 37.995 6.32299C40.4591 7.95314 42.8963 9.62917 45.3388 11.2917C46.0378 11.7667 46.7422 12.2309 47.4331 12.7194C47.9621 13.0946 48.1996 13.5615 48.0782 14.2713C47.8974 15.305 48.1214 16.3333 48.618 17.2455C49.0633 18.0606 48.9985 18.7164 48.4641 19.464C47.2712 21.132 46.1485 22.8512 44.996 24.5488C43.4765 24.5488 41.9543 24.5488 40.4348 24.5488C40.5725 22.3006 39.7007 20.5004 38.0004 19.0646C35.8683 17.2617 32.3057 17.17 30.0926 18.8352C28.1844 20.271 27.2668 22.1711 27.3289 24.5515L27.3262 24.5488Z" fill="#77DC00"/>
<path id="Vector_12" d="M16.5653 24.5515C14.5924 24.5515 12.6195 24.5515 10.6466 24.5515C10.7977 22.916 10.9462 21.2777 11.1 19.6422C11.2269 18.2846 11.3672 16.9298 11.4941 15.5722C11.5831 14.6141 11.5966 13.6425 11.7748 12.7033C11.8449 12.3335 12.212 11.899 12.5574 11.7289C13.7396 11.1487 14.7571 10.4281 15.4831 9.29452C15.7773 8.8384 16.2793 8.70345 16.8649 8.77902C18.236 8.95445 19.6124 9.06511 20.9889 9.19736C22.7999 9.37279 24.6135 9.54552 26.5379 9.73174C26.3921 10.0016 26.2923 10.2256 26.1546 10.4254C23.2128 14.7463 20.2629 19.0646 17.3183 23.3856C17.0592 23.7688 16.8136 24.1602 16.5626 24.5488L16.5653 24.5515Z" fill="#77DC00"/>
<path id="Vector_13" d="M27.3261 24.5488C27.264 22.1684 28.1843 20.2683 30.0898 18.8325C32.3029 17.1646 35.8655 17.259 37.9976 19.0619C39.6952 20.4977 40.5697 22.2952 40.432 24.5461C37.1906 24.5542 33.9492 24.565 30.7078 24.5677C29.5797 24.5677 28.4542 24.5542 27.3261 24.5488Z" fill="#A8E73A"/>
</g>
</g>
</g>
</g>
<defs>
<clipPath id="clip0_252_10">
<rect width="59.9998" height="61.9538" fill="white" transform="translate(0.234619 -0.138184)"/>
</clipPath>
</defs>
</svg>
