<svg width="61" height="69" viewBox="0 0 61 69" fill="none" xmlns="http://www.w3.org/2000/svg">
<g id="&#209;&#133;&#209;&#128;&#208;&#176;&#208;&#189;&#208;&#181;&#208;&#184;&#209;&#143; &#209;&#130;&#208;&#190;&#208;&#178;&#208;&#176;&#209;&#128;&#208;&#176;" clip-path="url(#clip0_252_443)">
<g id="b">
<g id="c">
<g id="Group">
<path id="Vector" d="M59.6268 60.2889C60.6662 60.2918 61.7085 60.2889 62.7478 60.3008C63.5399 60.3097 63.8675 60.6403 63.8794 61.4384C63.8884 62.1233 63.8913 62.8112 63.8794 63.4962C63.8645 64.2079 63.5251 64.5564 62.8163 64.5653C61.7531 64.5802 60.69 64.5742 59.6268 64.5772C57.441 64.5772 55.2581 64.5742 53.0722 64.5713H51.0501C36.8242 64.5742 22.6012 64.5742 8.37518 64.5772C6.18931 64.5772 4.00643 64.5742 1.82057 64.5713C1.14753 64.5713 0.471524 64.5713 -0.201508 64.5742C-1.13065 64.5742 -2.05979 64.5385 -2.98893 64.5772C-3.57858 64.604 -4.06399 64.476 -4.45709 64.0322V60.8279C-4.06399 60.3842 -3.57858 60.2561 -2.98893 60.2829C-2.06277 60.3246 -1.13065 60.2889 -0.201508 60.2859C0.471524 60.2859 1.14753 60.2859 1.82057 60.2889C2.57996 60.2889 3.34233 60.2859 4.10173 60.2829C5.47161 60.2829 6.84448 60.277 8.21437 60.274C9.15244 60.274 10.0905 60.274 11.0256 60.274C13.0924 60.2799 15.1621 60.2948 17.2288 60.2918C21.3861 60.2918 25.5464 60.2799 29.7037 60.271C30.6388 60.271 31.5769 60.271 32.512 60.271C38.739 60.271 44.969 60.271 51.1961 60.271C52.5689 60.274 53.9418 60.277 55.3147 60.2799C55.9877 60.2799 56.6607 60.2799 57.3367 60.2829C58.0991 60.2829 58.8585 60.2799 59.6209 60.277L59.6268 60.2889Z" fill="#130C56"/>
<path id="Vector_2" d="M4.1075 60.289C3.34811 60.289 2.58573 60.292 1.82634 60.2949C1.82634 41.0599 1.82634 21.8249 1.82634 2.58993C1.82634 1.87223 1.7102 1.12773 2.22539 0.508301H3.55955C4.00625 0.907355 4.10452 1.40468 4.10452 1.99433C4.08963 10.0409 4.09559 18.0875 4.09559 26.1341C4.09559 27.5666 4.09857 28.999 4.10154 30.4314C4.10154 37.2957 4.09559 44.163 4.09559 51.0274C4.09559 54.1156 4.10452 57.2038 4.11048 60.292L4.1075 60.289Z" fill="#9FACBA"/>
<path id="Vector_3" d="M59.6268 60.289C58.8645 60.289 58.1051 60.292 57.3427 60.2949C57.3427 41.0599 57.3427 21.8249 57.3427 2.58993C57.3427 1.87223 57.2266 1.12773 57.7418 0.508301H58.9419C59.5286 0.829926 59.6179 1.35406 59.6179 1.97348C59.606 21.146 59.609 40.3154 59.609 59.4879C59.609 59.7559 59.6209 60.021 59.6239 60.289H59.6268Z" fill="#9FACBA"/>
<path id="Vector_4" d="M2.22258 0.508301C1.70738 1.12773 1.82353 1.87223 1.82353 2.58993C1.82353 21.8249 1.82353 41.0599 1.82353 60.2949C1.15049 60.2949 0.474484 60.2949 -0.198547 60.292C-0.192591 60.0031 -0.183657 59.7142 -0.183657 59.4254C-0.183657 40.2321 -0.183657 21.0387 -0.192591 1.84543C-0.192591 1.29747 -0.094317 0.847795 0.352385 0.511279H2.2196L2.22258 0.508301Z" fill="#9FACBA"/>
<path id="Vector_5" d="M57.7419 0.508301C57.2267 1.12773 57.3428 1.87223 57.3428 2.58993C57.3428 21.8249 57.3428 41.0599 57.3428 60.2949C56.6698 60.2949 55.9967 60.2949 55.3207 60.292C55.3207 50.3394 55.3267 40.3839 55.3297 30.4314C55.3297 28.999 55.3356 27.5636 55.3356 26.1311C55.3356 18.0816 55.3416 10.032 55.3237 1.98242C55.3237 1.39277 55.4131 0.901399 55.8687 0.511279H57.7359L57.7419 0.508301Z" fill="#9FACBA"/>
<path id="Vector_6" d="M1.82355 64.5742C4.00942 64.5742 6.1923 64.5772 8.37817 64.5802C8.37221 65.6225 8.37221 66.6678 8.3603 67.7101C8.35136 68.4754 8.0208 68.8358 7.28226 68.8358C5.59372 68.8417 3.90817 68.8268 2.21963 68.8209C1.76995 68.2431 1.80271 67.5671 1.8176 66.8911C1.83547 66.1198 1.82355 65.3485 1.82355 64.5742Z" fill="#9FACBA"/>
<path id="Vector_7" d="M53.0723 64.5742C55.2582 64.5742 57.4411 64.5772 59.6269 64.5802C59.621 65.6225 59.621 66.6678 59.6091 67.7101C59.6001 68.4754 59.2696 68.8358 58.531 68.8358C56.8425 68.8417 55.1569 68.8268 53.4684 68.8209C53.0187 68.2431 53.0515 67.5671 53.0664 66.8911C53.0842 66.1198 53.0723 65.3485 53.0723 64.5742Z" fill="#9FACBA"/>
<path id="Vector_8" d="M1.82348 64.5742C1.82348 65.3455 1.83539 66.1198 1.81752 66.8911C1.80263 67.5701 1.76987 68.2431 2.21955 68.8209C1.75796 68.8268 1.29339 68.8447 0.831798 68.8358C0.155788 68.8238 -0.168815 68.4992 -0.177749 67.8173C-0.189662 66.7363 -0.189662 65.6582 -0.195618 64.5772C0.477414 64.5772 1.15342 64.5772 1.82646 64.5742H1.82348Z" fill="#9FACBA"/>
<path id="Vector_9" d="M53.0723 64.5742C53.0723 65.3455 53.0842 66.1198 53.0663 66.8911C53.0514 67.5701 53.0187 68.2431 53.4683 68.8209C53.0067 68.8268 52.5422 68.8447 52.0806 68.8358C51.4046 68.8238 51.08 68.4992 51.071 67.8173C51.0591 66.7363 51.0591 65.6582 51.0532 64.5772H53.0752L53.0723 64.5742Z" fill="#9FACBA"/>
<path id="Vector_10" d="M11.0285 4.78482C12.9404 4.77886 14.8523 4.76993 16.7642 4.76397C16.7642 6.38401 16.7582 8.00108 16.7612 9.62112C16.7612 10.446 16.9964 10.6158 17.7082 10.172C18.5837 9.62707 19.3908 9.4603 20.2276 10.184C20.2425 10.1989 20.2663 10.2048 20.2872 10.2167C20.9691 10.5413 21.1806 10.4222 21.1835 9.68365C21.1865 8.04277 21.1835 6.40188 21.1806 4.761C23.5481 4.76397 25.9126 4.78482 28.2772 4.75802C28.8787 4.75206 29.3582 4.87416 29.7245 5.3566C29.7215 12.2775 29.7185 19.1984 29.7126 26.1223C29.0455 26.1283 28.3784 26.1431 27.7113 26.1431C22.1514 26.1372 16.5914 26.1312 11.0315 26.1223C11.0315 19.0108 11.0315 11.8963 11.0285 4.78482ZM23.2413 22.9299C23.9293 22.9299 24.6172 22.9358 25.3081 22.9299C26.0585 22.9209 26.3653 22.638 26.3802 21.968C26.3921 21.3843 25.9752 20.9435 25.3319 20.9346C23.9561 20.9167 22.5772 20.9197 21.2014 20.9346C20.6475 20.9405 20.2514 21.3634 20.2395 21.9024C20.2246 22.5695 20.5194 22.909 21.1776 22.9269C21.8655 22.9477 22.5534 22.9299 23.2443 22.9328L23.2413 22.9299Z" fill="#FED180"/>
<path id="Vector_11" d="M32.5151 4.78754C34.427 4.77861 36.3388 4.76968 38.2507 4.76074C38.2507 6.33909 38.2448 7.92042 38.2448 9.49876C38.2448 10.4845 38.4384 10.6423 39.2662 10.1301C40.1001 9.61491 40.8446 9.5345 41.6338 10.142C41.6844 10.1807 41.7499 10.2075 41.8095 10.2343C42.4497 10.5321 42.6642 10.4071 42.6671 9.70127C42.6731 8.05443 42.6671 6.41056 42.6671 4.76372C45.0883 4.76372 47.5124 4.76372 49.9335 4.76968C50.8745 4.76968 51.1962 5.09428 51.1962 6.05618C51.1991 12.7448 51.2021 19.4334 51.2021 26.122C49.9841 26.128 48.7661 26.1399 47.5451 26.1399C42.5361 26.1369 37.5271 26.128 32.5181 26.122C32.5181 19.0105 32.5181 11.899 32.5151 4.78754ZM44.7398 22.9296C45.4277 22.9296 46.1127 22.9356 46.8006 22.9296C47.423 22.9237 47.8399 22.5544 47.8667 22.0005C47.8935 21.4466 47.5034 20.9522 46.9227 20.9403C45.4605 20.9105 43.9983 20.9135 42.5361 20.9403C42.0447 20.9492 41.5861 21.521 41.6159 21.9856C41.6516 22.5246 42.0596 22.9207 42.6105 22.9266C43.3193 22.9356 44.0281 22.9266 44.7369 22.9266L44.7398 22.9296Z" fill="#FED180"/>
<path id="Vector_12" d="M32.5179 26.1221C37.5269 26.128 42.536 26.137 47.545 26.1399C48.763 26.1399 49.981 26.128 51.202 26.1221C52.5808 26.1221 53.9596 26.125 55.3385 26.128L55.3325 30.4283C55.0436 30.4253 54.7548 30.4164 54.4659 30.4164C39.8766 30.4164 25.2903 30.4164 10.701 30.4164C8.50022 30.4164 6.29947 30.4223 4.09574 30.4283C4.09574 28.9959 4.09276 27.5634 4.08978 26.131C5.4686 26.128 6.84445 26.125 8.22327 26.1221C9.15837 26.1221 10.0964 26.1221 11.0315 26.1221C16.5915 26.128 22.1514 26.137 27.7114 26.1429C28.3785 26.1429 29.0456 26.128 29.7126 26.1221C30.6477 26.1221 31.5828 26.1221 32.5179 26.1221Z" fill="#130C56"/>
<path id="Vector_13" d="M11.0316 26.1223C10.0965 26.1223 9.15842 26.1223 8.22333 26.1223C8.22333 19.4635 8.22333 12.8047 8.22928 6.14581C8.22928 4.98736 8.45859 4.75806 9.63193 4.75806C10.0965 4.75806 10.564 4.77295 11.0286 4.78188C11.0286 11.8934 11.0286 19.0079 11.0316 26.1194V26.1223Z" fill="#FEBB42"/>
<path id="Vector_14" d="M32.5179 26.1222C31.5828 26.1222 30.6477 26.1222 29.7126 26.1222C29.7156 19.2013 29.7185 12.2774 29.7245 5.35652C30.0848 5.15699 30.4273 4.85026 30.8085 4.78772C31.3624 4.6954 31.9461 4.77878 32.5149 4.78772C32.5149 11.8992 32.5149 19.0107 32.5179 26.1222Z" fill="#FEBB42"/>
<path id="Vector_15" d="M42.664 4.76372C42.664 6.41056 42.6699 8.05443 42.664 9.70127C42.664 10.4071 42.4496 10.5321 41.8063 10.2343C41.7468 10.2075 41.6812 10.1807 41.6306 10.142C40.8444 9.5345 40.0969 9.61491 39.2631 10.1301C38.4352 10.6423 38.2416 10.4845 38.2416 9.49876C38.2416 7.92042 38.2446 6.33909 38.2476 4.76074C39.7187 4.76074 41.1899 4.76074 42.661 4.76074L42.664 4.76372Z" fill="#B22322"/>
<path id="Vector_16" d="M21.1776 4.76074C21.1776 6.40163 21.1865 8.04251 21.1806 9.6834C21.1806 10.4219 20.9662 10.5411 20.2842 10.2165C20.2634 10.2075 20.2425 10.1986 20.2246 10.1837C19.3878 9.45707 18.5808 9.62384 17.7052 10.1718C16.9905 10.6155 16.7582 10.4428 16.7582 9.62086C16.7582 8.00082 16.7582 6.38376 16.7612 4.76372C18.2324 4.76372 19.7035 4.76372 21.1746 4.76372L21.1776 4.76074Z" fill="#B22322"/>
<path id="Vector_17" d="M21.1719 38.8143C23.5305 38.8143 25.8861 38.8322 28.2447 38.8024C28.8463 38.7965 29.3317 38.9335 29.7248 39.3861C29.7218 46.3487 29.7158 53.3113 29.7129 60.2739C25.5556 60.2799 21.3953 60.2918 17.238 60.2948C15.1712 60.2948 13.1015 60.2829 11.0348 60.2769C11.0318 53.1297 11.0288 45.9854 11.0258 38.8382C12.9407 38.8322 14.8585 38.8233 16.7734 38.8173C16.7704 40.482 16.7585 42.1438 16.7674 43.8085C16.7704 44.5024 17.0414 44.6929 17.6162 44.3177C18.5632 43.7042 19.4119 43.5613 20.3708 44.3267C20.889 44.7406 21.1809 44.5351 21.1838 43.874C21.1898 42.1884 21.1779 40.5029 21.1749 38.8173L21.1719 38.8143ZM23.2952 57.0934C23.9385 57.0934 24.5788 57.1023 25.222 57.0934C25.9516 57.0815 26.3864 56.6705 26.3775 56.0154C26.3715 55.387 25.9516 54.9731 25.2607 54.9641C23.9534 54.9522 22.646 54.9492 21.3417 54.9641C20.6508 54.9731 20.2428 55.3781 20.2398 56.0064C20.2338 56.6765 20.6389 57.0755 21.3685 57.0904C22.0117 57.1053 22.652 57.0904 23.2952 57.0904V57.0934Z" fill="#FED180"/>
<path id="Vector_18" d="M42.658 38.8174C45.0553 38.8174 47.4526 38.8174 49.8499 38.8174C50.8803 38.8174 51.196 39.1331 51.196 40.1694C51.1989 46.8729 51.2019 53.5764 51.2049 60.2799C44.9779 60.2799 38.7479 60.2799 32.5208 60.2799C32.5208 53.1357 32.5149 45.9884 32.5119 38.8442C34.4268 38.8352 36.3416 38.8263 38.2595 38.8174C38.2565 40.4612 38.2476 42.1021 38.2476 43.746C38.2476 44.5798 38.4322 44.7258 39.135 44.3029C40.0284 43.7639 40.8295 43.5971 41.7586 44.2791C42.387 44.7407 42.6669 44.5322 42.6699 43.749C42.6729 42.1051 42.664 40.4642 42.661 38.8204L42.658 38.8174ZM44.6831 57.0935V57.0875C45.3948 57.0875 46.1095 57.1232 46.8153 57.0786C47.5241 57.0309 47.9023 56.5842 47.8636 55.9559C47.8278 55.3603 47.4109 54.9731 46.7468 54.9642C45.4365 54.9523 44.1232 54.9523 42.8099 54.9642C42.2113 54.9701 41.6217 55.4943 41.5978 55.9946C41.574 56.5128 42.1815 57.0756 42.8129 57.0905C43.4353 57.1054 44.0577 57.0935 44.6801 57.0935H44.6831Z" fill="#FED180"/>
<path id="Vector_19" d="M32.5119 38.8441C32.5119 45.9884 32.5179 53.1356 32.5209 60.2799C31.5858 60.2799 30.6477 60.2799 29.7126 60.2799C29.7156 53.3173 29.7215 46.3547 29.7245 39.3921C30.0967 38.8382 30.6417 38.7637 31.2492 38.8113C31.6691 38.8441 32.092 38.8352 32.5119 38.8471V38.8441Z" fill="#FEBB42"/>
<path id="Vector_20" d="M11.0256 38.8413C11.0286 45.9885 11.0316 53.1328 11.0346 60.28C10.0965 60.28 9.15842 60.28 8.22333 60.28C8.22333 53.6003 8.22928 46.9177 8.23226 40.238C8.23226 39.0974 8.50922 38.8115 9.63193 38.8145C10.0965 38.8145 10.564 38.8323 11.0286 38.8413H11.0256Z" fill="#FEBB42"/>
<path id="Vector_21" d="M23.2414 22.9299C22.5535 22.9299 21.8626 22.9448 21.1746 22.924C20.5165 22.9061 20.2217 22.5666 20.2366 21.8995C20.2485 21.3575 20.6445 20.9376 21.1985 20.9317C22.5743 20.9198 23.9531 20.9138 25.329 20.9317C25.9722 20.9406 26.3891 21.3814 26.3772 21.9651C26.3653 22.6381 26.0556 22.918 25.3051 22.927C24.6172 22.9359 23.9293 22.927 23.2384 22.927L23.2414 22.9299Z" fill="#FEBB42"/>
<path id="Vector_22" d="M44.7397 22.9298C44.0309 22.9298 43.3222 22.9358 42.6134 22.9298C42.0625 22.9209 41.6545 22.5248 41.6188 21.9888C41.589 21.5242 42.0446 20.9524 42.539 20.9435C44.0012 20.9197 45.4634 20.9137 46.9256 20.9435C47.5063 20.9554 47.8964 21.4498 47.8696 22.0037C47.8428 22.5546 47.4259 22.9239 46.8035 22.9328C46.1156 22.9388 45.4306 22.9328 44.7427 22.9328L44.7397 22.9298Z" fill="#FEBB42"/>
<path id="Vector_23" d="M42.658 38.8174C42.661 40.4613 42.6699 42.1052 42.6669 43.746C42.6669 44.5293 42.384 44.7347 41.7557 44.2761C40.8265 43.5971 40.0254 43.7639 39.132 44.3C38.4322 44.7228 38.2446 44.5769 38.2446 43.7431C38.2446 42.0992 38.2505 40.4583 38.2565 38.8145C39.7246 38.8145 41.1898 38.8145 42.658 38.8145V38.8174Z" fill="#B22322"/>
<path id="Vector_24" d="M21.1717 38.8145C21.1746 40.5 21.1865 42.1856 21.1806 43.8711C21.1806 44.5322 20.8858 44.7377 20.3676 44.3238C19.4087 43.5614 18.557 43.7014 17.6129 44.3148C17.0382 44.6871 16.7672 44.4995 16.7642 43.8056C16.7553 42.1409 16.7672 40.4792 16.7701 38.8145C18.2383 38.8145 19.7035 38.8145 21.1717 38.8145Z" fill="#B22322"/>
<path id="Vector_25" d="M23.2952 57.0965C22.6519 57.0965 22.0117 57.1084 21.3684 57.0965C20.6388 57.0816 20.2338 56.6825 20.2397 56.0125C20.2457 55.3841 20.6537 54.9761 21.3416 54.9702C22.649 54.9553 23.9563 54.9553 25.2607 54.9702C25.9486 54.9761 26.3685 55.393 26.3774 56.0214C26.3834 56.6766 25.9516 57.0875 25.222 57.0994C24.5787 57.1113 23.9384 57.0994 23.2952 57.0994V57.0965Z" fill="#FEBB42"/>
<path id="Vector_26" d="M44.683 57.0966C44.0606 57.0966 43.4382 57.1086 42.8157 57.0937C42.1844 57.0788 41.5769 56.5159 41.6007 55.9978C41.6245 55.4974 42.2142 54.9733 42.8128 54.9674C44.1231 54.9525 45.4364 54.9554 46.7497 54.9674C47.4138 54.9733 47.8277 55.3605 47.8665 55.959C47.9052 56.5874 47.5299 57.0371 46.8182 57.0817C46.1094 57.1294 45.3947 57.0907 44.6859 57.0907V57.0966H44.683Z" fill="#FEBB42"/>
</g>
</g>
</g>
</g>
<defs>
<clipPath id="clip0_252_443">
<rect width="68.3365" height="68.3306" fill="white" transform="translate(-4.45099 0.508301)"/>
</clipPath>
</defs>
</svg>
