<svg width="61" height="61" viewBox="0 0 61 61" fill="none" xmlns="http://www.w3.org/2000/svg">
<g id="&#208;&#177;&#209;&#128;&#208;&#181;&#208;&#189;&#208;&#180;&#208;&#184;&#209;&#128;&#208;&#190;&#208;&#178;&#208;&#176;&#208;&#189;&#208;&#184;&#208;&#181;" clip-path="url(#clip0_252_328)">
<g id="b">
<g id="c">
<g id="Group">
<path id="Vector" d="M52.7804 27.7009C53.0053 27.7375 53.2301 27.8029 53.4576 27.8029C55.1308 27.8107 56.8041 27.8421 58.4748 27.7924C59.2513 27.7689 59.8369 27.9781 60.2395 28.6474V29.4683C58.7859 31.2932 57.3584 33.1391 55.8603 34.9274C55.4367 35.4346 55.4995 35.7248 55.876 36.1875C57.3505 37.9941 58.7885 39.8321 60.2395 41.657V42.3603C59.9232 43.0532 59.4055 43.3355 58.6238 43.3198C56.6812 43.2806 54.7387 43.312 52.7961 43.3172C50.7934 43.3146 48.7933 43.312 46.7906 43.3094C42.3042 43.3094 37.8177 43.3094 33.3339 43.3094C30.0763 43.3094 26.8212 43.2989 23.5636 43.2937C23.5244 42.7159 23.4904 42.1355 23.4407 41.5577C23.3806 40.8492 23.3048 40.1406 23.2342 39.4321L23.2106 39.2099C23.2028 37.5654 23.1949 35.9182 23.1871 34.2737C23.1871 33.8528 23.1871 33.4319 23.1871 33.0109C23.2786 31.2802 23.3701 29.5494 23.4616 27.8186C31.2345 27.816 39.0099 27.8133 46.7828 27.8107C48.6156 27.8133 50.4509 27.8212 52.2837 27.816C52.451 27.816 52.6157 27.7454 52.783 27.7062L52.7804 27.7009ZM40.78 36.6686C40.576 36.3915 40.4479 36.2268 40.3303 36.0568C39.2086 34.4384 38.087 32.8175 36.9733 31.1939C36.7066 30.8069 36.351 30.6527 35.9144 30.7886C35.4935 30.9194 35.3183 31.2645 35.3026 31.6906C35.3026 31.7481 35.3026 31.8083 35.3026 31.8658C35.3026 34.3234 35.3026 36.7836 35.3026 39.2413C35.3026 39.3589 35.3 39.4766 35.3183 39.5916C35.4046 40.0831 35.7941 40.4152 36.2621 40.3602C36.7536 40.3027 37.0386 40.0151 37.0517 39.5079C37.0674 38.9432 37.0595 38.3759 37.0595 37.8111C37.0595 36.747 37.0595 35.6829 37.0595 34.4646C37.2609 34.7339 37.3785 34.8751 37.4831 35.0267C38.5472 36.5666 39.5982 38.1144 40.6858 39.6387C40.8741 39.9001 41.1878 40.1589 41.4911 40.2348C42.1499 40.3969 42.6232 39.874 42.6179 39.0347C42.6101 37.5523 42.5735 36.0699 42.5552 34.5875C42.5447 33.6306 42.5473 32.6763 42.5369 31.7194C42.5317 31.2174 42.333 30.8409 41.7996 30.7494C41.2009 30.6474 40.7878 31.037 40.7826 31.7168C40.7747 33.3168 40.7826 34.9143 40.7826 36.666L40.78 36.6686ZM47.2063 30.9743V30.969C46.7776 30.969 46.3462 30.9586 45.9174 30.9716C45.3187 30.9926 44.9997 31.2854 44.9971 31.871C44.9893 34.3888 44.9919 36.9091 45.005 39.4269C45.0076 40.0334 45.3501 40.355 45.9619 40.3655C46.6651 40.3786 47.3684 40.3733 48.0691 40.3602C49.0914 40.3393 49.9646 39.9681 50.6836 39.2308C52.3386 37.534 52.4745 34.1221 50.9503 32.3076C50.2339 31.4553 49.3267 30.9847 48.1999 30.9743C47.8678 30.9716 47.5358 30.9743 47.2037 30.9743H47.2063ZM29.2266 38.4543C30.4318 38.2138 31.3338 38.4255 31.6162 39.8478C31.7129 40.3341 32.2829 40.4857 32.7221 40.3001C33.1614 40.1145 33.3836 39.6726 33.2058 39.1942C32.2411 36.6032 31.2632 34.0175 30.2828 31.4318C30.105 30.9664 29.7599 30.7207 29.2449 30.739C28.7533 30.7546 28.4501 31.0187 28.2775 31.4553C28.1128 31.871 27.9559 32.292 27.799 32.7103C26.9964 34.8228 26.1911 36.9327 25.3963 39.0452C25.1715 39.6465 25.3624 40.1302 25.8513 40.3158C26.3062 40.4857 26.8735 40.2949 26.9703 39.7746C27.2056 38.4804 28.0239 38.287 29.1141 38.4543C29.1534 38.4595 29.1926 38.4543 29.2318 38.4543H29.2266Z" fill="#B22322"/>
<path id="Vector_2" d="M52.7908 43.3147C52.6548 44.7658 52.4692 46.2168 52.396 47.6705C52.2731 50.1411 51.175 51.885 48.8299 52.7844C48.1762 53.0354 47.5409 53.3439 46.8742 53.553C44.6624 54.2406 43.0832 55.7178 41.7525 57.5323C41.4413 57.9558 41.0831 58.3428 40.7406 58.7402C39.9302 59.6735 38.9262 60.3036 37.7366 60.6409H35.9797C33.2109 59.9036 30.4736 58.8631 27.5401 59.8121C27.4512 59.5559 27.3597 59.3023 27.2761 59.0435C26.659 57.1218 26.0446 55.1975 25.4276 53.2733C27.9088 53.9138 30.4344 54.0838 32.9547 53.689C37.8464 52.9229 41.8518 50.5725 44.8402 46.609C45.6036 45.5946 46.1448 44.4128 46.7879 43.3069L52.7934 43.3147H52.7908Z" fill="#9FACBA"/>
<path id="Vector_3" d="M25.4276 53.2731C26.0446 55.1974 26.659 57.119 27.2761 59.0433C27.3597 59.3021 27.4512 59.5557 27.5401 59.8119C26.4865 60.0891 25.4328 60.3636 24.3792 60.6407H22.5046C21.0327 60.0655 19.9006 59.0616 18.9489 57.8275C18.6038 57.3805 18.2247 56.9595 17.8822 56.5098C16.8704 55.1843 15.5579 54.2849 13.9997 53.715C13.2154 53.4274 12.4467 53.0901 11.665 52.7921C9.31979 51.8953 8.20864 50.1645 8.07791 47.6912C8.00209 46.2349 7.80078 44.7865 7.65698 43.3355C9.67275 43.3276 11.6911 43.3172 13.7069 43.3093C13.7775 43.508 13.8272 43.7198 13.9239 43.9054C15.3043 46.5931 17.2364 48.7997 19.6967 50.5514C21.4484 51.7985 23.3883 52.6352 25.425 53.2757L25.4276 53.2731Z" fill="#9FACBA"/>
<path id="Vector_4" d="M13.7072 43.3068C11.6914 43.3147 9.67566 43.3251 7.65728 43.333C5.70688 43.3251 3.75648 43.3042 1.80607 43.3173C1.19167 43.3199 0.676616 43.1918 0.383794 42.6088C0.075285 41.997 0.307974 41.495 0.70799 41.0035C2.16949 39.2047 3.61006 37.3903 5.08725 35.5471C3.97348 34.1588 2.88062 32.7914 1.78516 31.424C1.36945 30.9064 0.953751 30.3887 0.543277 29.8684C0.211238 29.4475 0.130189 28.9873 0.373336 28.501C0.613868 28.0226 1.00866 27.7873 1.55247 27.7873C3.38522 27.7899 5.22059 27.7873 7.05334 27.782C7.2625 27.782 7.47166 27.7298 7.68081 27.7036C7.82984 27.7376 7.97887 27.7977 8.12528 27.7977C9.9894 27.7977 11.8509 27.7925 13.715 27.7873C16.9622 27.7951 20.2068 27.803 23.454 27.8082C23.3625 29.539 23.271 31.2698 23.1795 33.0006C22.4866 31.3064 21.6265 30.7312 19.7885 30.7286C19.2421 30.7286 18.6956 30.7181 18.1518 30.7312C17.5165 30.7469 17.2158 31.0371 17.2132 31.6672C17.2054 34.2607 17.208 36.8543 17.2158 39.4453C17.2158 39.6283 17.2603 39.9002 17.3805 39.976C17.6551 40.1459 18.0002 40.3368 18.2956 40.308C18.7558 40.2636 18.9518 39.8531 18.9623 39.406C18.978 38.6583 18.9675 37.9079 18.9675 37.019C19.2002 37.2648 19.3309 37.3981 19.4538 37.5367C20.1624 38.3419 20.8395 39.176 21.5925 39.9342C21.8252 40.1695 22.3193 40.3656 22.5938 40.2767C22.8683 40.1878 23.02 39.7198 23.2265 39.4165C23.2945 40.125 23.3703 40.8309 23.4331 41.5421C23.4827 42.1199 23.5141 42.7003 23.556 43.2781C20.2722 43.2833 16.991 43.2885 13.7072 43.2964V43.3068ZM8.4547 35.5078C8.4547 36.7576 8.44947 38.0073 8.4547 39.2544C8.45732 40.0492 8.76844 40.3629 9.54233 40.3682C10.3816 40.3734 11.2208 40.3891 12.0601 40.3603C13.349 40.3159 14.3059 39.7093 14.7974 38.5093C15.2733 37.3432 15.0772 36.2399 14.2118 35.3118C13.953 35.0346 13.9373 34.8464 14.0863 34.5117C14.8785 32.713 13.6392 30.7861 11.6784 30.739C10.9751 30.7233 10.2744 30.7312 9.57108 30.7364C8.75014 30.7416 8.45993 31.0397 8.45732 31.8789C8.45209 33.0894 8.45732 34.3 8.45732 35.5105L8.4547 35.5078Z" fill="#B22322"/>
<path id="Vector_5" d="M13.7174 27.7898C11.8533 27.795 9.9918 27.8028 8.12767 27.8002C7.97865 27.8002 7.82962 27.7375 7.68321 27.7061C7.81917 26.2891 8.00741 24.8772 8.07538 23.4576C8.19304 20.9869 9.26759 19.2273 11.6232 18.3253C12.1514 18.124 12.656 17.8573 13.1945 17.6926C15.4953 16.9972 17.2627 15.6063 18.6379 13.6637C18.9856 13.1722 19.4144 12.7356 19.8118 12.2807C21.2498 10.6257 23.0459 10.1289 25.148 10.6492C25.8669 10.827 26.5833 11.0153 27.2997 11.1983C27.2448 11.4597 27.2134 11.729 27.1297 11.9826C26.4918 13.9487 25.8434 15.9096 25.1976 17.873C25.0538 17.9306 24.9126 17.9959 24.7662 18.043C20.8471 19.3005 17.6653 21.5882 15.294 24.9504C14.6743 25.8315 14.2351 26.8407 13.7122 27.7898H13.7174Z" fill="#9FACBA"/>
<path id="Vector_6" d="M44.4272 9.68202C44.4717 9.53823 44.4822 9.36829 44.5632 9.25063C47.2666 5.41519 50.6523 2.43206 55.1937 0.975798C55.9989 0.716964 56.9245 0.654217 57.7716 0.740495C59.5311 0.918279 60.0566 2.48697 59.8135 3.88572C59.471 5.84135 58.4801 7.48324 57.3088 9.03363C55.3819 11.588 53.0132 13.6377 50.2079 15.1751C50.0118 15.2822 49.7739 15.3162 49.5542 15.3816C47.8444 13.4809 46.1345 11.5801 44.4246 9.67941L44.4272 9.68202Z" fill="#130C56"/>
<path id="Vector_7" d="M44.4271 9.68206C46.1369 11.5828 47.8468 13.4835 49.5567 15.3842C49.073 15.7816 48.5919 16.1817 48.103 16.5738C47.6978 16.8954 47.2821 17.2065 46.869 17.5203C45.7239 18.3151 44.5787 19.1073 43.4388 19.9047C43.3656 19.957 43.2845 20.038 43.2636 20.1217C43.0858 20.7884 42.9211 21.4577 42.7512 22.1244C42.0322 22.7388 41.389 23.4839 40.5812 23.9441C37.6686 25.6121 33.8541 24.6657 31.4017 22.412C30.4919 21.5753 30.6095 20.9975 31.6815 20.3936C32.8292 19.7452 33.7051 18.7883 34.4084 17.6771C34.7796 17.4052 35.1613 17.1412 35.5221 16.8562C36.3719 16.1869 37.266 15.6326 38.3798 15.5176C38.6831 15.4862 39.0805 15.481 39.2582 15.2927C39.9589 14.5502 40.589 13.7397 41.2452 12.9528C41.64 12.5737 42.0531 12.2129 42.4218 11.8076C43.0205 11.1514 43.5878 10.4638 44.1761 9.79448C44.231 9.73173 44.3434 9.71866 44.4271 9.67944V9.68206Z" fill="#FEDB91"/>
<path id="Vector_8" d="M52.7804 27.7008C52.613 27.74 52.4483 27.8106 52.281 27.8106C50.4483 27.8158 48.6129 27.8106 46.7775 27.8054C46.7069 27.6066 46.6677 27.3923 46.5658 27.2145C46.0507 26.336 45.5173 25.468 44.9918 24.5948C45.3657 24.03 45.886 23.515 46.0795 22.8927C46.3958 21.8731 47.0939 21.2927 47.9148 20.7645C48.0612 20.6704 48.2103 20.5763 48.3462 20.4691C48.9528 19.9933 49.5541 19.5148 50.1581 19.0364C51.4574 19.7946 52.0771 20.9972 52.2575 22.4274C52.4274 23.7738 52.4928 25.136 52.6157 26.4877C52.6523 26.8929 52.7229 27.2955 52.7804 27.7008Z" fill="#9FACBA"/>
<path id="Vector_9" d="M25.2027 17.8731C25.8484 15.9096 26.4968 13.9487 27.1348 11.9826C27.2158 11.729 27.2498 11.4598 27.3047 11.1983C29.527 11.946 31.7049 11.6349 33.9089 11.0257C35.0227 10.7172 36.1992 10.6048 37.3548 10.5055C37.7809 10.4689 38.2359 10.7277 38.6751 10.8506C38.6123 10.9656 38.5574 11.0885 38.4816 11.1957C38.0058 11.8728 37.2946 12.1055 36.5364 12.3408C34.9782 12.8219 33.7782 13.8938 32.6173 14.9815C31.8696 15.6821 31.1794 16.4456 30.4656 17.1829C28.6825 17.1855 26.9335 17.4469 25.2053 17.8757L25.2027 17.8731Z" fill="#9FACBA"/>
<path id="Vector_10" d="M30.4631 17.1777C31.1795 16.4431 31.8671 15.677 32.6148 14.9763C33.7757 13.8887 34.9783 12.8168 36.5339 12.3357C37.2947 12.1004 38.0033 11.8677 38.4791 11.1906C38.5549 11.0834 38.6072 10.9605 38.6726 10.8455C39.7968 11.2193 40.5132 12.0978 41.2452 12.9527C40.589 13.7371 39.9589 14.5476 39.2582 15.2927C39.083 15.4783 38.683 15.4862 38.3798 15.5175C37.2686 15.6326 36.3718 16.1868 35.5221 16.8562C35.1613 17.1411 34.7796 17.4052 34.4084 17.6771C33.0933 17.5098 31.7782 17.3451 30.4631 17.1777Z" fill="#9FACBA"/>
<path id="Vector_11" d="M50.1581 19.0365C49.5542 19.5149 48.9529 19.9934 48.3463 20.4692C48.2104 20.5764 48.0613 20.6705 47.9149 20.7647C47.094 21.2928 46.3959 21.8758 46.0796 22.8929C45.8861 23.5125 45.3658 24.0302 44.9919 24.5949C44.2442 23.7713 43.4991 22.9504 42.7513 22.1268C42.9213 21.4575 43.086 20.7908 43.2638 20.1241C43.2847 20.0405 43.3657 19.9594 43.4389 19.9071C44.5815 19.1097 45.7266 18.3175 46.8691 17.5227C47.9646 18.0273 49.0627 18.5319 50.1581 19.0391V19.0365Z" fill="#9FACBA"/>
<path id="Vector_12" d="M40.7799 36.6688C40.7799 34.9171 40.7747 33.317 40.7799 31.7195C40.7826 31.0398 41.1956 30.6502 41.797 30.7522C42.3303 30.8437 42.529 31.2228 42.5343 31.7222C42.5447 32.6791 42.5395 33.6333 42.5526 34.5902C42.5709 36.0727 42.6075 37.5551 42.6153 39.0375C42.6205 39.8767 42.1473 40.3996 41.4885 40.2375C41.1852 40.1643 40.8715 39.9055 40.6832 39.6414C39.5956 38.1172 38.5446 36.5694 37.4805 35.0295C37.3759 34.8778 37.2609 34.734 37.0569 34.4674C37.0569 35.6857 37.0569 36.7498 37.0569 37.8139C37.0569 38.3786 37.0648 38.946 37.0491 39.5107C37.036 40.0153 36.751 40.3055 36.2595 40.363C35.7915 40.4153 35.402 40.0859 35.3157 39.5944C35.2948 39.4793 35.3 39.3617 35.3 39.244C35.3 36.7864 35.3 34.3262 35.3 31.8686C35.3 31.811 35.3 31.7509 35.3 31.6934C35.3183 31.2646 35.4908 30.9221 35.9118 30.7914C36.3484 30.6554 36.7066 30.8097 36.9706 31.1966C38.0844 32.8202 39.206 34.4386 40.3276 36.0596C40.4453 36.2295 40.5734 36.3942 40.7773 36.6714L40.7799 36.6688Z" fill="white"/>
<path id="Vector_13" d="M23.2288 39.427C23.0223 39.7303 22.8706 40.1983 22.5961 40.2872C22.319 40.3761 21.8275 40.18 21.5948 39.9447C20.8418 39.1865 20.1647 38.3499 19.4561 37.5472C19.3333 37.406 19.1999 37.2753 18.9698 37.0295C18.9698 37.9185 18.9803 38.6662 18.9646 39.4166C18.9542 39.8636 18.7581 40.2741 18.2979 40.3186C18.0025 40.3473 17.6574 40.1565 17.3828 39.9865C17.2626 39.9107 17.2207 39.6388 17.2181 39.4558C17.2077 36.8622 17.2051 34.2687 17.2155 31.6777C17.2155 31.0476 17.5188 30.7574 18.1541 30.7417C18.7005 30.7286 19.247 30.7365 19.7908 30.7391C21.6314 30.7417 22.4915 31.3169 23.1818 33.0111C23.1818 33.432 23.1818 33.8529 23.1818 34.2739C22.8288 35.4007 22.0785 36.1511 20.9255 36.5302C21.7229 37.4688 22.4628 38.3394 23.2053 39.2126L23.2288 39.4349V39.427ZM19.0221 32.5039V34.8778C19.5738 34.8308 20.0836 34.8412 20.5647 34.734C21.1634 34.6007 21.5059 34.0673 21.4431 33.5314C21.3804 32.998 20.9255 32.5536 20.3372 32.5091C19.9163 32.4777 19.4875 32.5039 19.0221 32.5039Z" fill="white"/>
<path id="Vector_14" d="M47.2063 30.9715C47.5383 30.9715 47.8704 30.9689 48.2024 30.9715C49.3292 30.982 50.2365 31.4526 50.9528 32.3049C52.4771 34.1194 52.3411 37.5313 50.6862 39.2281C49.9672 39.9653 49.0939 40.3366 48.0717 40.3575C47.3684 40.3732 46.6651 40.3758 45.9644 40.3627C45.35 40.3523 45.0101 40.0281 45.0075 39.4241C44.9944 36.9064 44.9918 34.386 44.9997 31.8683C44.9997 31.2826 45.3186 30.9872 45.92 30.9689C46.3487 30.9532 46.7801 30.9663 47.2089 30.9663V30.9715H47.2063ZM46.7827 38.5823C47.9959 38.645 49.1828 38.7601 49.8077 37.4973C50.4639 36.1691 50.4561 34.8096 49.6613 33.5442C48.9763 32.4539 47.8416 32.7468 46.7827 32.7415V38.5823Z" fill="white"/>
<path id="Vector_15" d="M29.2265 38.4543C29.1873 38.4543 29.148 38.4596 29.1088 38.4543C28.0212 38.2844 27.2029 38.4779 26.9649 39.7746C26.8708 40.2975 26.3009 40.4884 25.846 40.3158C25.357 40.1328 25.1662 39.6465 25.391 39.0452C26.1832 36.9301 26.9911 34.8202 27.7937 32.7103C27.9532 32.292 28.1075 31.8711 28.2722 31.4554C28.4447 31.0187 28.748 30.7547 29.2395 30.739C29.7546 30.7233 30.1023 30.9665 30.2775 31.4318C31.2579 34.0176 32.2384 36.6033 33.2005 39.1942C33.3783 39.6727 33.156 40.1145 32.7168 40.3002C32.2802 40.4858 31.7076 40.3341 31.6109 39.8479C31.3285 38.4256 30.4265 38.2164 29.2212 38.4543H29.2265ZM29.2814 33.7561L28.1807 36.6634H30.3821C30.0213 35.7144 29.684 34.8202 29.2814 33.7561Z" fill="white"/>
<path id="Vector_16" d="M23.2082 39.2046C22.4683 38.334 21.7257 37.4608 20.9283 36.5222C22.0813 36.1431 22.8317 35.3927 23.1846 34.2659C23.1925 35.9104 23.2003 37.5575 23.2082 39.202V39.2046Z" fill="#B22322"/>
<path id="Vector_17" d="M8.45706 35.5053C8.45706 34.2948 8.45444 33.0843 8.45706 31.8738C8.45967 31.0345 8.74988 30.7391 9.57083 30.7313C10.2741 30.726 10.9774 30.7182 11.6781 30.7339C13.639 30.7809 14.8782 32.7078 14.086 34.5066C13.937 34.8412 13.9553 35.0321 14.2115 35.3066C15.0795 36.2347 15.2756 37.3381 14.7972 38.5041C14.3057 39.7042 13.3488 40.3107 12.0598 40.3552C11.2206 40.3839 10.3813 40.3682 9.54207 40.363C8.76556 40.3578 8.45706 40.044 8.45444 39.2492C8.44921 37.9995 8.45444 36.7498 8.45444 35.5027L8.45706 35.5053ZM10.2427 38.6009C10.9094 38.6009 11.5134 38.6244 12.1147 38.593C12.7579 38.559 13.218 38.0832 13.2599 37.4766C13.3043 36.8282 12.9383 36.2269 12.3474 36.172C11.6598 36.1066 10.9591 36.1563 10.2401 36.1563V38.6009H10.2427ZM10.2584 32.4987V34.3968C10.8388 34.3628 11.3827 34.3785 11.9082 34.2843C12.3971 34.1954 12.5958 33.8033 12.5513 33.3196C12.5069 32.8281 12.2141 32.5353 11.7225 32.5039C11.2441 32.4751 10.763 32.4987 10.2584 32.4987Z" fill="white"/>
<path id="Vector_18" d="M19.025 32.5036C19.493 32.5036 19.9192 32.4775 20.3401 32.5088C20.9284 32.5533 21.3833 32.9978 21.446 33.5311C21.5088 34.0671 21.1637 34.6004 20.5676 34.7338C20.0865 34.841 19.5767 34.8305 19.025 34.8776V32.5036Z" fill="#B22322"/>
<path id="Vector_19" d="M46.7852 38.5823V32.7416C47.844 32.7468 48.9787 32.4566 49.6637 33.5442C50.4585 34.807 50.4664 36.1692 49.8101 37.4973C49.1853 38.7601 47.9983 38.6451 46.7852 38.5823Z" fill="#B22322"/>
<path id="Vector_20" d="M29.2815 33.7561C29.6842 34.8202 30.024 35.7117 30.3822 36.6634H28.1808L29.2815 33.7561Z" fill="#B22322"/>
<path id="Vector_21" d="M10.2429 38.6006V36.156C10.9619 36.156 11.6626 36.1063 12.3502 36.1717C12.9411 36.2292 13.3071 36.8279 13.2627 37.4763C13.2208 38.0829 12.7581 38.5587 12.1175 38.5927C11.5162 38.6241 10.9122 38.6006 10.2456 38.6006H10.2429Z" fill="#B22322"/>
<path id="Vector_22" d="M10.2559 32.5013C10.7631 32.5013 11.2442 32.4777 11.72 32.5065C12.209 32.5379 12.5044 32.8307 12.5488 33.3222C12.5933 33.8033 12.3946 34.1981 11.9057 34.2869C11.3802 34.3811 10.8364 34.3654 10.2559 34.3994V32.5013Z" fill="#B22322"/>
</g>
</g>
</g>
</g>
<defs>
<clipPath id="clip0_252_328">
<rect width="59.9998" height="59.9344" fill="white" transform="translate(0.234558 0.706299)"/>
</clipPath>
</defs>
</svg>
