<svg width="61" height="61" viewBox="0 0 61 61" fill="none" xmlns="http://www.w3.org/2000/svg">
<g id="&#208;&#191;&#208;&#190;&#208;&#184;&#209;&#129;&#208;&#186; &#209;&#130;&#208;&#190;&#208;&#178;&#208;&#176;&#209;&#128;&#208;&#176;" clip-path="url(#clip0_252_515)">
<g id="b">
<g id="c">
<g id="Group">
<path id="Vector" d="M37.9987 33.9829C38.0692 33.7738 38.098 33.5334 38.2182 33.3609C40.2155 30.4938 41.465 27.3392 41.831 23.8579C42.5081 17.4311 40.7121 11.7989 36.2759 7.06827C32.9481 3.51903 28.8491 1.41248 24.0234 0.72772C23.7045 0.683289 23.396 0.583973 23.0797 0.508179H19.331C19.2657 0.542155 19.2029 0.604881 19.1349 0.610108C16.7874 0.806127 14.5523 1.42816 12.4166 2.40303C10.5318 3.26289 8.81166 4.38673 7.26409 5.76932C6.90856 6.38351 6.56611 7.00554 6.1949 7.60667C4.40159 10.5077 3.41344 13.678 3.18078 17.06C2.97949 19.9741 3.39253 22.8229 4.38852 25.5933C5.32439 28.1965 6.72557 30.5095 8.57116 32.5429C10.5135 34.6834 12.8218 36.3352 15.4699 37.5374C18.152 38.7553 20.9727 39.3617 23.8822 39.3565C25.5893 39.3512 27.3146 39.0533 28.9955 38.7083C32.0384 38.0863 34.7205 36.6566 37.1308 34.7147C37.4235 34.4769 37.7085 34.2286 37.996 33.9882L37.9987 33.9829ZM21.14 36.343C12.9028 36.3456 6.11909 29.8012 6.14 21.3384C6.16092 12.8181 13.0597 6.48805 21.072 6.44885C29.1681 6.40965 36.0929 12.9802 36.0694 21.3959C36.0459 29.6679 29.4504 36.3273 21.14 36.3456V36.343Z" fill="#9FACBA"/>
<path id="Vector_2" d="M37.9988 33.9829C37.7112 34.2259 37.4263 34.4742 37.1335 34.7095C34.7232 36.654 32.0385 38.081 28.9982 38.703C27.3173 39.048 25.592 39.3459 23.885 39.3512C20.9754 39.359 18.1547 38.7501 15.4726 37.5321C12.8271 36.3325 10.5188 34.6781 8.57388 32.5376C6.72829 30.5042 5.3271 28.1912 4.39124 25.5881C3.39524 22.8177 2.9822 19.9689 3.18349 17.0547C3.41615 13.6727 4.4043 10.5025 6.19761 7.60139C6.57143 6.99765 6.91128 6.37562 7.2668 5.76404C3.87625 8.7592 1.70911 12.4757 0.713123 16.8796C0.527519 17.7003 0.394192 18.534 0.23473 19.3625V23.3456C0.388966 24.1584 0.535362 24.9739 0.697441 25.7841C2.2973 33.7555 8.99737 40.3548 16.9967 41.8602C22.8602 42.9658 28.2427 41.8262 33.1574 38.4521C33.2541 38.3868 33.3482 38.3188 33.4475 38.2561C33.4789 38.2352 33.5207 38.2326 33.6122 38.2038C34.9245 39.4975 36.2525 40.8069 37.5831 42.119C38.37 41.3715 39.1568 40.624 39.9437 39.8765C40.5815 39.2022 41.222 38.5279 41.8599 37.8536C40.5711 36.5625 39.2823 35.274 37.9909 33.9829H37.9988Z" fill="#9FACBA"/>
<path id="Vector_3" d="M41.865 37.8562C41.2272 38.5305 40.5867 39.2048 39.9489 39.8791C39.745 40.7677 39.745 41.5989 40.4612 42.3124C45.0621 46.8992 49.6421 51.5069 54.2561 56.0807C55.2207 57.0373 56.418 57.607 57.8244 57.5443C58.478 57.5156 59.1289 57.4006 59.7824 57.3248C60.6373 55.1869 60.2843 53.245 58.6793 51.6219C54.0993 46.9933 49.4801 42.4038 44.8713 37.8013C43.9747 36.9075 43.0414 36.931 41.865 37.8536V37.8562Z" fill="#B22322"/>
<path id="Vector_4" d="M59.7824 57.3248C59.1289 57.4006 58.478 57.5156 57.8244 57.5443C56.418 57.6071 55.2207 57.0373 54.2561 56.0807C49.6421 51.507 45.0621 46.8992 40.4612 42.3124C39.745 41.5989 39.745 40.7678 39.9489 39.8792C39.162 40.6266 38.3751 41.3741 37.5883 42.1216C36.5635 43.384 36.6054 44.2308 37.7556 45.3807C42.2415 49.8656 46.7221 54.3558 51.2158 58.8328C53.3359 60.9472 56.3736 61.0831 58.5172 59.1125C59.0426 58.629 59.3668 57.9259 59.785 57.3222L59.7824 57.3248Z" fill="#B22322"/>
</g>
</g>
</g>
</g>
<defs>
<clipPath id="clip0_252_515">
<rect width="60" height="60" fill="white" transform="matrix(-1 0 0 1 60.2346 0.508179)"/>
</clipPath>
</defs>
</svg>
