<svg width="61" height="45" viewBox="0 0 61 45" fill="none" xmlns="http://www.w3.org/2000/svg">
<g id="&#208;&#187;&#208;&#190;&#208;&#179;&#208;&#184;&#209;&#129;&#209;&#130;&#208;&#184;&#208;&#186;&#208;&#176;" clip-path="url(#clip0_252_917)">
<g id="b">
<g id="c">
<g id="Group">
<path id="Vector" d="M0.234386 3.84347C0.295706 3.72819 0.374195 3.61536 0.418345 3.49272C0.984938 1.88369 2.24567 0.914845 3.93564 0.900128C7.02369 0.873147 10.1117 0.890317 13.1973 0.890317C13.3102 0.890317 13.4206 0.914845 13.5922 0.932014V10.7481C14.0902 10.2158 14.5096 9.76694 15.0566 9.18073C15.5692 9.83317 15.9984 10.3801 16.5062 11.0252L18.071 9.19299C18.618 9.83317 19.0571 10.3483 19.6114 10.9982L21.1027 9.10469C21.7232 9.79883 22.1745 10.3066 22.7117 10.9099L24.1466 9.18073C24.6935 9.78411 25.1154 10.2526 25.655 10.8462V0.924656C25.8979 0.909939 26.1039 0.890317 26.3075 0.890317C29.1993 0.890317 32.0936 0.941825 34.983 0.873147C37.345 0.816733 39.0669 2.57293 39.0399 4.95949C39.0129 7.36321 39.0448 9.76694 39.0497 12.1707C39.0497 14.8418 39.0497 17.5153 39.0497 20.1864C39.0521 24.984 39.0595 29.7817 39.062 34.5793C38.8289 34.5891 38.5959 34.6063 38.3605 34.6063C32.9717 34.6063 27.5829 34.5989 22.1942 34.621C21.684 34.621 21.4019 34.4689 21.1149 34.0446C19.5353 31.7194 17.3254 30.4047 14.5169 30.26C11.2106 30.0907 8.62536 31.452 6.7637 34.1967C6.64106 34.3782 6.39333 34.5891 6.20201 34.5916C4.2128 34.6112 2.22114 34.5891 0.231934 34.5769C0.234386 24.3316 0.234386 14.0863 0.234386 3.84347Z" fill="#FED180"/>
<path id="Vector_2" d="M0.234753 34.5744C2.22396 34.5842 4.21562 34.6063 6.20483 34.5891C6.39615 34.5891 6.64388 34.3758 6.76652 34.1942C8.63063 31.452 11.2159 30.0883 14.5198 30.2575C17.3258 30.4022 19.5382 31.7169 21.1178 34.0422C21.4047 34.4641 21.6893 34.621 22.197 34.6186C27.5857 34.599 32.9745 34.6063 38.3633 34.6039C38.5963 34.6039 38.8293 34.5867 39.0648 34.5769C39.7663 34.5842 40.4702 34.5769 41.1693 34.6088C41.5445 34.6284 41.7628 34.5033 41.9689 34.1795C45.0447 29.3549 51.8585 28.857 55.6333 33.1714C56.2662 34.6382 57.4876 34.7805 58.8538 34.6039C59.0084 34.5842 59.1653 34.5867 59.3199 34.5793C59.6093 34.5965 59.8987 34.6112 60.2323 34.6308V38.8545C58.557 38.8545 56.8867 38.8545 55.2164 38.8545C55.1771 38.5308 55.1526 38.2021 55.0986 37.8808C54.559 34.7216 51.4587 32.416 48.302 32.909C45.5499 33.3382 43.1683 35.8253 43.1609 38.884C40.0189 38.8791 36.8769 38.8717 33.7373 38.8693C29.1702 38.8668 24.6056 38.8693 20.0385 38.8668C20.0042 38.6976 19.9429 38.5283 19.9404 38.3591C19.9159 36.7991 19.2021 35.5163 18.1205 34.5058C16.7297 33.2058 15.052 32.5803 13.0873 32.9262C11.2968 33.2426 9.95268 34.1771 8.94214 35.6708C8.28234 36.647 8.12045 37.7508 7.98064 38.8717C5.56956 38.8717 3.16092 38.8717 0.749837 38.8717C0.578142 38.8717 0.403995 38.9011 0.2323 38.9183V34.5793L0.234753 34.5744Z" fill="#9FACBA"/>
<path id="Vector_3" d="M59.3222 34.5793C59.1677 34.5866 59.0107 34.5842 58.8562 34.6038C57.49 34.7804 56.2685 34.6382 55.6357 33.1714C51.8609 28.8594 45.047 29.3549 41.9712 34.1795C41.7652 34.5033 41.5469 34.6283 41.1716 34.6087C40.4701 34.5744 39.7686 34.5842 39.0671 34.5768C39.0622 29.7792 39.0573 24.9815 39.0549 20.1839C39.0549 17.5128 39.0549 14.8393 39.0549 12.1682C43.2123 12.1682 47.3698 12.1339 51.5248 12.1731C54.137 12.1976 56.1998 13.8263 56.9823 16.4213C57.7647 19.0139 58.4932 21.6212 59.2413 24.2236C59.2903 24.3904 59.332 24.567 59.332 24.7363C59.332 28.0156 59.3271 31.295 59.3247 34.5744L59.3222 34.5793ZM56.2979 24.2482C55.594 21.8052 54.9366 19.35 54.1714 16.9266C53.7765 15.6781 52.8027 14.9963 51.4709 14.9889C48.3117 14.9693 45.1549 14.9889 41.9958 14.9889C41.9222 15.1385 41.7873 15.2881 41.7873 15.4378C41.775 18.2683 41.7848 21.1012 41.7701 23.9318C41.7701 24.3487 41.9148 24.4665 42.3171 24.464C46.8277 24.4542 51.336 24.4591 55.8466 24.4493C55.9962 24.4493 56.1483 24.3193 56.2979 24.2482Z" fill="#B22322"/>
<path id="Vector_4" d="M43.1608 38.8815C43.1681 35.8229 45.5473 33.3333 48.3018 32.9065C51.4585 32.4159 54.5589 34.7216 55.0985 37.8783C55.1524 38.1996 55.177 38.5283 55.2162 38.852C55.0813 39.8749 54.9194 40.8854 54.3602 41.7905C53.1632 43.7331 51.4487 44.8099 49.1603 44.8074C46.8718 44.8025 45.1549 43.7282 43.9751 41.7733C43.4379 40.883 43.2221 39.9043 43.1632 38.8815H43.1608ZM46.8032 38.8373C46.8032 40.1422 47.8922 41.2288 49.1897 41.219C50.4431 41.2116 51.5419 40.1152 51.5566 38.857C51.5714 37.5619 50.4823 36.463 49.1824 36.463C47.8628 36.463 46.8032 37.5202 46.8032 38.8349V38.8373Z" fill="#130C56"/>
<path id="Vector_5" d="M7.98047 38.8692C8.12028 37.7482 8.28216 36.6445 8.94196 35.6683C9.95251 34.1745 11.2966 33.24 13.0872 32.9236C15.0518 32.5753 16.7295 33.2032 18.1203 34.5032C19.202 35.5138 19.9157 36.7966 19.9402 38.3565C19.9427 38.5258 20.004 38.695 20.0384 38.8643C19.9304 40.3629 19.4374 41.6923 18.4367 42.8476C15.8465 45.8375 10.7865 45.32 8.85121 41.8665C8.32141 40.9221 8.07122 39.9263 7.98047 38.8692ZM14.0143 36.4654C12.6972 36.463 11.6302 37.5275 11.6302 38.8397C11.6302 40.1397 12.7364 41.241 14.0266 41.2263C15.3217 41.2116 16.4033 40.1005 16.3911 38.8029C16.3788 37.5324 15.2996 36.4703 14.0168 36.4679L14.0143 36.4654Z" fill="#130C56"/>
</g>
</g>
</g>
</g>
<defs>
<clipPath id="clip0_252_917">
<rect width="60" height="43.9367" fill="white" transform="translate(0.234558 0.870605)"/>
</clipPath>
</defs>
</svg>
