<svg width="65" height="67" viewBox="0 0 65 67" fill="none" xmlns="http://www.w3.org/2000/svg">
<g id="&#208;&#188;&#208;&#190;&#209;&#128;&#208;&#181;" clip-path="url(#clip0_252_406)">
<g id="b">
<g id="c">
<g id="Group">
<path id="Vector" d="M19.639 66.5435C18.5495 66.1093 17.9368 65.2099 17.3241 64.2728C13.4544 58.3602 9.56507 52.4607 5.6823 46.5578C5.81172 46.5398 5.94279 46.5316 6.07057 46.5038C14 44.8294 21.9261 43.1436 29.8587 41.4857C31.0154 41.2448 32.1523 40.791 33.3827 41.0532C37.9093 42.0165 42.4392 42.9618 46.9659 43.9267C48.8958 44.338 50.8192 44.7754 52.7458 45.2013C51.5384 47.0837 50.3375 48.9711 49.1251 50.8502C46.3204 55.1917 43.5091 59.5299 40.701 63.8698C40.0309 64.9068 39.4133 65.9914 38.2206 66.5435H19.639Z" fill="#130C56"/>
<path id="Vector_2" d="M38.219 66.5433C39.4117 65.9912 40.0277 64.9067 40.6994 63.8696C43.5075 59.5298 46.3188 55.1915 49.1236 50.85C50.3375 48.9709 51.5384 47.0852 52.7442 45.2012C54.9887 45.6779 57.2348 46.1547 59.4793 46.633C55.4032 52.8258 51.3435 59.0268 47.228 65.1934C46.848 65.7635 46.1156 66.0993 45.5471 66.545H38.219V66.5433Z" fill="#130C56"/>
<path id="Vector_3" d="M58.7371 35.709C58.7535 35.7368 58.7617 35.7663 58.7633 35.7975C58.6437 36.0235 58.5389 36.2578 58.4012 36.4724C57.4363 37.9846 56.4648 39.4902 55.4949 40.9991C48.7713 39.5885 42.0493 38.1763 35.3258 36.7723C34.138 36.5249 32.96 36.1333 31.7182 36.3823C30.6533 36.597 29.5901 36.8263 28.5268 37.0508C22.2505 38.3745 15.9758 39.695 9.70107 41.0236C7.46971 41.4955 5.24161 41.987 3.01025 42.4686C2.38114 41.5315 1.74056 40.601 1.1262 39.6557C0.22841 38.2746 0.777242 36.9508 2.38933 36.6019C4.08661 36.2349 5.79045 35.8892 7.48937 35.5304C7.65811 35.4944 7.82358 35.4387 7.99069 35.3928C8.05622 35.3928 8.12339 35.4026 8.18564 35.3879C15.5072 33.8446 22.8288 32.2981 30.1504 30.7531C31.3201 30.5057 32.4833 30.2109 33.694 30.4681C37.4818 31.2725 41.2695 32.0769 45.0589 32.8715C47.5278 33.3875 50.0017 33.8856 52.4739 34.3902C54.5611 34.8292 56.6483 35.2683 58.7371 35.7074V35.709Z" fill="#130C56"/>
<path id="Vector_4" d="M11.4246 23.2073C11.4279 19.5129 11.4312 15.8186 11.4344 12.1242C11.6949 12.1111 11.9554 12.0881 12.2159 12.0881C23.784 12.0865 35.352 12.0865 46.9184 12.0881C47.1134 12.0881 47.31 12.0996 47.5049 12.1062C47.5049 13.0744 47.5049 14.0426 47.5033 15.0109C47.1379 15.0174 46.771 15.0191 46.4056 15.0289C45.421 15.0567 44.4364 15.0862 43.4518 15.1157C42.6932 15.1108 41.9331 15.1157 41.1745 15.0977C40.6634 15.0846 40.4078 15.2828 40.416 15.8186C40.4307 16.8376 40.4258 17.8566 40.416 18.8756C40.4111 19.3573 40.6093 19.603 41.1106 19.5916C41.8905 19.5752 42.6719 19.5768 43.4518 19.5719C44.805 19.5948 46.1599 19.6178 47.5131 19.6407C47.5049 20.8514 47.4967 22.0605 47.4885 23.2712C47.4017 23.2777 47.3149 23.2876 47.2281 23.2876C35.506 23.2876 23.7856 23.2876 12.0635 23.2843C11.8489 23.2843 11.6359 23.2335 11.4213 23.2057L11.4246 23.2073ZM31.0203 15.1141C30.2405 15.1092 29.459 15.119 28.6792 15.0961C28.1599 15.0797 27.9059 15.3025 27.9059 15.8186C27.9059 16.8376 27.9026 17.8566 27.9059 18.8756C27.9076 19.3409 28.1091 19.6047 28.6153 19.5932C29.4164 19.5752 30.2192 19.5785 31.022 19.5719C32.8733 19.5817 34.7262 19.5916 36.5775 19.6047C37.1066 19.6079 37.3131 19.3442 37.3065 18.8314C37.2934 17.8943 37.3049 16.9572 37.3016 16.0201C37.2999 15.2239 37.1115 15.0322 36.294 15.0289C34.7688 15.0223 33.2419 15.024 31.7166 15.0305C31.484 15.0305 31.2513 15.0846 31.0187 15.1141H31.0203ZM18.4595 15.1157C17.6977 15.1108 16.9375 15.1141 16.1757 15.0977C15.6973 15.0879 15.4368 15.2714 15.4401 15.7792C15.4483 16.8228 15.4466 17.8681 15.4401 18.9117C15.4384 19.3704 15.6481 19.5948 16.1118 19.5899C16.8949 19.5801 17.678 19.5768 18.4611 19.5719C20.2862 19.5834 22.1129 19.5752 23.938 19.6145C24.5998 19.6292 24.8423 19.3344 24.8407 18.7282C24.839 17.7927 24.8521 16.8589 24.8374 15.9234C24.8259 15.2435 24.6146 15.0354 23.9199 15.0305C22.3111 15.0191 20.7023 15.024 19.0919 15.0305C18.8805 15.0305 18.6692 15.0862 18.4595 15.1157Z" fill="#130C56"/>
<path id="Vector_5" d="M3.00863 42.4704C5.23836 41.9888 7.46645 41.4973 9.69945 41.0254C15.9741 39.6968 22.2505 38.3763 28.5252 37.0526C29.5884 36.8281 30.6517 36.5988 31.7166 36.3841C32.9584 36.1351 34.1364 36.525 35.3241 36.7741C42.0477 38.1781 48.7713 39.5903 55.4933 41.0009C56.1715 41.1434 56.8514 41.2777 57.528 41.4285C59.0877 41.7741 60.6457 42.128 62.2038 42.477C61.2945 43.8613 60.3869 45.2474 59.4776 46.6317C57.2332 46.155 54.9887 45.6782 52.7426 45.1998C50.8159 44.7739 48.8926 44.3365 46.9626 43.9252C42.436 42.9619 37.9061 42.0166 33.3795 41.0517C32.1491 40.7895 31.0121 41.2433 29.8555 41.4842C21.9228 43.1405 13.9951 44.8263 6.06734 46.5023C5.93955 46.5285 5.80849 46.5383 5.67906 46.5564C4.78782 45.1933 3.89822 43.8319 3.00699 42.4688L3.00863 42.4704Z" fill="#B22322"/>
<path id="Vector_6" d="M11.4246 23.207C11.6392 23.2349 11.8522 23.284 12.0668 23.2857C23.7888 23.2889 35.5093 23.2889 47.2313 23.2889C47.3181 23.2889 47.405 23.2775 47.4918 23.2726C49.5741 23.2988 51.6564 23.325 53.737 23.3512C55.8848 23.3152 58.0326 23.2709 60.1821 23.2447C61.3158 23.2316 61.514 23.4429 61.5157 24.5635C61.5157 25.0862 61.5304 25.6071 61.5107 26.1298C61.4878 26.7703 61.2142 27.0292 60.5835 27.0374C60.0199 27.0439 59.4547 27.0374 58.7371 27.0374C58.7371 29.9536 58.7371 32.8321 58.7371 35.7106C56.6499 35.2715 54.5627 34.8324 52.4739 34.3934C52.4771 32.1915 52.4591 29.9912 52.4952 27.7894C52.505 27.1996 52.3543 27.0177 51.7399 27.0194C37.1574 27.0374 22.5732 27.0341 7.99069 27.0357C7.44514 27.0357 6.89958 27.0357 6.35567 27.0308C5.5529 27.0243 5.37596 26.8424 5.37105 26.0167C5.36777 25.4286 5.36777 24.8388 5.37105 24.2506C5.37596 23.4905 5.49228 23.3676 6.23935 23.3659C7.74331 23.361 9.24891 23.3709 10.7529 23.3578C10.9773 23.3561 11.2001 23.2611 11.4246 23.2087V23.207Z" fill="#B6CEDC"/>
<path id="Vector_7" d="M7.99074 27.034C22.5733 27.034 37.1574 27.0356 51.74 27.0176C52.3543 27.0176 52.505 27.1978 52.4952 27.7876C52.4592 29.9878 52.4772 32.1897 52.4739 34.3916C50.0017 33.8853 47.5295 33.3889 45.059 32.8729C41.2696 32.0799 37.4818 31.2739 33.6941 30.4695C32.4817 30.2123 31.3185 30.5088 30.1504 30.7545C22.8288 32.3011 15.5073 33.846 8.1857 35.3893C8.12344 35.4024 8.05627 35.3926 7.99074 35.3942C7.99074 32.6075 7.99074 29.8207 7.99074 27.034Z" fill="#E1EEF9"/>
<path id="Vector_8" d="M47.5049 12.1058C47.31 12.0992 47.1134 12.0877 46.9184 12.0877C35.3504 12.0877 23.7823 12.0877 12.2159 12.0877C11.9554 12.0877 11.6949 12.1107 11.4344 12.1238C10.8463 12.1189 10.2565 12.1189 9.66834 12.109C8.89506 12.0943 8.64768 11.8486 8.64276 11.0966C8.63949 10.5084 8.63949 9.91863 8.64276 9.33048C8.64768 8.60472 8.89178 8.34259 9.611 8.32948C10.44 8.31474 11.2673 8.3262 12.0963 8.3262C15.7808 8.3262 19.4654 8.3262 23.1499 8.32457C23.3449 8.33276 23.5398 8.34914 23.7348 8.34914C28.0632 8.35569 32.39 8.36552 36.7183 8.36388C38.5008 8.36388 40.2817 8.33931 42.0641 8.3262C47.0511 8.32457 52.0381 8.32129 57.0251 8.32129C58.013 8.32129 58.2374 8.55229 58.2391 9.55821C58.2391 10.0808 58.2473 10.6034 58.2374 11.1261C58.2227 11.8289 57.9458 12.1074 57.2364 12.114C56.0831 12.1254 54.9281 12.1189 53.7731 12.1205C51.6826 12.1156 49.5921 12.1107 47.5033 12.1058H47.5049Z" fill="#B6CEDC"/>
<path id="Vector_9" d="M42.0658 8.32642C40.2833 8.33952 38.5025 8.3641 36.72 8.3641C32.3916 8.3641 28.0649 8.35591 23.7365 8.34935C23.5415 8.34935 23.3466 8.33297 23.1516 8.32478C24.151 5.77558 25.147 3.22638 26.153 0.680461C26.461 -0.0977328 27.0606 -0.445053 27.8896 -0.445053C31.0466 -0.445053 34.2052 -0.443415 37.3622 -0.456521C38.1814 -0.459798 38.7482 -0.0977328 39.0431 0.641141C40.0621 3.19853 41.0599 5.76411 42.0658 8.32805V8.32642Z" fill="#B22322"/>
<path id="Vector_10" d="M47.5049 12.1061C49.5954 12.111 51.6858 12.116 53.7747 12.1209C53.7747 15.6039 53.7747 19.0869 53.7714 22.57C53.7714 22.8305 53.7468 23.0909 53.7354 23.3498C51.6531 23.3236 49.5724 23.2974 47.4902 23.2712C47.4983 22.0605 47.5065 20.8514 47.5147 19.6407C48.0128 19.6309 48.5092 19.6079 49.0072 19.6161C49.5118 19.6227 49.7723 19.4293 49.7641 18.8903C49.7477 17.8517 49.7494 16.8113 49.7641 15.7727C49.7707 15.2746 49.52 15.06 49.0596 15.042C48.5403 15.0223 48.0226 15.019 47.5033 15.0092C47.5033 14.041 47.5033 13.0727 47.5049 12.1045V12.1061Z" fill="#130C56"/>
<path id="Vector_11" d="M62.2054 42.4765C60.6474 42.1259 59.0894 41.7737 57.5297 41.428C56.8531 41.2773 56.1732 41.143 55.4949 41.0004C56.4648 39.4916 57.4363 37.9843 58.4013 36.4738C58.5389 36.2592 58.6438 36.0233 58.7633 35.7988C60.2886 36.1101 61.8335 36.3477 63.3326 36.7572C64.4597 37.0652 64.8398 38.4332 64.1796 39.4932C63.5488 40.5057 62.8657 41.4837 62.2054 42.4782V42.4765Z" fill="#130C56"/>
<path id="Vector_12" d="M18.4578 15.1155C18.6692 15.086 18.8789 15.032 19.0902 15.0303C20.699 15.0238 22.3078 15.0188 23.9183 15.0303C24.6113 15.0352 24.8243 15.2433 24.8357 15.9232C24.8505 16.8587 24.8374 17.7925 24.839 18.728C24.839 19.3341 24.5998 19.629 23.9363 19.6143C22.1112 19.5733 20.2845 19.5815 18.4595 19.5717V15.1155H18.4578Z" fill="#B6CEDC"/>
<path id="Vector_13" d="M47.5033 15.0107C48.0226 15.0206 48.542 15.0238 49.0597 15.0435C49.5201 15.0615 49.7707 15.2761 49.7642 15.7742C49.7494 16.8129 49.7494 17.8532 49.7642 18.8919C49.7724 19.4292 49.5119 19.6242 49.0073 19.6176C48.5109 19.6111 48.0128 19.6324 47.5148 19.6422C46.1615 19.6193 44.8067 19.5963 43.4534 19.5734C43.4534 18.0875 43.4534 16.6015 43.4518 15.1156C44.4364 15.0861 45.421 15.055 46.4056 15.0288C46.771 15.0189 47.138 15.0173 47.5033 15.0107Z" fill="#B6CEDC"/>
<path id="Vector_14" d="M31.0204 15.1138C31.253 15.0844 31.4856 15.0319 31.7183 15.0303C33.2435 15.0221 34.7704 15.0221 36.2957 15.0287C37.1132 15.0319 37.3 15.2236 37.3032 16.0198C37.3065 16.9569 37.2934 17.894 37.3082 18.8312C37.3163 19.3423 37.1083 19.6077 36.5791 19.6044C34.7278 19.5897 32.8765 19.5815 31.0236 19.5717C31.0236 18.0857 31.0236 16.5998 31.022 15.1138H31.0204Z" fill="#B6CEDC"/>
<path id="Vector_15" d="M31.0203 15.1139C31.0203 16.5999 31.0203 18.0858 31.022 19.5717C30.2192 19.5767 29.4181 19.5734 28.6153 19.593C28.1091 19.6045 27.9076 19.3407 27.9059 18.8755C27.9026 17.8564 27.9043 16.8374 27.9059 15.8184C27.9059 15.3023 28.1599 15.0812 28.6792 15.0959C29.459 15.1188 30.2405 15.1106 31.0203 15.1139Z" fill="#E1EEF9"/>
<path id="Vector_16" d="M18.4578 15.1156V19.5717C17.6763 19.5767 16.8932 19.5799 16.1101 19.5898C15.6465 19.5963 15.4351 19.3702 15.4384 18.9115C15.4433 17.8679 15.4449 16.8227 15.4384 15.7791C15.4351 15.2712 15.6972 15.0877 16.174 15.0975C16.9358 15.1139 17.696 15.1106 18.4578 15.1156Z" fill="#E1EEF9"/>
<path id="Vector_17" d="M43.4518 15.1156C43.4518 16.6016 43.4518 18.0875 43.4534 19.5734C42.6736 19.5784 41.8921 19.5767 41.1123 19.5931C40.6093 19.6029 40.4127 19.3588 40.4176 18.8772C40.4274 17.8581 40.4307 16.8391 40.4176 15.8201C40.4111 15.2844 40.665 15.0861 41.1762 15.0992C41.9347 15.1189 42.6932 15.1123 43.4534 15.1173L43.4518 15.1156Z" fill="#E1EEF9"/>
</g>
</g>
</g>
</g>
<defs>
<clipPath id="clip0_252_406">
<rect width="63.8086" height="67" fill="white" transform="translate(0.695312 -0.456543)"/>
</clipPath>
</defs>
</svg>
