<svg width="53" height="67" viewBox="0 0 53 67" fill="none" xmlns="http://www.w3.org/2000/svg">
<g id="&#208;&#150;&#208;&#148;" clip-path="url(#clip0_252_293)">
<g id="b">
<g id="c">
<g id="Group">
<path id="Vector" d="M3.4678 66.5432C5.08696 63.4704 6.70776 60.3976 8.32691 57.3248C8.42688 57.1331 8.51374 56.9348 8.60715 56.7397C11.0605 56.7397 13.5138 56.7397 15.9671 56.7397C15.446 57.7525 14.9232 58.7653 14.3856 59.8109H38.632C38.0781 58.7407 37.5619 57.7394 37.044 56.7397C39.4973 56.7397 41.9506 56.7397 44.404 56.7397C45.9985 59.7765 47.5915 62.8132 49.1861 65.85C49.3073 66.081 49.4237 66.3121 49.5433 66.5432H42.0818C41.654 65.6566 41.1984 64.7815 40.8084 63.8785C40.5855 63.3639 40.2807 63.2033 39.7186 63.2049C31.0394 63.2246 22.3618 63.2344 13.6826 63.1951C12.8124 63.1918 12.324 63.4147 12.0143 64.2242C11.7094 65.0191 11.2948 65.7729 10.9277 66.5448H3.4678V66.5432Z" fill="#130C56"/>
<path id="Vector_2" d="M0.886676 36.058C0.88012 33.1786 0.870287 30.3008 0.868648 27.4214C0.86701 21.4233 0.888314 15.4268 0.857177 9.42875C0.845705 7.20979 1.48485 5.28417 3.00567 3.65026C4.27412 2.2884 5.89492 1.70826 7.66976 1.37394C12.601 0.444726 17.565 -0.155083 22.5814 -0.369769C30.5281 -0.709006 38.3862 -0.0370881 46.1706 1.55421C49.6318 2.26218 52.1196 5.24976 52.1327 8.77486C52.1638 17.8048 52.1425 26.8331 52.1409 35.863C52.1409 35.9285 52.131 35.9941 52.1261 36.058C46.9163 36.058 41.7048 36.0662 36.495 36.058C35.71 36.058 35.0774 36.3055 34.517 36.8708C32.0325 39.3815 29.5284 41.8709 27.0292 44.3652C26.8653 44.5291 26.6899 44.6815 26.3802 44.9666C26.2098 44.7175 26.1 44.4914 25.9328 44.3242C23.4713 41.8529 20.9934 39.3979 18.5434 36.9151C17.9501 36.3136 17.288 36.0531 16.4522 36.0547C11.2637 36.0678 6.07519 36.0596 0.886676 36.058ZM15.2968 31.7446C17.7813 31.7446 20.2674 31.7479 22.7519 31.7446C24.471 31.7413 25.3133 30.8941 25.315 29.1618C25.3183 24.955 25.3183 20.7497 25.315 16.5429C25.315 14.85 24.4235 13.9486 22.742 13.9486C17.7715 13.9453 12.8026 13.9453 7.83201 13.9486C6.15385 13.9486 5.29347 14.8123 5.29183 16.4888C5.28855 20.7383 5.28855 24.9894 5.29183 29.2388C5.29183 30.8842 6.14402 31.7413 7.77629 31.7446C10.2837 31.7495 12.7894 31.7446 15.2968 31.7446ZM37.6373 31.7446C40.1873 31.7446 42.7373 31.7495 45.2889 31.743C46.8409 31.7381 47.716 30.8629 47.7177 29.311C47.7226 25.0172 47.7226 20.7235 47.7177 16.4298C47.7177 14.8401 46.8376 13.9503 45.2513 13.9486C40.2152 13.9421 35.1807 13.9421 30.1446 13.9486C28.6238 13.9503 27.7027 14.8778 27.6995 16.4036C27.6913 20.6973 27.6929 24.991 27.6995 29.2847C27.7027 30.8662 28.5893 31.7397 30.1839 31.7446C32.6684 31.7512 35.1545 31.7446 37.6389 31.7446H37.6373ZM26.508 9.35501C33.791 9.35501 41.0739 9.35501 48.3568 9.35501C48.5305 9.35501 48.7256 9.40253 48.8747 9.34026C49.0337 9.27307 49.2467 9.11574 49.2664 8.9748C49.5269 7.08524 47.7734 4.70567 45.874 4.3861C43.3994 3.96819 40.9297 3.50605 38.4419 3.20123C35.6494 2.85871 32.8437 2.53422 30.0364 2.44901C26.018 2.32773 21.9898 2.29987 17.9829 2.80299C16.1589 3.03243 14.3267 3.19467 12.5059 3.44869C10.8999 3.67157 9.30859 4.01244 7.70418 4.24188C5.56552 4.5467 3.75625 6.52476 3.71528 8.58804C3.70217 9.24029 3.92178 9.36812 4.52978 9.36648C11.8553 9.34681 19.1825 9.35337 26.508 9.35337V9.35501Z" fill="#9FACBA"/>
<path id="Vector_3" d="M15.9671 56.7419C13.5138 56.7419 11.0605 56.7419 8.60719 56.7419C7.45838 56.6715 6.27023 56.7616 5.16894 56.4961C2.51896 55.8537 0.919473 53.7724 0.883419 50.9602C0.830977 46.9516 0.880142 42.943 0.886697 38.9328C5.90313 38.9328 10.9179 38.9214 15.9344 38.9476C16.2736 38.9492 16.6931 39.1426 16.939 39.3852C19.6725 42.0794 22.3782 44.7998 25.0938 47.5121C26.1508 48.5675 26.8637 48.5675 27.9207 47.5121C30.6363 44.7998 33.3419 42.0777 36.0755 39.3852C36.3213 39.1426 36.7409 38.9492 37.0801 38.9476C42.0949 38.9214 47.1113 38.9312 52.1278 38.9328C52.1343 42.9414 52.1819 46.9516 52.1311 50.9585C52.095 53.7675 50.4939 55.8521 47.8455 56.4912C46.7442 56.7567 45.5561 56.6665 44.4073 56.7387C41.954 56.7387 39.5006 56.7387 37.0473 56.7403C34.3072 56.7337 31.5671 56.7206 28.8254 56.7206C24.5398 56.7206 20.2559 56.7337 15.9704 56.7403L15.9671 56.7419ZM38.7878 46.9188C38.7927 48.8428 40.3627 50.4128 42.2735 50.4046C44.168 50.3964 45.7528 48.792 45.7462 46.8877C45.7413 44.9965 44.1139 43.379 42.2408 43.4003C40.3086 43.4232 38.7828 44.9785 38.7878 46.9188ZM14.2202 46.9156C14.2251 44.9686 12.678 43.4019 10.7475 43.3986C8.88743 43.3954 7.28302 44.9883 7.265 46.8566C7.24533 48.7707 8.81205 50.3767 10.7229 50.403C12.6289 50.4292 14.2152 48.8461 14.2202 46.9156Z" fill="#B22322"/>
<path id="Vector_4" d="M52.1242 38.9341C47.1078 38.9341 42.093 38.9226 37.0766 38.9489C36.7373 38.9505 36.3178 39.1439 36.072 39.3864C33.3384 42.0806 30.6327 44.8011 27.9172 47.5133C26.8601 48.5687 26.1472 48.5687 25.0902 47.5133C22.3747 44.8011 19.669 42.079 16.9354 39.3864C16.6896 39.1439 16.2701 38.9505 15.9308 38.9489C10.9144 38.9226 5.89959 38.9325 0.883148 38.9341C0.883148 37.9754 0.883148 37.0167 0.883148 36.058C6.07166 36.0596 11.2602 36.0678 16.4487 36.0547C17.2845 36.0531 17.9466 36.3136 18.5398 36.9151C20.9899 39.3979 23.4678 41.8512 25.9293 44.3242C26.0964 44.493 26.2062 44.7175 26.3767 44.9666C26.6864 44.6798 26.8618 44.529 27.0257 44.3652C29.5249 41.8692 32.029 39.3799 34.5134 36.8708C35.0723 36.3054 35.7049 36.0563 36.4915 36.058C41.7013 36.0662 46.9128 36.0596 52.1226 36.058C52.1226 37.0167 52.1226 37.9754 52.1226 38.9341H52.1242Z" fill="#130C56"/>
<path id="Vector_5" d="M15.2967 31.7447C12.7893 31.7447 10.2835 31.748 7.7761 31.7447C6.14383 31.7415 5.29328 30.8827 5.29164 29.239C5.28837 24.9895 5.28837 20.7384 5.29164 16.4889C5.29164 14.814 6.15366 13.9504 7.83182 13.9487C12.8024 13.9455 17.7713 13.9455 22.7418 13.9487C24.4216 13.9487 25.3131 14.8501 25.3148 16.543C25.3181 20.7499 25.3181 24.9551 25.3148 29.1619C25.3148 30.8942 24.4708 31.7415 22.7517 31.7447C20.2672 31.748 17.7811 31.7447 15.2967 31.7447Z" fill="#F2F2F2"/>
<path id="Vector_6" d="M37.6375 31.7444C35.153 31.7444 32.6669 31.7493 30.1825 31.7444C28.5879 31.7411 27.7013 30.8676 27.698 29.2845C27.6915 24.9908 27.6915 20.6971 27.698 16.4034C27.7013 14.8793 28.6223 13.9517 30.1432 13.9484C35.1793 13.9402 40.2137 13.9419 45.2498 13.9484C46.8362 13.9501 47.7146 14.8399 47.7163 16.4296C47.7195 20.7233 47.7212 25.017 47.7163 29.3107C47.7146 30.8627 46.8395 31.7395 45.2875 31.7428C42.7375 31.7493 40.1875 31.7444 37.6359 31.7444H37.6375Z" fill="#F2F2F2"/>
<path id="Vector_7" d="M26.5081 9.35558C19.1825 9.35558 11.8554 9.34902 4.52983 9.36869C3.92182 9.37033 3.70222 9.2425 3.71533 8.59025C3.75466 6.52697 5.56556 4.55055 7.70423 4.24409C9.31027 4.01465 10.8999 3.67378 12.506 3.4509C14.3267 3.19688 16.1589 3.03464 17.9829 2.8052C21.9898 2.30208 26.0181 2.32994 30.0365 2.45122C32.8438 2.53643 35.6511 2.86092 38.442 3.20344C40.9314 3.50826 43.4011 3.9704 45.8741 4.3883C47.7718 4.70788 49.5253 7.08745 49.2664 8.97701C49.2467 9.11795 49.0337 9.27528 48.8747 9.34247C48.7256 9.40474 48.5322 9.35722 48.3569 9.35722C41.0739 9.35722 33.791 9.35722 26.5081 9.35722V9.35558ZM29.1941 8.20021C30.4593 8.21987 31.4606 7.26608 31.4803 6.02057C31.4999 4.77671 30.5216 3.75244 29.2908 3.7295C28.0437 3.70492 27.0341 4.68002 27.0145 5.92388C26.9948 7.19725 27.9371 8.18054 29.1941 8.20021ZM21.531 5.95502C21.5179 7.20708 22.493 8.19201 23.7483 8.20021C25.0168 8.2084 25.9869 7.25297 25.9951 5.99107C26.0033 4.73574 25.0299 3.74097 23.7844 3.7295C22.5536 3.71967 21.5424 4.71771 21.5293 5.95502H21.531Z" fill="#130C56"/>
<path id="Vector_8" d="M38.7876 46.9192C38.7827 44.9788 40.3084 43.4236 42.2406 43.4006C44.1121 43.3777 45.7395 44.9968 45.7461 46.8881C45.7526 48.7924 44.1679 50.3968 42.2734 50.405C40.3625 50.4132 38.7942 48.8448 38.7876 46.9192Z" fill="white"/>
<path id="Vector_9" d="M14.2201 46.9154C14.2151 48.8475 12.6288 50.429 10.7228 50.4028C8.81194 50.3765 7.24523 48.7721 7.26489 46.8564C7.28456 44.9865 8.88733 43.3952 10.7474 43.3984C12.6763 43.4017 14.2233 44.9684 14.2201 46.9154Z" fill="white"/>
<path id="Vector_10" d="M29.1924 8.19968C27.9354 8.18001 26.9931 7.19672 27.0127 5.92335C27.0307 4.67949 28.0419 3.70439 29.289 3.72897C30.5198 3.75191 31.4982 4.77618 31.4785 6.02005C31.4588 7.26555 30.4592 8.21935 29.1924 8.19968Z" fill="#F2F2F2"/>
<path id="Vector_11" d="M21.5309 5.95411C21.544 4.7168 22.5535 3.71875 23.7859 3.72859C25.0314 3.73842 26.0049 4.73482 25.9967 5.99016C25.9885 7.25206 25.0183 8.20749 23.7499 8.1993C22.4929 8.1911 21.5194 7.20617 21.5326 5.95411H21.5309Z" fill="#F2F2F2"/>
</g>
</g>
</g>
</g>
<defs>
<clipPath id="clip0_252_293">
<rect width="51.2935" height="67" fill="white" transform="translate(0.856934 -0.456543)"/>
</clipPath>
</defs>
</svg>
