<svg width="61" height="67" viewBox="0 0 61 67" fill="none" xmlns="http://www.w3.org/2000/svg">
<g id="&#208;&#176;&#208;&#178;&#209;&#130;&#208;&#190;" clip-path="url(#clip0_252_482)">
<g id="b">
<g id="c">
<g id="Group">
<path id="Vector" d="M2.749 43.7278C2.7457 29.9979 2.73911 16.2698 2.749 2.53995C2.749 1.53171 3.16745 0.683276 4.05213 0.109965C4.24982 -0.0168887 4.40797 -0.199755 4.5826 -0.35791C21.8577 -0.35791 39.1329 -0.35791 56.4096 -0.35791C56.8462 0.0555989 57.3833 0.406505 57.6897 0.900739C57.9961 1.39497 58.2268 2.03089 58.2284 2.60585C58.2564 16.311 58.2482 30.0161 58.2465 43.7228C56.5711 42.6635 54.8017 42.451 52.8429 43.2187C52.8429 40.3011 52.8429 37.4691 52.8429 34.6355C52.8544 34.3307 52.8775 34.0243 52.8775 33.7195C52.8791 27.9699 52.8791 22.2203 52.8775 16.4708C52.8775 16.0342 52.8577 15.5976 52.8478 15.161C52.8528 14.1759 52.8758 13.189 52.861 12.2039C52.8215 9.71128 51.2235 7.83155 48.7754 7.38509C43.8956 6.49547 38.9632 6.12314 34.0126 5.99959C26.8841 5.82166 19.7869 6.15939 12.7276 7.26318C9.59413 7.75412 7.99282 10.0556 8.11802 12.5334C8.1625 13.4082 8.13614 14.2862 8.14273 15.1627C8.13285 15.3142 8.11143 15.4675 8.11143 15.619C8.11143 21.7624 8.11143 27.9057 8.11143 34.0474C8.11143 34.2434 8.13614 34.4395 8.14932 34.6355V43.2055C6.19051 42.4592 4.42115 42.6602 2.74735 43.7278H2.749Z" fill="#9FACBA"/>
<path id="Vector_2" d="M60.4656 54.5909C60.4722 56.6453 60.4936 58.6997 60.4821 60.754C60.4772 61.7425 59.6749 62.5003 58.6683 62.5168C57.8594 62.53 57.0505 62.525 56.2416 62.5283C52.9796 62.5283 49.7177 62.5283 46.4557 62.5283C35.8165 62.5283 25.179 62.5283 14.5398 62.5283C11.2778 62.5283 8.01588 62.5283 4.75394 62.5267C3.94504 62.5234 3.13614 62.5283 2.32725 62.5151C1.32066 62.4987 0.518353 61.7425 0.511763 60.7524C0.500231 58.698 0.52 56.6436 0.528237 54.5893C6.47717 54.5909 12.4244 54.5942 18.3734 54.5942C18.5249 54.5942 18.6765 54.5679 18.8281 54.5547C19.0027 54.5646 19.1773 54.5827 19.352 54.5827C26.7819 54.5827 34.2119 54.5827 41.6403 54.5827C41.8149 54.5827 41.9895 54.5646 42.1642 54.5547C42.3157 54.5695 42.4673 54.5942 42.6188 54.5942C48.5678 54.5942 54.515 54.5926 60.464 54.5893L60.4656 54.5909Z" fill="#B6CEDC"/>
<path id="Vector_3" d="M60.4657 54.591C54.5167 54.5926 48.5695 54.5959 42.6205 54.5959C42.469 54.5959 42.3174 54.5695 42.1658 54.5564C42.6106 50.6898 43.067 46.8249 43.4838 42.9567C43.5447 42.39 43.4064 41.8002 43.3602 41.2219C43.5151 41.1033 43.6667 40.9798 43.8265 40.8661C46.2614 39.1412 48.693 37.4114 51.1362 35.6964C51.6831 35.3125 52.2729 34.9863 52.8429 34.6338V43.217C54.8017 42.4493 56.5711 42.6618 58.2466 43.7211C59.8528 44.9913 60.5629 46.6453 60.5003 48.6931C60.4393 50.6585 60.4739 52.6256 60.4657 54.591ZM57.6452 49.1214C57.7078 47.5992 56.4821 46.2862 54.9434 46.2252C53.4986 46.1692 52.123 47.4509 52.0703 48.9007C52.0126 50.474 53.2433 51.8117 54.7902 51.8578C56.2993 51.9023 57.581 50.6733 57.6452 49.1198V49.1214Z" fill="#B22322"/>
<path id="Vector_4" d="M18.8281 54.5564C18.6765 54.5712 18.525 54.5959 18.3734 54.5959C12.4245 54.5959 6.47719 54.5943 0.528262 54.591C0.521672 52.3867 0.482133 50.1807 0.521672 47.9765C0.552973 46.2104 1.39152 44.82 2.75067 43.726C4.42282 42.6585 6.19383 42.4559 8.15264 43.2038C8.15264 40.2977 8.15264 37.4657 8.15264 34.6338C8.42118 34.7705 8.71278 34.876 8.9566 35.0473C11.8528 37.0984 14.7441 39.161 17.6353 41.2186C17.5892 41.7969 17.4508 42.3867 17.5118 42.9534C17.9269 46.8232 18.3849 50.6865 18.8297 54.5531L18.8281 54.5564ZM8.92365 49.0275C8.91871 47.5218 7.62381 46.2318 6.10816 46.2252C4.61228 46.2186 3.31904 47.5465 3.34045 49.0671C3.36352 50.6041 4.64358 51.8776 6.14935 51.8611C7.67983 51.843 8.92859 50.5695 8.92365 49.0275Z" fill="#B22322"/>
<path id="Vector_5" d="M4.75218 62.5265C8.01412 62.5265 11.2761 62.5265 14.538 62.5282C14.5462 63.599 14.5759 64.6699 14.5578 65.7391C14.543 66.5743 14.1179 66.9812 13.2827 66.9845C10.856 66.9944 8.42928 66.9944 6.00424 66.9845C5.16569 66.9812 4.74394 66.571 4.73241 65.7374C4.71758 64.6666 4.74394 63.5957 4.75218 62.5249V62.5265Z" fill="#130C56"/>
<path id="Vector_6" d="M46.4541 62.5283C49.7161 62.5283 52.978 62.5283 56.24 62.5283C56.2482 63.5992 56.2762 64.67 56.2581 65.7392C56.2449 66.5728 55.8215 66.983 54.9862 66.9863C52.5596 66.9962 50.1345 66.9962 47.7078 66.9863C46.8726 66.983 46.4475 66.5744 46.4327 65.7408C46.4146 64.67 46.4442 63.5992 46.4525 62.53L46.4541 62.5283Z" fill="#130C56"/>
<path id="Vector_7" d="M17.6337 41.2203C14.7424 39.1609 11.8528 37.1 8.95496 35.0489C8.71114 34.8759 8.41954 34.7705 8.151 34.6354C8.13782 34.4394 8.11311 34.2433 8.11311 34.0473C8.11147 27.9039 8.11147 21.7606 8.11311 15.6189C8.11311 15.4674 8.13288 15.3142 8.14441 15.1626C23.0456 15.1626 37.9467 15.1626 52.8479 15.1626C52.8578 15.5992 52.8775 16.0357 52.8775 16.4723C52.8792 22.2219 52.8792 27.9715 52.8775 33.7211C52.8775 34.0259 52.8545 34.3323 52.8429 34.6371C52.2729 34.9896 51.6848 35.3142 51.1362 35.6997C48.693 37.413 46.2614 39.1428 43.8265 40.8694C43.6667 40.983 43.5151 41.1066 43.3602 41.2252C42.983 41.1379 42.6057 40.9781 42.2284 40.9764C34.408 40.9616 26.5876 40.9616 18.7671 40.9764C18.3899 40.9764 18.0126 41.1379 17.6354 41.2252L17.6337 41.2203ZM11.6963 32.8941C11.8281 32.9007 11.9583 32.9138 12.09 32.9138C24.3602 32.9138 36.6304 32.9155 48.9006 32.9138C49.0686 32.9138 49.2367 32.8875 49.4212 32.871C49.4344 32.7277 49.4525 32.6222 49.4525 32.5151C49.4541 28.1115 49.4558 23.7063 49.4475 19.3026C49.4475 19.1577 49.3487 19.0127 49.2943 18.8677C49.1625 18.8611 49.0324 18.8463 48.9006 18.8463C36.6255 18.8463 24.3503 18.8463 12.0752 18.8463C11.9072 18.8463 11.7375 18.8726 11.5612 18.8875C11.5464 19.011 11.5266 19.0951 11.5266 19.1807C11.525 23.6091 11.5233 28.0357 11.5316 32.4641C11.5316 32.6074 11.637 32.7491 11.693 32.8924L11.6963 32.8941Z" fill="#B22322"/>
<path id="Vector_8" d="M52.8479 15.1611C37.9467 15.1611 23.0456 15.1611 8.1444 15.1611C8.13781 14.2847 8.16252 13.4066 8.11969 12.5318C7.99613 10.0541 9.5958 7.75257 12.7292 7.26163C19.7886 6.15784 26.8858 5.81847 34.0143 5.99804C38.9648 6.1216 43.8956 6.49392 48.777 7.38354C51.2268 7.83 52.8232 9.70974 52.8627 12.2023C52.8775 13.1875 52.8545 14.1743 52.8495 15.1595L52.8479 15.1611Z" fill="#B22322"/>
<path id="Vector_9" d="M17.6337 41.2203C18.0109 41.1347 18.3882 40.9732 18.7655 40.9716C26.5859 40.9567 34.4063 40.9567 42.2268 40.9716C42.604 40.9716 42.9813 41.133 43.3586 41.2203C43.4047 41.7986 43.5431 42.3884 43.4821 42.9551C43.067 46.8249 42.609 50.6882 42.1642 54.5548C41.9895 54.5647 41.8149 54.5828 41.6403 54.5828C34.2103 54.5828 26.7803 54.5828 19.352 54.5828C19.1773 54.5828 19.0027 54.5647 18.8281 54.5548C18.3849 50.6882 17.9269 46.8233 17.5118 42.9551C17.4508 42.3884 17.5892 41.7986 17.6353 41.2203H17.6337Z" fill="#130C56"/>
<path id="Vector_10" d="M57.6452 49.1215C57.581 50.6751 56.2992 51.9041 54.7902 51.8596C53.2432 51.8135 52.0126 50.4757 52.0702 48.9024C52.123 47.451 53.4986 46.1693 54.9434 46.227C56.4821 46.2863 57.7078 47.6009 57.6452 49.1232V49.1215Z" fill="white"/>
<path id="Vector_11" d="M8.92361 49.026C8.92855 50.5663 7.67979 51.8414 6.14931 51.8596C4.64354 51.876 3.36348 50.6026 3.34041 49.0655C3.31899 47.5466 4.61224 46.2171 6.10812 46.2237C7.62212 46.2302 8.91866 47.5202 8.92361 49.026Z" fill="white"/>
<path id="Vector_12" d="M49.296 18.8696C49.3487 19.0146 49.4475 19.1596 49.4492 19.3046C49.4574 23.7082 49.4558 28.1135 49.4541 32.5171C49.4541 32.6225 49.436 32.7296 49.4228 32.8729C49.2383 32.8878 49.0703 32.9158 48.9022 32.9158C36.632 32.9158 24.3619 32.9158 12.0917 32.9158C11.9599 32.9158 11.8297 32.9026 11.6979 32.896C12.7951 32.4709 13.8874 32.0327 14.9895 31.6242C18.7556 30.2288 22.5282 28.8482 26.296 27.4545C31.5777 25.499 36.8577 23.5401 42.1362 21.5731C44.5266 20.6818 46.9105 19.7724 49.2976 18.8713L49.296 18.8696Z" fill="#E1EEF9"/>
<path id="Vector_13" d="M49.2959 18.8693C46.9088 19.7705 44.5249 20.6815 42.1345 21.5711C36.856 23.5365 31.576 25.497 26.2943 27.4525C22.5266 28.8479 18.7555 30.2268 14.9878 31.6222C13.884 32.0308 12.7934 32.469 11.6962 32.894C11.6402 32.7507 11.5348 32.609 11.5348 32.4657C11.5266 28.0374 11.5282 23.6107 11.5298 19.1823C11.5298 19.0983 11.5496 19.0126 11.5644 18.8891C11.7407 18.8743 11.9088 18.8479 12.0784 18.8479C24.3536 18.8463 36.6287 18.8479 48.9038 18.8479C49.0356 18.8479 49.1658 18.8611 49.2976 18.8693H49.2959Z" fill="#E1EEF9"/>
</g>
</g>
</g>
</g>
<defs>
<clipPath id="clip0_252_482">
<rect width="60" height="67.3525" fill="white" transform="translate(0.503662 -0.35791)"/>
</clipPath>
</defs>
</svg>
