<svg width="103" height="48" viewBox="0 0 103 48" fill="none" xmlns="http://www.w3.org/2000/svg">
<g id="&#208;&#176;&#208;&#178;&#208;&#184;&#208;&#176;" clip-path="url(#clip0_252_88)">
<g id="b">
<g id="c">
<g id="Group">
<path id="Vector" d="M0.687939 38.8646C0.625684 38.8646 0.565918 38.8622 0.503662 38.8573V37.2919C1.2582 34.8128 3.51685 34.5433 5.56631 33.9848C12.6286 32.0569 19.6909 30.1363 26.7557 28.2182C30.9542 27.0766 35.1578 25.94 39.3588 24.8058C39.4833 24.7715 39.6228 24.7862 39.7547 24.7788C39.4086 26.5426 38.8807 28.2966 38.7636 30.0751C38.6341 32.0765 38.8732 34.1024 38.9529 36.1185C35.4666 36.3341 31.9802 36.5521 28.4939 36.7677C28.21 36.1871 27.9635 35.5844 27.6323 35.0308C25.9638 32.2529 22.1737 30.7193 19.2203 31.6012C18.5703 31.8119 17.883 31.9515 17.2754 32.2455C14.9694 33.3675 13.682 35.288 13.0271 37.6716C9.28423 37.8725 5.54141 38.0611 1.80356 38.2987C1.42007 38.3232 1.05898 38.6662 0.685449 38.8621L0.687939 38.8646Z" fill="#E1EEF9"/>
<path id="Vector_2" d="M102.504 38.8574C102.364 39.0705 102.212 39.2763 102.088 39.4992C101.532 40.4865 100.706 41.0621 99.5377 41.0132C96.7138 40.8956 93.8924 40.7461 91.0685 40.6163C90.7074 40.5992 90.3438 40.6212 89.9802 40.6261L89.9852 37.6742C91.7757 37.6497 92.9287 36.5057 92.9411 34.7468C92.9461 34.1001 92.9486 33.4509 92.9536 32.8042C95.2645 33.4191 97.5779 34.034 99.8889 34.6513C101.209 35.004 101.913 35.9913 102.506 37.0985V38.8599L102.504 38.8574Z" fill="#B6CEDC"/>
<path id="Vector_3" d="M38.9529 36.1187C38.8732 34.1026 38.6317 32.0791 38.7637 30.0753C38.8807 28.2968 39.4086 26.5428 39.7548 24.779C40.9501 22.8829 42.0134 20.8889 43.388 19.13C44.2521 18.0252 45.5819 17.2707 46.7025 16.3594C48.3087 17.0404 49.3995 18.3216 50.3358 19.664C51.3792 21.1608 52.1885 22.8143 53.0999 24.3993C52.4749 26.1606 52.6417 26.6187 54.1035 27.1381C54.3002 28.2502 54.619 29.3575 54.6638 30.4746C54.7535 32.6548 54.7709 34.8448 54.6688 37.0251C54.5443 39.7124 53.8122 42.2135 51.7727 44.1831C51.5734 44.3766 51.4664 44.6583 51.3144 44.9009C47.4795 44.6975 44.1052 43.4653 41.4581 40.6286C40.9277 40.0603 40.4496 39.4503 39.9465 38.8574C39.6153 37.9437 39.2816 37.0324 38.9504 36.1187H38.9529ZM44.9046 27.8264C46.5108 27.5153 47.8356 27.2704 49.1554 27.0009C49.9598 26.8368 50.3657 26.2856 50.2835 25.5164C50.2013 24.7276 49.646 24.0441 48.8715 24.1274C47.3824 24.2891 45.8932 24.6198 44.4563 25.046C43.6171 25.2959 43.5325 26.1925 43.8039 26.8686C43.9782 27.3046 44.5883 27.5692 44.9021 27.8264H44.9046Z" fill="#CDE1F0"/>
<path id="Vector_4" d="M51.3169 44.9008C51.4663 44.6583 51.5759 44.3766 51.7751 44.1831C53.8146 42.2135 54.5467 39.7148 54.6712 37.025C54.7733 34.8448 54.7559 32.6548 54.6662 30.4745C54.6214 29.3575 54.3002 28.2502 54.1059 27.1356C55.3386 27.3316 56.5688 27.5447 57.8039 27.7137C58.5136 27.8093 59.0715 27.508 59.2458 26.8122C59.4301 26.0724 59.3329 25.2714 58.5037 25.0019C56.7605 24.436 54.9925 23.8114 53.1024 24.3968C52.1909 22.8119 51.3816 21.1583 50.3382 19.6616C49.4019 18.3191 48.3136 17.0379 46.705 16.3569C46.9141 16.1658 47.1233 15.9748 47.3325 15.7861C50.1166 14.7034 52.9007 14.7156 55.6847 15.7812C59.2109 17.7998 61.4447 20.8693 63.0185 24.4752C63.0683 24.5904 63.1604 24.6883 63.2351 24.7937C63.5091 25.7932 63.8378 26.7828 64.042 27.797C64.5873 30.5186 64.6322 33.2599 64.1167 36.0721C65.2522 36.1554 66.3305 36.2411 67.4088 36.3146C69.777 36.4763 72.1477 36.6331 74.5159 36.7899C74.4063 37.7428 74.2968 38.6982 74.1872 39.6536C72.7105 39.5213 71.2338 39.3719 69.7546 39.2641C67.7126 39.1171 65.6706 38.9726 63.6261 38.9064C63.26 38.8942 62.762 39.1808 62.5304 39.4821C59.7139 43.142 55.9363 44.8494 51.3194 44.9008H51.3169Z" fill="#B6CEDC"/>
<path id="Vector_5" d="M74.5159 36.7897C72.1477 36.6304 69.777 36.4761 67.4087 36.3144C66.3305 36.2409 65.2497 36.1576 64.1166 36.0719C64.6321 33.2572 64.5873 30.5184 64.0419 27.7968C63.8377 26.7826 63.509 25.7929 63.2351 24.7935C65.683 25.4279 68.1384 26.0404 70.5813 26.6969C76.6176 28.3235 82.649 29.9697 88.6803 31.6134C90.1072 32.0029 91.5292 32.4071 92.9536 32.804C92.9486 33.4507 92.9461 34.0999 92.9411 34.7466C92.9312 36.5055 91.7757 37.6495 89.9852 37.674C89.8906 37.3629 89.8034 37.0493 89.7038 36.7407C88.4711 32.9804 84.5366 30.7487 80.5472 31.5473C77.5365 32.1842 75.6066 34.0215 74.5159 36.7872V36.7897Z" fill="#E1EEF9"/>
<path id="Vector_6" d="M55.6823 15.7811C52.8982 14.7179 50.1142 14.7032 47.3301 15.786C47.5467 13.6645 47.7509 11.5431 47.985 9.42408C48.2116 7.37123 48.4706 5.32083 48.7171 3.26798C48.752 2.97891 48.7819 2.68985 48.8441 2.40813C49.3198 0.26219 51.2148 -0.56336 53.227 0.485113C54.2729 1.02895 54.1483 2.09702 54.2654 2.97156C54.7834 6.87639 55.2142 10.7935 55.6674 14.7056C55.7072 15.0584 55.6798 15.421 55.6848 15.7786L55.6823 15.7811Z" fill="#E1EEF9"/>
<path id="Vector_7" d="M19.2203 31.6012C22.1737 30.7193 25.9639 32.2528 27.6323 35.0308C27.9635 35.5844 28.2101 36.187 28.4939 36.7676C28.606 37.7303 28.7206 38.6906 28.8326 39.6534C28.5985 44.592 23.623 47.9285 19.2452 46.8163C19.2427 45.883 19.2128 44.9521 19.2452 44.0212C19.2676 43.399 19.3847 42.7816 19.4569 42.1619C19.6785 42.2231 19.8952 42.299 20.1193 42.3456C21.4814 42.6224 22.8511 42.1006 23.5981 41.0276C24.3826 39.9008 24.39 38.4996 23.6181 37.3776C22.6817 36.018 21.2598 35.6726 19.2253 36.3046C19.2228 34.7368 19.2203 33.1665 19.2153 31.5987L19.2203 31.6012Z" fill="#B22322"/>
<path id="Vector_8" d="M80.5448 31.5473C84.5342 30.7512 88.4712 32.9828 89.7014 36.7407C89.8035 37.0494 89.8906 37.3629 89.9828 37.674L89.9778 40.6259C89.0564 44.3103 86.7081 46.4758 82.8607 46.9657C82.1236 47.0588 81.3516 46.8898 80.5971 46.8408C80.5971 45.2632 80.5971 43.6831 80.5971 42.1055C83.3637 42.9482 85.5576 41.4931 85.3933 38.9234C85.2563 36.7701 83.3239 35.5967 80.8386 36.1552C80.754 35.8319 80.6071 35.5134 80.5971 35.1876C80.5572 33.975 80.5597 32.7599 80.5473 31.5473H80.5448Z" fill="#B22322"/>
<path id="Vector_9" d="M80.5448 31.5474C80.5573 32.76 80.5548 33.975 80.5946 35.1876C80.6046 35.5134 80.7515 35.8319 80.8362 36.1553C78.2139 37.7549 78.1094 40.3565 80.5946 42.1056C80.5946 43.6832 80.5946 45.2633 80.5946 46.8409C76.8045 45.9345 74.5359 43.3917 74.1823 39.651C74.2918 38.6956 74.4014 37.7427 74.511 36.7873C75.6017 34.0216 77.5316 32.1843 80.5423 31.5474H80.5448Z" fill="#B22322"/>
<path id="Vector_10" d="M19.4593 42.1622C19.3846 42.782 19.27 43.3993 19.2476 44.0215C19.2127 44.9524 19.2426 45.8858 19.2476 46.8167C15.8609 46.0279 13.8687 43.8868 13.037 40.6263C13.037 39.6415 13.032 38.6567 13.032 37.6744C13.6844 35.2908 14.9719 33.3702 17.2803 32.2483C17.8879 31.9519 18.5752 31.8147 19.2252 31.604C19.2277 33.1718 19.2302 34.7421 19.2352 36.3099C16.9192 38.2549 17.0064 40.4915 19.4643 42.1647L19.4593 42.1622Z" fill="#B22322"/>
<path id="Vector_11" d="M13.0296 37.6743C13.0296 38.6591 13.0346 39.6439 13.0346 40.6262C9.9666 40.7585 6.90112 40.9128 3.83315 41.0108C2.18462 41.0647 1.27568 40.3959 0.687988 38.8624C1.05903 38.6665 1.42261 38.3235 1.8061 38.299C5.54644 38.0589 9.28926 37.8728 13.0296 37.6719V37.6743Z" fill="#B6CEDC"/>
<path id="Vector_12" d="M28.8326 39.6536C28.7205 38.6908 28.606 37.7306 28.4939 36.7678C31.9802 36.5523 35.4666 36.3342 38.9529 36.1187C39.2841 37.0324 39.6178 37.9437 39.949 38.8574C38.3104 38.9848 36.6743 39.1195 35.0333 39.2371C32.9664 39.3841 30.8995 39.5164 28.8326 39.6536Z" fill="#B6CEDC"/>
<path id="Vector_13" d="M44.9021 27.8241C44.5883 27.5669 43.9782 27.2999 43.8039 26.8663C43.5325 26.1926 43.6171 25.2936 44.4564 25.0437C45.8932 24.615 47.3824 24.2843 48.8715 24.1251C49.646 24.0418 50.1988 24.7252 50.2835 25.514C50.3657 26.2832 49.9598 26.8344 49.1554 26.9986C47.8356 27.2705 46.5083 27.5154 44.9046 27.8241H44.9021Z" fill="#FEFEFE"/>
<path id="Vector_14" d="M53.0999 24.399C54.99 23.816 56.7555 24.4382 58.5012 25.0041C59.3304 25.2736 59.4276 26.0746 59.2433 26.8145C59.0715 27.5077 58.5112 27.8115 57.8014 27.7159C56.5663 27.5469 55.3361 27.3338 54.1034 27.1378C52.6417 26.6185 52.4748 26.1604 53.0999 24.399Z" fill="#FEFEFE"/>
<path id="Vector_15" d="M19.4593 42.1621C17.0014 40.489 16.9143 38.2524 19.2302 36.3073C21.2647 35.6729 22.6866 36.0207 23.623 37.3803C24.3949 38.4998 24.3875 39.9035 23.603 41.0304C22.856 42.1033 21.4863 42.6251 20.1242 42.3483C19.9001 42.3018 19.6809 42.2258 19.4618 42.1646L19.4593 42.1621Z" fill="#E1EEF9"/>
<path id="Vector_16" d="M80.597 42.1083C78.1118 40.3592 78.2164 37.7576 80.8386 36.158C83.3238 35.5994 85.2562 36.7728 85.3932 38.9261C85.5576 41.4959 83.3637 42.951 80.597 42.1083Z" fill="#E1EEF9"/>
</g>
</g>
</g>
</g>
<defs>
<clipPath id="clip0_252_88">
<rect width="102" height="47" fill="white" transform="translate(0.503662 0.0322266)"/>
</clipPath>
</defs>
</svg>
