<svg width="32" height="32" viewBox="0 0 32 32" fill="none" xmlns="http://www.w3.org/2000/svg">
<circle cx="16.1733" cy="15.9237" r="15.5303" fill="#B22322"/>
<g clip-path="url(#clip0_51_1474)">
<path d="M20.5146 24.7173C20.159 24.709 19.713 24.5636 19.2671 24.4295C14.2765 22.9226 10.2499 18.9636 8.66048 13.997C8.52181 13.5638 8.3894 13.1218 8.32236 12.6741C8.19619 11.826 8.50682 11.122 9.20097 10.6277C9.81724 10.1891 10.4664 9.79497 11.1114 9.39791C11.5861 9.10592 12.1766 9.30155 12.3777 9.82238C12.8187 10.9629 13.2438 12.1097 13.6698 13.2556C13.7701 13.5255 13.7231 13.7868 13.5665 14.0285C13.3379 14.3811 13.1135 14.7363 12.8799 15.0856C12.6325 15.456 12.6384 15.8145 12.8815 16.1875C13.925 17.7898 15.2475 19.1106 16.8553 20.1469C17.2017 20.3699 17.5448 20.3774 17.8913 20.1544C18.2448 19.9272 18.6 19.7021 18.9489 19.4682C19.2358 19.2763 19.5307 19.2498 19.8513 19.371C20.9277 19.7781 22.007 20.178 23.0838 20.5838C23.7459 20.8334 23.9366 21.4141 23.556 22.0089C23.2067 22.555 22.859 23.1024 22.5071 23.647C22.0578 24.3426 21.3999 24.716 20.5142 24.7169L20.5146 24.7173Z" fill="white"/>
<path d="M16.8432 9.26764C19.9325 9.31624 22.6787 11.4644 23.499 14.4752C23.6581 15.0587 23.7417 15.6527 23.7501 16.257C23.7559 16.6686 23.5111 16.9527 23.1455 16.9614C22.769 16.9701 22.51 16.6943 22.5034 16.2773C22.4609 13.603 20.6779 11.336 18.0808 10.6935C17.6219 10.5801 17.138 10.5647 16.6642 10.5149C16.4168 10.4887 16.2265 10.3878 16.1158 10.1635C16.0079 9.94548 16.0279 9.72992 16.1666 9.53014C16.2802 9.36608 16.4426 9.2826 16.64 9.26848C16.707 9.26391 16.7749 9.26764 16.8424 9.26764H16.8432Z" fill="white"/>
<path d="M16.7746 11.7933C19.0889 11.8403 21.009 13.6457 21.2018 15.9351C21.2113 16.0489 21.2213 16.1627 21.223 16.2769C21.2288 16.6702 20.9727 16.9552 20.6126 16.9606C20.2507 16.966 19.9879 16.6898 19.9805 16.2968C19.9542 14.9129 19.0968 13.7051 17.801 13.2316C17.4375 13.0987 17.0598 13.0377 16.6717 13.0335C16.3981 13.0306 16.1733 12.8632 16.0883 12.6186C16.0059 12.381 16.0738 12.1169 16.2616 11.9507C16.4156 11.8145 16.5997 11.7771 16.775 11.7933H16.7746Z" fill="white"/>
<path d="M16.7266 14.3144C17.7801 14.3311 18.6762 15.2211 18.6999 16.2748C18.7086 16.6582 18.4609 16.946 18.109 16.961C17.743 16.9768 17.4728 16.7139 17.4536 16.3239C17.4324 15.8902 17.1213 15.5808 16.6858 15.56C16.3039 15.5418 16.0428 15.2772 16.052 14.9171C16.0607 14.5636 16.3464 14.3082 16.7266 14.3144Z" fill="white"/>
</g>
<defs>
<clipPath id="clip0_51_1474">
<rect width="15.4556" height="15.4556" fill="white" transform="translate(8.29486 9.26141)"/>
</clipPath>
</defs>
</svg>
