<svg width="400" height="368" viewBox="0 0 400 368" fill="none" xmlns="http://www.w3.org/2000/svg">
<path d="M366.834 212.294L84.5733 118.062C41.9066 103.786 -0.8298 89.4628 -43.4965 75.1872C-52.5469 72.0376 -57.248 73.0148 -64.8443 79.1944L-156.214 153.511L122.501 246.688C167.249 261.678 210.361 276.054 255.109 291.044C263.527 294.066 266.44 294.325 273.339 288.333L366.834 212.294ZM234.582 156.154L346.067 65.3639C306.522 52.1595 266.967 38.8964 227.423 25.692C217.187 22.3939 213.274 24.6849 206.714 29.5222L104.559 112.602L234.63 156.084L234.582 156.154ZM353.918 73.6503L247.366 160.385L377.238 203.781L377.55 203.482L353.928 73.7091L353.918 73.6503ZM-11.7169 341.919L-36.5365 205.564L-167.048 162.344L-144.496 286.239C-142.774 295.702 -140.463 298.682 -131.332 301.938L-11.7063 341.978L-11.7169 341.919ZM-24.1383 209.683L-0.442059 339.867L106.072 253.261L-24.1276 209.742L-24.1383 209.683ZM121.189 270.304L11.9743 359.163C1.0335 368.077 -2.55154 369.154 -17.3478 364.257C-57.477 350.856 -97.6168 337.395 -137.746 323.994C-157.617 317.349 -162.964 312.432 -166.591 292.508L-187.72 176.43C-191.218 157.21 -189.39 151.17 -173.983 138.65C-141.746 112.38 -109.498 86.1686 -77.3089 59.968C-63.1092 47.8501 -54.9091 45.9932 -37.7154 53.004L89.335 95.6391L193.938 10.5953C207.676 -1.37783 215.586 -2.14964 232.861 3.63198C256.16 11.353 311.574 29.9877 350.989 43.1548C368.79 49.1444 373.927 55.921 377.168 73.7294L398.329 189.984C401.934 209.791 399.06 215.111 382.209 229.412C362.657 245.965 321.31 278.812 283.114 309.871C272.828 318.361 267.81 319.943 254.661 315.05L121.151 270.433L121.189 270.304Z" fill="white"/>
</svg>
