<svg width="389" height="336" viewBox="0 0 389 336" fill="none" xmlns="http://www.w3.org/2000/svg">
<path d="M30.8087 173.868L327.085 146.096C371.878 141.868 416.749 137.608 461.541 133.38C471.07 132.364 475.427 134.382 481.424 142.123L553.562 235.223L260.978 262.771C213.997 267.223 168.748 271.449 121.766 275.901C112.883 276.936 109.986 276.527 104.626 269.127L30.8087 173.868ZM172.347 149.18L84.3532 35.4747C125.862 31.5814 167.394 27.6332 208.902 23.7399C219.62 22.8488 222.911 25.9675 228.204 32.1663L308.858 136.247L172.315 149.101L172.347 149.18ZM74.8278 41.7649L158.936 150.402L22.606 163.218L22.3707 162.856L74.8041 41.8197L74.8278 41.7649ZM370.105 385.957L425.198 258.782L562.11 246.283L512.051 361.837C508.228 370.662 505.302 373.04 495.67 374.141L370.081 386.012L370.105 385.957ZM412.189 259.982L359.589 381.402L275.489 272.898L412.165 260.037L412.189 259.982ZM256.901 286.07L343.121 397.379C351.755 408.542 355.003 410.404 370.524 408.99C412.647 405.037 454.793 401.03 496.916 397.077C517.776 395.111 524.099 391.535 532.149 372.952L579.05 264.689C586.815 246.764 586.404 240.466 574.237 224.779C548.797 191.883 523.333 159.041 497.924 126.224C486.842 111.202 479.276 107.534 460.941 110.463L327.532 123.178L244.939 16.6296C234.273 1.85305 226.745 -0.692283 208.609 1.02149C184.165 3.25798 125.97 8.84163 84.5951 12.7279C65.9 14.5249 59.3605 19.9602 52.1652 36.5697L5.19359 144.998C-2.80914 163.471 -1.21661 169.304 11.9533 187.054C27.2424 207.609 60.0638 248.976 90.222 287.887C98.3146 298.489 102.843 301.167 116.759 299.383L256.909 286.203L256.901 286.07Z" fill="white"/>
</svg>
