<svg width="50" height="59" viewBox="0 0 50 59" fill="none" xmlns="http://www.w3.org/2000/svg">
<g id="&#208;&#160;&#208;&#181;&#209;&#129;&#209;&#131;&#209;&#128;&#209;&#129; 8" clip-path="url(#clip0_49_3259)">
<g id="b">
<g id="c">
<g id="Group">
<path id="Vector" d="M26.4203 0.329346C27.5053 0.592249 28.631 0.744067 29.6678 1.13472C35.0832 3.17685 38.2769 7.07597 39.1786 12.8062C39.3008 13.5782 39.2545 14.3743 39.2878 15.1593C38.5658 14.1855 37.5956 13.7893 36.3959 13.8726C35.8534 13.9115 35.3072 13.8856 34.7629 13.8874C34.7296 13.7226 34.6907 13.5578 34.6666 13.3912C34.3741 11.438 33.2558 10.1401 31.4211 9.51061C29.6011 8.88853 27.9922 9.37175 26.6092 10.6752C25.4687 11.7508 24.1486 12.347 22.549 12.3081C21.2345 12.2748 19.9181 12.2637 18.6054 12.3192C18.0408 12.3433 17.4501 12.4803 16.928 12.7025C15.9486 13.1191 15.4432 13.9707 15.1747 15.002C14.7563 15.002 14.3638 14.9964 13.9713 15.002C12.5179 15.0242 11.4682 15.6722 10.859 17.0071C10.7831 17.1719 10.6887 17.3274 10.6017 17.4884C10.6406 15.9499 10.5239 14.3891 10.7461 12.8765C11.6163 6.94267 14.9766 3.00097 20.6217 1.01438C21.5085 0.701484 22.4546 0.553369 23.3729 0.329346H26.4203Z" fill="#FECE78"/>
<path id="Vector_2" d="M10.6017 17.4903C10.6887 17.331 10.7831 17.1755 10.859 17.0089C11.4682 15.674 12.5198 15.026 13.9713 15.0038C14.3638 14.9982 14.7545 15.0038 15.1747 15.0038C15.4413 13.9725 15.9486 13.1209 16.928 12.7043C17.4501 12.4821 18.0389 12.3451 18.6054 12.3211C19.9181 12.2655 21.2345 12.2766 22.549 12.31C24.1468 12.3507 25.4687 11.7527 26.6092 10.677C27.9904 9.37358 29.6011 8.8885 31.4211 9.51244C33.2577 10.1401 34.3741 11.4379 34.6666 13.393C34.6907 13.5597 34.7314 13.7245 34.7629 13.8892C34.7592 14.4909 34.7666 15.0927 34.75 15.6925C34.6852 18.0179 34.6129 20.3415 34.5426 22.6669C34.0668 23.7722 33.5798 24.8756 33.1244 25.9902C33.067 26.1309 33.167 26.3364 33.1929 26.5123L32.2561 26.5271C31.8562 25.9328 31.3266 25.5551 30.5879 25.5477C29.727 25.5385 28.8642 25.5199 28.0033 25.5514C26.9017 25.5921 26.1167 26.3827 26.1278 27.3899C26.1389 28.4248 26.9628 29.195 28.0792 29.2117C28.8272 29.221 29.577 29.2265 30.3269 29.2339C30.3361 30.3763 30.3454 31.5186 30.3546 32.6609C30.3676 34.168 31.31 35.2529 32.7948 35.4733C32.867 35.6843 32.9485 35.8917 33.0077 36.1046C33.4003 37.4932 33.7872 38.8818 34.1779 40.2722C33.0115 39.6816 31.8488 39.0817 30.6694 38.5152C30.5139 38.4411 30.225 38.4744 30.0825 38.5744C28.2348 39.8815 26.1648 40.3944 23.9487 40.1481C21.6844 39.8963 19.7607 38.8929 18.2981 37.1081C17.9204 36.6471 17.6094 36.1287 17.2687 35.6362C17.2687 35.5732 17.2687 35.5103 17.2706 35.4473C18.7295 35.1067 19.5497 34.0865 19.5552 32.5961C19.5589 31.4705 19.5737 30.3429 19.5423 29.2173C19.5367 28.9969 19.396 28.7044 19.222 28.5748C16.991 26.9104 15.6672 24.709 15.2599 21.9596C15.2136 21.6449 15.0859 21.5394 14.7896 21.5468C14.4527 21.5579 14.1139 21.5505 13.7769 21.5468C12.6605 21.5338 11.794 21.0432 11.1738 20.1323C10.9479 19.799 10.7924 19.4176 10.6054 19.0584C10.6054 18.5363 10.6054 18.0142 10.6035 17.4921L10.6017 17.4903Z" fill="#FEDCCD"/>
<path id="Vector_3" d="M17.2686 35.4456C17.2686 35.5085 17.2686 35.5715 17.2667 35.6344C16.4132 37.0952 15.9578 38.7004 15.7226 40.3519C15.5486 41.5701 15.4931 42.8124 15.4857 44.0436C15.4597 48.4741 15.4746 52.9046 15.4746 57.3351V58.0923C13.4917 58.0923 11.5495 58.0923 9.6055 58.0923C9.60736 56.4001 9.61291 54.7079 9.61291 53.0157C9.61291 52.3991 9.25743 51.9937 8.74274 52.0066C8.2447 52.0196 7.91514 52.4066 7.91329 53.0157C7.90959 54.7079 7.91514 56.4001 7.91885 58.0923C6.48954 58.096 5.06208 58.1053 3.63278 58.0997C2.14052 58.0942 1.03521 57.1351 0.913017 55.5762C0.613084 51.7067 0.894503 47.9131 2.84962 44.438C5.44718 39.8149 9.34075 36.9545 14.5785 35.9732C15.0339 35.8881 15.482 35.7622 15.9337 35.6529C16.3781 35.5844 16.8242 35.5141 17.2686 35.4456Z" fill="#6AA8FE"/>
<path id="Vector_4" d="M34.176 40.2704C33.7872 38.8818 33.3984 37.4914 33.0059 36.1028C32.9448 35.8899 32.8633 35.6806 32.793 35.4714C33.2169 35.5344 33.6409 35.5973 34.0649 35.6603C35.4572 36.025 36.9032 36.2509 38.2306 36.7785C44.2793 39.1817 47.8896 43.627 48.8468 50.0737C49.1226 51.9288 49.0375 53.8525 48.9727 55.7409C48.9282 57.0481 47.7452 58.0719 46.4454 58.0904C44.3978 58.12 42.3482 58.0941 40.3005 58.0923C40.2987 56.3815 40.3061 54.6708 40.2857 52.9601C40.2802 52.5176 40.4487 52.2121 40.8412 52.0862C41.204 51.9696 41.2577 51.7363 41.1929 51.4438C40.9967 50.5699 40.8356 49.6812 40.5579 48.8332C39.6211 45.9709 37.9862 43.553 35.7479 41.5478C35.3091 41.1553 34.7925 40.8499 34.313 40.5036L34.176 40.2722V40.2704Z" fill="#6AA8FE"/>
<path id="Vector_5" d="M17.2686 35.4456C16.8242 35.5141 16.378 35.5844 15.9337 35.6529C13.9619 35.5604 12.1753 35.0123 10.7348 33.5775C8.58903 31.4428 7.94844 28.3694 9.16668 25.5941C10.085 23.502 10.5793 21.3339 10.6052 19.0548C10.7922 19.414 10.9459 19.7954 11.1736 20.1286C11.7939 21.0395 12.6603 21.532 13.7768 21.5431C14.1137 21.5468 14.4525 21.5542 14.7895 21.5431C15.0839 21.5339 15.2116 21.6413 15.2598 21.956C15.6652 24.7054 16.9908 26.9067 19.2218 28.5712C19.3959 28.7008 19.5366 28.9933 19.5421 29.2136C19.5736 30.3393 19.5606 31.465 19.5551 32.5925C19.5495 34.0848 18.7293 35.1049 17.2704 35.4437L17.2686 35.4456Z" fill="#FECE78"/>
<path id="Vector_6" d="M34.3111 40.5017C34.7924 40.8479 35.3071 41.1534 35.7459 41.5459C37.9843 43.551 39.6191 45.9709 40.5559 48.8313C40.8337 49.6811 40.9947 50.568 41.191 51.4419C41.2576 51.7344 41.2021 51.9677 40.8392 52.0843C40.4467 52.2102 40.2782 52.5157 40.2838 52.9582C40.306 54.6689 40.2967 56.3796 40.2986 58.0904C38.3694 58.0904 36.4402 58.0904 34.4906 58.0904C34.4295 52.1935 34.3685 46.3467 34.3092 40.4999L34.3111 40.5017Z" fill="#6AA8FE"/>
<path id="Vector_7" d="M34.0667 35.6602C33.6427 35.5973 33.2187 35.5343 32.7948 35.4714C31.3081 35.2511 30.3657 34.1643 30.3527 32.6591C30.3435 31.5167 30.3342 30.3744 30.325 29.232C31.1729 29.2506 31.8191 28.8951 32.2764 28.186C33.1188 28.1897 33.9612 28.2064 34.8036 28.1971C36.3366 28.1804 37.614 26.9807 37.677 25.4533C37.7159 24.4998 37.6733 23.5444 37.6677 22.5891C38.5194 22.3373 39.1211 21.8059 39.4599 20.9821C39.5988 22.5317 40.0672 23.9851 40.6819 25.407C42.326 29.2061 40.7726 33.3941 37.0605 34.9882C36.1348 35.3844 35.0665 35.4455 34.063 35.6621L34.0667 35.6602Z" fill="#FECE78"/>
<path id="Vector_8" d="M39.4599 20.9821C39.1211 21.806 38.5194 22.3373 37.6677 22.5891C37.1216 22.6262 36.5754 22.6613 36.0292 22.6984C35.533 22.6873 35.0368 22.6762 34.5406 22.6669C34.611 20.3415 34.6832 18.018 34.748 15.6925C34.7647 15.0908 34.7573 14.491 34.761 13.8893C35.3053 13.8855 35.8515 13.9115 36.3939 13.8744C37.5937 13.7911 38.5638 14.1873 39.2859 15.1612C39.4044 15.7981 39.5877 16.4294 39.6284 17.0719C39.6876 17.9865 39.6599 18.9085 39.6339 19.8268C39.6228 20.2138 39.521 20.5989 39.4599 20.9839V20.9821Z" fill="#B22322"/>
<path id="Vector_9" d="M7.91698 58.0923C7.91513 56.4001 7.90772 54.7079 7.91142 53.0157C7.91142 52.4066 8.24098 52.0196 8.74087 52.0066C9.25557 51.9937 9.61104 52.3992 9.61104 53.0157C9.61104 54.7079 9.60734 56.4001 9.60364 58.0923C9.0408 58.0923 8.47981 58.0923 7.91698 58.0923Z" fill="#6AA8FE"/>
<path id="Vector_10" d="M32.2763 28.186C31.819 28.8951 31.1729 29.2506 30.3249 29.2321C29.5751 29.2247 28.8271 29.221 28.0773 29.2099C26.959 29.1951 26.1351 28.4249 26.1258 27.388C26.1147 26.3809 26.8997 25.5885 28.0014 25.5496C28.8623 25.5181 29.725 25.5366 30.586 25.5459C31.3247 25.5533 31.8542 25.931 32.2541 26.5253C32.2615 27.0789 32.2689 27.6324 32.2782 28.1842L32.2763 28.186Z" fill="#B22322"/>
<path id="Vector_11" d="M32.2764 28.186C32.269 27.6324 32.2616 27.0788 32.2523 26.5271C32.5652 26.5216 32.8763 26.5179 33.1891 26.5123C33.6761 26.5179 34.163 26.5327 34.6499 26.529C35.522 26.5197 36.0033 26.0439 36.0163 25.1719C36.0292 24.348 36.0255 23.5241 36.0292 22.6983C36.5754 22.6613 37.1216 22.6261 37.6678 22.5891C37.6733 23.5445 37.7159 24.4998 37.677 25.4533C37.6141 26.9807 36.3366 28.1804 34.8036 28.1971C33.9612 28.2064 33.1188 28.1916 32.2764 28.186Z" fill="#130C56"/>
<path id="Vector_12" d="M36.0293 22.6983C36.0255 23.5222 36.0293 24.348 36.0163 25.1719C36.0033 26.0439 35.522 26.5197 34.6499 26.529C34.163 26.5345 33.6761 26.5179 33.1892 26.5123C33.1632 26.3364 33.0633 26.1309 33.1206 25.9902C33.5761 24.8756 34.063 23.774 34.5388 22.6669C35.035 22.678 35.5312 22.6891 36.0274 22.6983H36.0293Z" fill="#E6A561"/>
</g>
</g>
</g>
</g>
<defs>
<clipPath id="clip0_49_3259">
<rect width="48.2262" height="57.7759" fill="white" transform="translate(0.811279 0.329346)"/>
</clipPath>
</defs>
</svg>
