<svg width="63" height="53" viewBox="0 0 63 53" fill="none" xmlns="http://www.w3.org/2000/svg">
<g id="&#208;&#160;&#208;&#181;&#209;&#129;&#209;&#131;&#209;&#128;&#209;&#129; 6" clip-path="url(#clip0_48_2992)">
<g id="b">
<g id="c">
<g id="Group">
<path id="Vector" d="M5.69421 46.4582C5.67842 46.2513 5.64841 46.0459 5.64683 45.839C5.64525 35.5964 5.64999 25.3538 5.64209 15.1112C5.64209 12.9537 6.58343 11.4548 8.55772 10.5387C15.5751 7.2772 22.5831 3.9983 29.58 0.694131C31.1278 -0.0371461 32.5935 -0.0387255 34.1366 0.687813C41.1035 3.97145 48.0798 7.23929 55.0657 10.4803C57.1142 11.4311 58.0792 12.9663 58.0761 15.2154C58.0618 25.4059 58.0745 35.5948 58.0761 45.7853C58.0761 46.0096 58.0461 46.2323 58.0303 46.4566C57.9876 46.4597 57.9434 46.4629 57.9007 46.4661H50.3605C50.3321 46.4597 50.3037 46.4534 50.2768 46.4487C50.2721 46.2402 50.2642 46.0317 50.2642 45.8232C50.2642 38.0951 50.2642 30.3653 50.2642 22.6372C50.2642 22.4113 50.2531 22.1855 50.2468 21.9596C50.2531 21.2804 50.2168 20.5981 50.2737 19.9237C50.3905 18.5638 49.2391 17.4551 47.8019 17.4598C37.177 17.4977 26.5538 17.4803 15.9289 17.4803C15.7899 17.4803 15.6494 17.4756 15.5104 17.4819C14.4664 17.5309 13.5077 18.4627 13.4745 19.5052C13.4492 20.3233 13.4792 21.1415 13.484 21.9596C13.4777 22.1855 13.4666 22.4113 13.4666 22.6372C13.4666 29.2345 13.4666 35.8317 13.4666 42.429C13.4666 43.7684 13.4587 45.1093 13.454 46.4487C13.4255 46.4534 13.3987 46.4597 13.3702 46.4661C10.8574 46.4661 8.34292 46.4661 5.83004 46.4661L5.69895 46.4566L5.69421 46.4582ZM34.6815 9.12356C34.5789 7.50306 33.4464 6.29006 31.8449 6.32164C30.2054 6.35323 29.0919 7.48569 29.0682 9.10618C29.0445 10.7251 30.2765 11.9397 31.8764 11.9065C33.5175 11.8733 34.5315 10.7409 34.6815 9.12198V9.12356Z" fill="#FEBB42"/>
<path id="Vector_2" d="M13.3655 46.4677C13.394 46.4614 13.4208 46.455 13.4492 46.4503C15.6873 46.4503 17.9238 46.4503 20.1618 46.4487C23.8893 46.4487 27.6152 46.4487 31.3426 46.4471C31.6885 46.4471 32.036 46.4471 32.3819 46.4471C36.1093 46.4471 39.8352 46.4471 43.5627 46.4487H50.2753C50.3037 46.455 50.3321 46.4614 50.3605 46.4677C50.4948 46.4914 50.6291 46.5356 50.7633 46.5356C53.0093 46.5403 55.2536 46.5403 57.4996 46.5356C57.6338 46.5356 57.7681 46.4914 57.9023 46.4677C57.945 46.4645 57.9892 46.4614 58.0318 46.4582C58.0366 47.6744 58.114 48.8953 58.0255 50.1051C57.9434 51.2297 57.0542 51.972 55.9233 52.0573C55.7496 52.0699 55.5758 52.0636 55.4005 52.0636C39.7104 52.0636 24.0188 52.0636 8.32872 52.0636C6.49816 52.0636 5.64527 51.2123 5.65159 49.377C5.65474 48.4041 5.68159 47.4311 5.69739 46.4582C5.74161 46.4614 5.78426 46.4645 5.82848 46.4677C5.96273 46.4914 6.09698 46.5356 6.23124 46.5356C8.47719 46.5403 10.7216 46.5403 12.9675 46.5356C13.1018 46.5356 13.236 46.4914 13.3703 46.4677H13.3655Z" fill="#130C56"/>
<path id="Vector_3" d="M50.2734 46.4502C48.0354 46.4502 45.7989 46.4502 43.5609 46.4486C43.564 43.8916 43.5703 41.3345 43.5672 38.7774C43.5656 37.3796 42.6069 36.4335 41.1965 36.424C40.1351 36.4162 39.0753 36.413 38.0139 36.4083C38.0076 36.0592 38.0013 35.7086 37.9966 35.3595C38.0013 33.112 38.025 30.8645 38.0013 28.617C37.9887 27.3661 37.0315 26.4105 35.7538 26.3947C33.1588 26.3647 30.5622 26.3647 27.9673 26.3947C26.6911 26.4089 25.7308 27.3692 25.7197 28.617C25.6976 30.8645 25.7197 33.112 25.7261 35.3595L25.7087 36.4083C24.6126 36.413 23.518 36.4083 22.4219 36.4256C21.1442 36.4446 20.1618 37.4112 20.157 38.6716C20.1475 41.2634 20.1586 43.8552 20.1618 46.4471C17.9237 46.4471 15.6873 46.4471 13.4492 46.4486C13.454 45.1093 13.4619 43.7684 13.4619 42.429C13.4619 35.8318 13.4619 29.2345 13.4619 22.6373C13.4619 22.4114 13.4729 22.1856 13.4792 21.9597C16.5086 21.9613 19.5363 21.966 22.5656 21.966C31.791 21.966 41.0148 21.9629 50.2402 21.9597C50.2466 22.1856 50.2576 22.4114 50.2576 22.6373C50.2576 30.3654 50.2576 38.0951 50.2576 45.8232C50.2576 46.0317 50.2655 46.2402 50.2702 46.4486L50.2734 46.4502Z" fill="#F4F6FC"/>
<path id="Vector_4" d="M50.2418 21.9596C41.0164 21.9612 31.7926 21.9644 22.5672 21.9659C19.5379 21.9659 16.5101 21.9628 13.4808 21.9596C13.4761 21.1415 13.4445 20.3218 13.4713 19.5052C13.5045 18.4628 14.4632 17.5309 15.5072 17.482C15.6462 17.4756 15.7852 17.4804 15.9257 17.4804C26.5505 17.4804 37.1737 17.4978 47.7985 17.4599C49.2357 17.4551 50.3871 18.5639 50.2702 19.9238C50.2118 20.5982 50.2481 21.2805 50.2434 21.9596H50.2418Z" fill="#130C56"/>
<path id="Vector_5" d="M34.6815 9.12355C34.5314 10.7425 33.5174 11.8765 31.8764 11.9081C30.2765 11.9397 29.0445 10.7251 29.0682 9.10775C29.0919 7.48727 30.2054 6.35482 31.8448 6.32323C33.4448 6.29165 34.5788 7.50464 34.6815 9.12513V9.12355Z" fill="#B22322"/>
<path id="Vector_6" d="M13.3655 46.4677C13.2312 46.4913 13.097 46.5356 12.9627 46.5356C10.7168 46.5403 8.47242 46.5403 6.22648 46.5356C6.09223 46.5356 5.95798 46.4913 5.82373 46.4677C8.33659 46.4677 10.851 46.4677 13.3639 46.4677H13.3655Z" fill="#9D9D9D"/>
<path id="Vector_7" d="M57.8991 46.4677C57.7648 46.4913 57.6306 46.5356 57.4963 46.5356C55.2504 46.5403 53.0061 46.5403 50.7601 46.5356C50.6259 46.5356 50.4916 46.4913 50.3574 46.4677C52.8702 46.4677 55.3847 46.4677 57.8975 46.4677H57.8991Z" fill="#9D9D9D"/>
<path id="Vector_8" d="M20.1618 46.4487C20.1587 43.8568 20.1476 41.265 20.1571 38.6732C20.1618 37.4112 21.1442 36.4446 22.422 36.4272C23.5181 36.4115 24.6126 36.4146 25.7087 36.4099C27.3987 36.4099 29.0871 36.4272 30.7755 36.3957C31.2541 36.3862 31.3504 36.5457 31.3473 36.9911C31.3299 40.1436 31.341 43.2961 31.341 46.4487C27.6135 46.4487 23.8877 46.4487 20.1602 46.4502L20.1618 46.4487Z" fill="#FEBB42"/>
<path id="Vector_9" d="M38.0141 36.4083C39.0755 36.413 40.1353 36.4162 41.1966 36.4241C42.607 36.4336 43.5658 37.3796 43.5673 38.7774C43.5705 41.3345 43.5642 43.8916 43.561 46.4487C39.8336 46.4487 36.1077 46.4487 32.3803 46.4487C32.3803 43.2962 32.3914 40.1436 32.374 36.9911C32.3724 36.5473 32.4672 36.3878 32.9457 36.3957C34.6341 36.4273 36.3241 36.4083 38.0125 36.4099L38.0141 36.4083Z" fill="#FEBB42"/>
<path id="Vector_10" d="M38.0141 36.4084C36.3241 36.4084 34.6357 36.4257 32.9473 36.3941C32.4687 36.3847 32.3724 36.5442 32.3755 36.9896C32.3929 40.1421 32.3819 43.2946 32.3819 46.4471C32.036 46.4471 31.6885 46.4471 31.3426 46.4471C31.3426 43.2946 31.3315 40.1421 31.3489 36.9896C31.3505 36.5458 31.2557 36.3862 30.7772 36.3941C29.0888 36.4257 27.3988 36.4068 25.7104 36.4084C25.7167 36.0593 25.723 35.7087 25.7278 35.3596C29.8185 35.3596 33.9076 35.3596 37.9983 35.3596C38.0046 35.7087 38.0109 36.0593 38.0157 36.4084H38.0141Z" fill="#F4F6FC"/>
<path id="Vector_11" d="M37.9967 35.3595C33.906 35.3595 29.8168 35.3595 25.7261 35.3595C25.7214 33.112 25.6993 30.8645 25.7198 28.6169C25.7325 27.3692 26.6928 26.4105 27.9673 26.3947C30.5623 26.3647 33.1589 26.3647 35.7539 26.3947C37.0301 26.4105 37.9872 27.366 38.0014 28.6169C38.0251 30.8645 38.0014 33.112 37.9967 35.3595Z" fill="#FEBB42"/>
</g>
</g>
</g>
</g>
<defs>
<clipPath id="clip0_48_2992">
<rect width="62.7383" height="51.9199" fill="white" transform="translate(0 0.145264)"/>
</clipPath>
</defs>
</svg>
