<svg width="42" height="59" viewBox="0 0 42 59" fill="none" xmlns="http://www.w3.org/2000/svg">
<g id="&#208;&#160;&#208;&#181;&#209;&#129;&#209;&#131;&#209;&#128;&#209;&#129; 9" clip-path="url(#clip0_49_3321)">
<g id="b">
<g id="c">
<g id="Group">
<path id="Vector" d="M22.6768 40.4257C22.3079 40.3888 21.9389 40.3169 21.57 40.3224C20.8211 40.3353 20.074 40.3888 19.3269 40.4257C18.8731 40.3113 18.4249 40.1582 17.9637 40.09C15.5435 39.7266 13.2561 38.9684 11.1458 37.7306C10.1036 37.1201 9.11857 36.4117 8.10769 35.7476C7.36245 34.9913 6.58585 34.2645 5.87935 33.475C3.32818 30.6176 1.75285 27.2899 1.11459 23.5046C0.815759 21.7338 0.75304 19.9592 0.917215 18.1865C1.1109 16.1039 1.63294 14.0877 2.47411 12.1637C3.44809 9.93164 4.77071 7.92281 6.46041 6.17592C8.51905 4.04718 10.9024 2.3501 13.7136 1.38349C15.3314 0.828252 17.0377 0.529417 18.7034 0.112524C18.7883 0.0903883 18.8657 0.0387378 18.9451 0H22.9424C23.4534 0.101456 23.9625 0.215825 24.4753 0.300679C27.9433 0.872524 31.0294 2.3132 33.7411 4.51572C35.9141 6.28106 37.6536 8.42456 38.9338 10.9314C39.8118 12.6488 40.4667 14.4418 40.8098 16.3363C41.5772 20.5698 41.1308 24.6612 39.3249 28.5941C38.2568 30.9202 36.7774 32.9419 34.9641 34.7331C34.6136 35.078 34.2502 35.4101 33.8923 35.7495C33.7337 35.8509 33.5658 35.9395 33.4164 36.0539C30.5941 38.2047 27.4582 39.6159 23.922 40.101C23.4977 40.1601 23.0882 40.3169 22.6713 40.4275L22.6768 40.4257ZM3.87051 20.116C3.86313 29.6713 11.4465 37.2953 20.9705 37.3101C30.4908 37.3248 38.0096 29.782 38.1277 20.4075C38.2494 10.6345 30.5092 3.01602 21.0055 3.01417C11.5332 3.01417 3.92401 10.5441 3.87051 20.116Z" fill="#FED180"/>
<path id="Vector_2" d="M8.10738 35.7494C9.11821 36.4134 10.1032 37.1217 11.1454 37.7323C13.2556 38.97 15.541 39.7281 17.9629 40.0915C18.424 40.1598 18.8723 40.3129 19.326 40.4272C17.7434 45.0202 16.1608 49.6132 14.5781 54.2061C14.1945 55.3184 13.8108 56.4325 13.4363 57.5485C13.2814 58.0096 13.0416 58.3786 12.5233 58.4597C12.0197 58.5372 11.7061 58.2347 11.4313 57.8731C10.4979 56.6483 9.55352 55.4309 8.63677 54.1932C8.41174 53.887 8.20699 53.8077 7.83439 53.911C6.37164 54.3187 4.89783 54.682 3.4314 55.0768C2.94997 55.2059 2.49805 55.2705 2.11438 54.8554C1.72702 54.4349 1.85799 53.9885 2.01662 53.5236C3.76158 48.4622 5.50101 43.3988 7.24044 38.3355C7.53557 37.4759 7.81963 36.6126 8.10738 35.7494Z" fill="#B22322"/>
<path id="Vector_3" d="M22.6768 40.4254C23.0937 40.3147 23.5032 40.1561 23.9274 40.0989C27.4616 39.6138 30.5974 38.2027 33.4214 36.0519C33.5708 35.9376 33.7368 35.849 33.8973 35.7476C35.9319 41.6908 37.9664 47.634 40.0065 53.5753C40.1614 54.0272 40.2574 54.4552 39.8903 54.8536C39.5066 55.2686 39.0547 55.2041 38.5733 55.0749C37.1068 54.6821 35.633 54.3168 34.1703 53.9092C33.7977 53.8059 33.5948 53.8852 33.3679 54.1914C32.4751 55.3996 31.5658 56.5949 30.6379 57.7754C30.435 58.0336 30.1657 58.2937 29.8706 58.4173C29.3283 58.6423 28.8174 58.2531 28.5554 57.4913C27.5372 54.529 26.5209 51.5666 25.5027 48.6042C24.5638 45.8779 23.6212 43.1517 22.6805 40.4254H22.6768Z" fill="#B22322"/>
<path id="Vector_4" d="M3.87034 20.1157C3.92383 10.5438 11.533 3.01392 21.0054 3.01392C30.5109 3.01392 38.2492 10.6342 38.1275 20.4072C38.0094 29.7836 30.4906 37.3264 20.9703 37.3098C11.4464 37.2951 3.86296 29.6711 3.87034 20.1157ZM28.8562 7.19207C28.7326 7.14595 28.5998 7.11459 28.4873 7.05003C25.0747 5.12421 21.4555 4.59479 17.6333 5.44518C14.1635 6.21624 11.3541 8.04983 9.13684 10.7928C7.93227 12.2833 7.06713 13.9786 6.51558 15.8103C5.87179 17.9409 5.75189 20.1287 6.04334 22.3349C6.28868 24.1777 6.89742 25.9043 7.8013 27.5221C9.07596 29.8002 10.8321 31.619 13.0512 33.0081C15.3939 34.4764 17.9562 35.1866 20.6899 35.2788C22.5973 35.3434 24.4475 34.9763 26.2497 34.3288C28.7437 33.4342 30.8577 31.9585 32.5271 29.9459C35.3328 26.5647 36.506 22.6503 35.9711 18.2453C35.6501 15.6 34.6558 13.2444 33.0916 11.1083C32.8481 10.7762 32.6433 10.4184 32.4201 10.0716L33.0842 9.82993C31.1824 9.1843 29.9667 7.95022 29.4059 5.88974C29.1717 6.44314 29.013 6.81576 28.8544 7.19022L28.8562 7.19207Z" fill="#FEBB42"/>
<path id="Vector_5" d="M32.4237 10.0734C32.6469 10.4202 32.8517 10.7781 33.0952 11.1101C34.6594 13.2463 35.6537 15.6 35.9747 18.2471C36.5096 22.6503 35.3364 26.5647 32.5307 29.9478C30.8613 31.9603 28.7473 33.4342 26.2533 34.3307C24.4511 34.9782 22.6009 35.3453 20.6935 35.2807C17.9597 35.1885 15.3993 34.4783 13.0548 33.0099C10.8357 31.6191 9.07955 29.8021 7.80489 27.5239C6.90101 25.9061 6.29043 24.1795 6.04693 22.3367C5.75363 20.1305 5.87538 17.9428 6.51916 15.8122C7.07072 13.9823 7.93586 12.2852 9.14042 10.7947C11.3595 8.05169 14.169 6.2181 17.6369 5.44704C21.4591 4.59665 25.0783 5.12607 28.4909 7.05189C28.6053 7.11645 28.7362 7.14781 28.8598 7.19393C28.205 8.53131 27.0742 9.29315 25.6593 9.78198C27.5759 10.3649 28.7934 11.5934 29.3726 13.51C29.9187 11.8886 30.8355 10.6785 32.4255 10.0771L32.4237 10.0734ZM21.1012 8.09965C19.7859 8.10334 18.8286 8.69179 18.2364 9.87237C17.6314 11.0788 17.0356 12.2926 16.4158 13.4916C16.3235 13.6687 16.1335 13.8808 15.9564 13.9159C15.1798 14.069 14.3903 14.152 13.6082 14.2793C12.7707 14.4139 11.8945 14.4545 11.1105 14.7386C8.92275 15.5318 8.28081 18.2434 10.0683 19.9663C11.0404 20.9034 11.9886 21.8663 12.9312 22.8348C13.0732 22.9805 13.2282 23.2314 13.2005 23.4066C13.0013 24.7514 12.7818 26.0925 12.5198 27.4261C12.2708 28.6897 12.6582 29.7486 13.6045 30.5326C14.6191 31.3737 15.8089 31.4789 17.006 30.8867C18.2143 30.2891 19.4262 29.6877 20.5939 29.0144C21.0274 28.7654 21.3096 28.8687 21.6749 29.0624C22.9348 29.7246 24.1762 30.4311 25.4767 31.0011C27.4062 31.8478 29.7379 30.3536 29.653 28.1954C29.5977 26.81 29.2767 25.4321 29.0295 24.0578C28.9207 23.4472 28.9447 22.9805 29.4649 22.5157C30.4149 21.669 31.28 20.7263 32.1839 19.828C33.062 18.9536 33.2999 17.9077 32.955 16.7456C32.6211 15.6203 31.8445 14.864 30.7045 14.6353C29.2269 14.3364 27.7217 14.1704 26.233 13.9251C26.0596 13.8974 25.8401 13.7572 25.7645 13.6078C25.2129 12.525 24.6891 11.4274 24.1633 10.3298C23.5122 8.97033 22.6655 8.07936 21.1012 8.09965Z" fill="#FED180"/>
<path id="Vector_6" d="M21.1015 8.10172C22.6657 8.07958 23.5124 8.9724 24.1636 10.3319C24.6893 11.4276 25.2132 12.5252 25.7648 13.6099C25.8404 13.7593 26.0618 13.8995 26.2333 13.9272C27.7219 14.1725 29.2272 14.3385 30.7048 14.6373C31.8429 14.8679 32.6214 15.6224 32.9552 16.7476C33.3002 17.9098 33.0622 18.9557 32.1842 19.8301C31.2803 20.7284 30.4151 21.671 29.4651 22.5177C28.9431 22.9826 28.9191 23.4493 29.0298 24.0599C29.2751 25.4341 29.598 26.8121 29.6533 28.1974C29.7382 30.3557 27.4065 31.8499 25.477 31.0032C24.1765 30.4332 22.9351 29.7267 21.6752 29.0644C21.3099 28.8726 21.0258 28.7674 20.5942 29.0165C19.4265 29.6898 18.2164 30.2893 17.0063 30.8888C15.8091 31.4809 14.6193 31.3758 13.6048 30.5346C12.6585 29.7506 12.2729 28.6918 12.5201 27.4282C12.7821 26.0945 13.0016 24.7535 13.2008 23.4087C13.2266 23.2335 13.0735 22.9826 12.9315 22.8369C11.9888 21.8684 11.0407 20.9055 10.0686 19.9684C8.28108 18.2473 8.92303 15.5357 11.1108 14.7406C11.8966 14.4566 12.771 14.416 13.6085 14.2813C14.3906 14.154 15.1801 14.071 15.9567 13.9179C16.1338 13.8829 16.3238 13.6726 16.416 13.4937C17.0377 12.2946 17.6317 11.0827 18.2367 9.87444C18.8288 8.69386 19.7844 8.10541 21.1015 8.10172ZM23.8592 14.4123C23.232 13.121 22.6454 11.8076 21.9592 10.5459C21.5977 9.87997 20.6182 9.9058 20.192 10.5422C19.8987 10.9794 19.6663 11.4608 19.4376 11.9386C19.1037 12.634 18.7993 13.3442 18.482 14.0471C18.3086 14.3606 18.0854 14.6576 17.9711 14.9915C17.7571 15.6224 17.3254 15.8161 16.6983 15.8936C15.2004 16.0762 13.7154 16.3418 12.2213 16.5503C11.6826 16.6259 11.2842 16.8454 11.1182 17.3822C10.954 17.9135 11.2288 18.2861 11.5886 18.631C12.7654 19.7618 13.9423 20.8944 15.1008 22.0437C15.2557 22.1968 15.4052 22.4753 15.3793 22.6708C15.2502 23.643 15.0565 24.6059 14.896 25.5725C14.754 26.4284 14.5714 27.2825 14.5087 28.1439C14.4533 28.8966 15.3092 29.45 15.9678 29.1216C17.497 28.3579 19.0244 27.5905 20.5185 26.7623C20.9299 26.5354 21.2158 26.5225 21.6051 26.7328C23.0236 27.5002 24.4624 28.2306 25.8773 29.0035C26.3938 29.2858 26.8402 29.2692 27.2848 28.9002C27.6186 28.6069 27.7607 28.2786 27.6703 27.8008C27.3641 26.1886 27.1187 24.5653 26.8181 22.9531C26.7387 22.5288 26.8586 22.2613 27.1612 21.9772C28.2938 20.911 29.4006 19.819 30.5203 18.7399C30.928 18.347 31.1844 17.8895 31.0147 17.3158C30.8634 16.8048 30.4502 16.5853 29.9411 16.5152C28.6701 16.3418 27.401 16.1629 26.1318 15.9876C26.4233 15.8161 26.7166 15.6427 27.1169 15.4066C25.8865 15.0173 25.1376 14.2537 24.7631 13.1303C24.4348 13.5951 24.147 14.0009 23.8611 14.4086L23.8592 14.4123Z" fill="#130C56"/>
<path id="Vector_7" d="M27.284 28.9014C26.8394 29.2703 26.3931 29.2869 25.8766 29.0047C24.4618 28.2318 23.023 27.5014 21.6046 26.734C21.2154 26.5238 20.9276 26.5348 20.5181 26.7636C19.024 27.5918 17.4967 28.3591 15.9676 29.1228C15.309 29.4511 14.455 28.8977 14.5085 28.1451C14.5712 27.2837 14.7538 26.4297 14.8959 25.5738C15.0563 24.6054 15.25 23.6444 15.3791 22.6723C15.405 22.4749 15.2556 22.1983 15.1006 22.0452C13.9422 20.8941 12.7654 19.7634 11.5886 18.6327C11.2289 18.2859 10.954 17.9152 11.1182 17.3839C11.2842 16.8472 11.6826 16.6277 12.2212 16.552C13.7153 16.3417 15.2021 16.0761 16.698 15.8954C17.3233 15.8197 17.7568 15.6261 17.9708 14.9934C18.0833 14.6595 18.3065 14.3625 18.4817 14.049C20.0662 16.718 21.6507 19.3871 23.2333 22.0581C24.5854 24.3398 25.9338 26.6215 27.284 28.9051V28.9014Z" fill="#FEE59F"/>
<path id="Vector_8" d="M27.2843 28.9012C25.9341 26.6195 24.5857 24.3359 23.2337 22.0542C21.651 19.3832 20.0665 16.7141 18.4821 14.0451C18.7993 13.3423 19.1055 12.6321 19.4375 11.9367C19.6663 11.4608 19.8987 10.9794 20.192 10.5404C20.6181 9.904 21.5957 9.87817 21.9591 10.5441C22.6434 11.8039 23.23 13.1191 23.859 14.4103C23.3886 14.7755 22.9182 15.1407 22.3778 15.5613C23.5823 15.8435 24.2205 16.6975 24.6097 17.6254C25.1336 17.0609 25.6316 16.5242 26.1315 15.9874C27.4005 16.1645 28.6715 16.3415 29.9405 16.5149C30.4496 16.585 30.8628 16.8027 31.0141 17.3155C31.1819 17.8891 30.9255 18.3466 30.5197 18.7395C29.4001 19.8185 28.2933 20.9124 27.1607 21.9767C26.8582 22.2608 26.7383 22.5282 26.8177 22.9525C27.1183 24.5646 27.3637 26.1897 27.6698 27.8C27.7602 28.2759 27.62 28.6042 27.2843 28.8994V28.9012Z" fill="#FEE59F"/>
</g>
</g>
</g>
</g>
<defs>
<clipPath id="clip0_49_3321">
<rect width="40.3427" height="58.4831" fill="white" transform="translate(0.828674)"/>
</clipPath>
</defs>
</svg>
