<svg width="51" height="50" viewBox="0 0 51 50" fill="none" xmlns="http://www.w3.org/2000/svg">
<g id="&#208;&#160;&#208;&#181;&#209;&#129;&#209;&#131;&#209;&#128;&#209;&#129; 7" clip-path="url(#clip0_49_3302)">
<g id="b">
<g id="c">
<g id="Group">
<path id="Vector" d="M47.6661 5.72968C48.4951 6.08296 49.3277 6.42558 50.1479 6.79484C50.3627 6.8907 50.5367 7.07533 50.7284 7.21913V7.81207C50.0769 9.28376 49.4147 10.7501 48.7738 12.2271C47.4175 15.3516 46.0719 18.4814 44.7209 21.6076C44.4795 22.1633 44.0836 22.3657 43.6469 22.1686C43.2031 21.968 43.0788 21.5455 43.3184 20.9916C45.1044 16.8517 46.8903 12.7118 48.678 8.57188C48.9301 7.98959 48.907 7.92746 48.3424 7.68247C47.9199 7.49962 47.4974 7.31677 47.0749 7.13392C47.272 6.66525 47.469 6.19658 47.6643 5.72791L47.6661 5.72968Z" fill="#130C56"/>
<path id="Vector_2" d="M30.7567 49.2433C21.5306 49.2433 12.3063 49.2433 3.08027 49.2433C1.48431 49.2433 0.104931 47.8248 0.103156 46.1791C0.0996052 41.4676 0.103156 36.756 0.103156 32.0445C0.103156 22.5877 0.103156 13.1326 0.103156 3.67576C0.101381 1.87564 1.44526 0.499813 3.23117 0.498038C12.3738 0.494487 21.5182 0.498038 30.6608 0.498038C31.6265 0.837114 32.523 1.28448 32.8941 2.32479C33.0663 2.81121 33.2101 3.33846 33.2118 3.84974C33.2349 9.31933 33.226 14.7907 33.226 20.2603C33.226 20.4733 33.2385 20.6881 33.2456 20.9012C33.2012 21.0414 33.1657 21.1852 33.1089 21.3201C30.9289 26.3761 28.7435 31.4285 26.5653 36.4844C26.0984 37.5691 25.6545 38.6645 25.2018 39.7545C25.1734 39.9267 25.1202 40.1006 25.122 40.2711C25.1468 41.8422 25.1823 43.4133 25.2143 44.9844C25.1876 45.4247 25.1468 45.8632 25.1344 46.3034C25.1202 46.8094 25.3243 47.2053 25.8108 47.3988C26.2688 47.5816 26.6221 47.3828 26.9576 47.0615C27.8115 46.2431 28.6902 45.4513 29.5495 44.6382C30.288 43.9388 31.0105 43.2233 31.7419 42.5168C32.2106 41.4658 32.6793 40.4149 33.1479 39.3639C33.1746 39.4544 33.2225 39.5468 33.2225 39.6373C33.226 41.8369 33.2598 44.0364 33.2012 46.2324C33.187 46.7739 32.9402 47.3402 32.6864 47.8372C32.2923 48.6077 31.5289 48.9486 30.7567 49.2397V49.2433ZM18.2002 4.74092V4.7498C15.6314 4.7498 13.0626 4.7498 10.4938 4.7498C9.88842 4.7498 9.69491 4.9291 9.69136 5.48476C9.68604 6.25877 9.68604 7.03279 9.69136 7.8068C9.69491 8.35536 9.85468 8.52223 10.3944 8.52401C15.5302 8.55064 20.666 8.57372 25.8019 8.59502C26.4534 8.5968 26.6842 8.35713 26.6877 7.69496C26.6931 7.00261 26.6931 6.31203 26.6877 5.61968C26.6824 4.92732 26.4925 4.74092 25.809 4.74092C23.2721 4.74092 20.7371 4.74092 18.2002 4.74092ZM18.1984 12.4669C14.0958 12.4669 9.99138 12.4669 5.88874 12.4669C5.27273 12.4669 4.9443 12.742 4.94608 13.232C4.94608 13.7291 5.26918 14.0043 5.87454 14.0238C5.9562 14.0273 6.03964 14.0238 6.1213 14.0238C14.1633 14.0238 22.2034 14.0238 30.2454 14.022C30.4566 14.022 30.7318 14.0575 30.8649 13.9439C31.094 13.7504 31.3815 13.4433 31.3691 13.2001C31.3549 12.9515 31.0283 12.6941 30.7939 12.4971C30.6945 12.4136 30.4762 12.4669 30.3111 12.4669C26.2741 12.4669 22.2372 12.4669 18.2002 12.4669H18.1984ZM18.1487 17.2991C14.1295 17.2991 10.1103 17.2991 6.08935 17.2991C5.30291 17.2991 4.94253 17.5388 4.94608 18.0536C4.94963 18.5702 5.30468 18.801 6.1 18.801C14.1562 18.801 22.2105 18.801 30.2667 18.801C30.4478 18.801 30.6342 18.8188 30.8081 18.7779C31.2022 18.6892 31.378 18.4158 31.3673 18.0181C31.3567 17.6382 31.1685 17.395 30.7993 17.3151C30.6413 17.2814 30.4708 17.2974 30.3075 17.2974C26.2546 17.2974 22.2034 17.2974 18.1505 17.2974L18.1487 17.2991ZM15.0864 23.6297C18.0671 23.6297 21.0495 23.6297 24.0302 23.6297C24.1775 23.6297 24.3266 23.6368 24.474 23.6226C24.9018 23.5836 25.1859 23.2978 25.161 22.9214C25.1433 22.6533 24.8841 22.3729 24.671 22.158C24.5716 22.0569 24.3284 22.0746 24.1509 22.0746C18.1061 22.0711 12.0613 22.0711 6.01479 22.0746C5.83549 22.0746 5.65263 22.0924 5.48043 22.1385C5.11118 22.2344 4.9514 22.5007 4.9443 22.8717C4.9372 23.2605 5.16088 23.4842 5.50174 23.5925C5.65263 23.6404 5.82661 23.6297 5.98993 23.6297C9.02031 23.6315 12.0507 23.6297 15.0828 23.6297H15.0864ZM13.2099 43.3334C15.2071 43.2997 16.4516 42.5949 17.3516 41.2617C17.6587 40.8072 17.5931 40.3669 17.2007 40.1006C16.8137 39.8379 16.4356 39.9355 16.1072 40.3794C16.0095 40.5107 15.919 40.651 15.8089 40.7717C15.161 41.4711 14.3869 41.828 13.4052 41.7641C12.5975 41.7126 12.1039 41.1729 11.5767 40.6954C9.53514 38.8473 6.43552 39.3053 5.05792 41.686C4.94785 41.8759 4.87507 42.1848 4.95318 42.3641C5.04904 42.586 5.32243 42.8736 5.51771 42.8736C5.79288 42.8718 6.17989 42.705 6.32546 42.4813C7.39949 40.8321 9.4446 40.6599 10.7601 42.0144C11.511 42.7884 12.4164 43.376 13.2099 43.3298V43.3334ZM9.40909 28.4034C10.6092 28.4034 11.811 28.4052 13.0111 28.4034C13.604 28.4034 13.9325 28.1478 13.9467 27.6951C13.9609 27.2087 13.6182 26.9033 13.0306 26.9033C10.6465 26.8998 8.2605 26.8998 5.87632 26.9033C5.27805 26.9033 4.9443 27.1909 4.94785 27.6809C4.9514 28.1638 5.24255 28.4016 5.85679 28.4034C7.04089 28.407 8.22499 28.4034 9.40909 28.4034Z" fill="#E9F5FE"/>
<path id="Vector_3" d="M25.2019 39.7562C25.6563 38.6662 26.0984 37.5708 26.5653 36.4862C28.7435 31.4302 30.9289 26.376 33.1089 21.3218C33.1675 21.1869 33.2012 21.0431 33.2456 20.9029C33.4959 20.3881 33.7462 19.8732 33.9983 19.3584C34.2415 19.4525 34.4901 19.5395 34.7297 19.6424C36.6683 20.4786 38.6033 21.3165 40.5402 22.1544C39.5389 24.4889 38.5377 26.8252 37.54 29.1614C37.1476 30.081 36.7659 31.0041 36.3789 31.9255C35.3014 34.4073 34.2238 36.8874 33.148 39.3692C32.6793 40.4201 32.2106 41.4711 31.7419 42.5221C30.8472 42.1634 29.9525 41.8031 29.0595 41.4445C27.7742 40.8835 26.4889 40.3207 25.2036 39.7597L25.2019 39.7562Z" fill="#130C56"/>
<path id="Vector_4" d="M40.5419 22.1545C38.6051 21.3166 36.6683 20.4786 34.7315 19.6425C34.4918 19.5395 34.2433 19.4525 34.0001 19.3584C34.0338 19.2501 34.0569 19.1365 34.1013 19.0318C34.8931 17.1979 35.6866 15.3659 36.4784 13.5338C37.8719 10.301 39.262 7.06828 40.6573 3.83908C40.9574 3.14317 41.2006 3.04021 41.9302 3.24259C42.0243 3.26922 42.1237 3.27099 42.2213 3.28342C42.4947 3.42544 42.761 3.58166 43.0415 3.70593C43.6948 3.99352 44.3552 4.26514 45.0298 4.55096C45.2943 3.93494 45.5127 3.36863 45.779 2.82717C46.308 1.75136 46.2334 0.74834 45.4896 -0.197876C46.9773 -0.0860343 48.0176 1.38211 47.5578 2.78989C47.2933 3.59586 46.9222 4.3681 46.5867 5.18295C46.9471 5.3658 47.3075 5.54511 47.6661 5.72618C47.469 6.19485 47.272 6.66352 47.0767 7.13219C46.1536 9.25186 45.2304 11.3697 44.3073 13.4894C43.0522 16.376 41.7971 19.2626 40.5419 22.1492V22.1545Z" fill="#6AA8FE"/>
<path id="Vector_5" d="M36.4783 13.5337C35.6848 15.3658 34.8912 17.1979 34.1013 19.0317C34.0569 19.1364 34.0338 19.2483 34.0001 19.3583C33.7498 19.8732 33.4977 20.388 33.2474 20.9028C33.2403 20.6898 33.2278 20.475 33.2278 20.262C33.2278 14.7906 33.2349 9.321 33.2136 3.85141C33.2118 3.34191 33.0681 2.81288 32.8959 2.32646C32.5248 1.28615 31.6283 0.84056 30.6626 0.499709C31.5023 0.499709 32.3402 0.496158 33.1799 0.497934C35.0421 0.499709 36.3913 1.83826 36.3913 3.68986C36.3913 6.78415 36.3913 9.87666 36.3949 12.9709C36.3949 13.1591 36.4482 13.3473 36.4783 13.5355V13.5337Z" fill="#C7EEFD"/>
<path id="Vector_6" d="M33.1479 39.3674C34.2255 36.8856 35.3031 34.4055 36.3789 31.9237C36.3825 36.724 36.4002 41.5261 36.3825 46.3264C36.3771 47.9046 34.9534 49.2379 33.3716 49.2432C32.5 49.245 31.6283 49.2432 30.7567 49.2432C31.5307 48.952 32.294 48.6112 32.6864 47.8407C32.9402 47.3437 33.187 46.7773 33.2012 46.2359C33.258 44.0381 33.226 41.8386 33.2225 39.6408C33.2225 39.5502 33.1728 39.4579 33.1479 39.3674Z" fill="#C7EEFD"/>
<path id="Vector_7" d="M45.4898 -0.196168C46.2337 0.75012 46.3083 1.75322 45.7792 2.82911C45.5129 3.37061 45.2963 3.93874 45.03 4.55303C44.3554 4.26719 43.6949 3.99555 43.0416 3.70794C42.7611 3.58366 42.4947 3.42742 42.2213 3.28539C42.5231 2.57523 42.7966 1.85087 43.1321 1.15669C43.6026 0.181992 44.4051 -0.265409 45.4898 -0.196168Z" fill="#C7EEFD"/>
<path id="Vector_8" d="M18.2002 4.74084C20.7371 4.74084 23.2722 4.74084 25.809 4.74084C26.4925 4.74084 26.6807 4.92725 26.6878 5.6196C26.6931 6.31195 26.6931 7.00253 26.6878 7.69489C26.6824 8.35706 26.4534 8.5985 25.8019 8.59494C20.6661 8.57364 15.5302 8.55056 10.3944 8.52393C9.85648 8.52038 9.69671 8.35351 9.69138 7.80673C9.68605 7.03271 9.68605 6.2587 9.69138 5.48468C9.69493 4.92902 9.88843 4.7515 10.4938 4.74972C13.0626 4.74795 15.6314 4.74972 18.2002 4.74972V4.74084Z" fill="#9FACBA"/>
<path id="Vector_9" d="M18.1984 12.4668C22.2354 12.4668 26.2724 12.4668 30.3093 12.4668C30.4744 12.4668 30.6928 12.4136 30.7922 12.497C31.0283 12.6941 31.3532 12.9515 31.3674 13.2C31.3816 13.4432 31.0922 13.7503 30.8632 13.9438C30.73 14.0575 30.4549 14.022 30.2436 14.022C22.2017 14.0255 14.1615 14.0237 6.11955 14.0237C6.03788 14.0237 5.95445 14.0255 5.87278 14.0237C5.26742 14.0042 4.9461 13.7273 4.94432 13.232C4.94432 12.742 5.27274 12.4668 5.88699 12.4668C9.98962 12.465 14.094 12.4668 18.1967 12.4668H18.1984Z" fill="#9FACBA"/>
<path id="Vector_10" d="M18.147 17.2974C22.1999 17.2974 26.251 17.2974 30.304 17.2974C30.4691 17.2974 30.6377 17.2814 30.7957 17.3151C31.165 17.3932 31.3549 17.6382 31.3638 18.0181C31.3744 18.4158 31.1987 18.6892 30.8046 18.7779C30.6306 18.817 30.4442 18.7992 30.2631 18.801C22.207 18.801 14.1526 18.801 6.09645 18.801C5.30291 18.801 4.94608 18.5702 4.94253 18.0536C4.93898 17.537 5.29936 17.2991 6.0858 17.2991C10.105 17.2991 14.1242 17.2991 18.1452 17.2991L18.147 17.2974Z" fill="#9FACBA"/>
<path id="Vector_11" d="M15.0847 23.6297C12.0543 23.6297 9.0239 23.6297 5.99175 23.6297C5.82842 23.6297 5.65445 23.6403 5.50355 23.5924C5.1627 23.4841 4.93902 23.2604 4.94612 22.8717C4.95322 22.5024 5.11299 22.2343 5.48225 22.1385C5.65445 22.0941 5.83908 22.0746 6.0166 22.0746C12.0614 22.071 18.1062 22.071 24.1527 22.0746C24.3302 22.0746 24.5717 22.0568 24.6729 22.158C24.8859 22.3728 25.1451 22.6533 25.1628 22.9214C25.1877 23.2977 24.9019 23.5835 24.4758 23.6226C24.3285 23.6368 24.1793 23.6297 24.032 23.6297C21.0513 23.6297 18.0689 23.6297 15.0882 23.6297H15.0847Z" fill="#9FACBA"/>
<path id="Vector_12" d="M13.2088 43.3319C12.4152 43.378 11.5097 42.7904 10.7588 42.0163C9.44318 40.6599 7.39792 40.8339 6.32381 42.4832C6.17822 42.7069 5.79119 42.8738 5.516 42.8756C5.3207 42.8756 5.04729 42.588 4.95142 42.3661C4.8733 42.185 4.9461 41.8778 5.05617 41.6879C6.43388 39.3053 9.53373 38.849 11.5754 40.6972C12.1027 41.1748 12.5963 41.7127 13.4041 41.766C14.3841 41.8299 15.16 41.4713 15.808 40.7735C15.9198 40.6528 16.0086 40.5143 16.1063 40.3812C16.4347 39.9355 16.8129 39.8397 17.1999 40.1024C17.5923 40.3687 17.658 40.809 17.3508 41.2635C16.4507 42.5969 15.2044 43.3017 13.2088 43.3354V43.3319Z" fill="#B22322"/>
<path id="Vector_13" d="M29.058 41.4427C29.9528 41.8014 30.8476 42.1618 31.7407 42.5204C31.011 43.2288 30.2866 43.9425 29.548 44.642C28.6887 45.4552 27.8099 46.247 26.9559 47.0654C26.6204 47.3868 26.2671 47.5839 25.809 47.4028C25.3244 47.2092 25.1184 46.8133 25.1326 46.3073C25.145 45.867 25.1841 45.4285 25.2125 44.9882C25.3581 44.8906 25.5161 44.8071 25.6457 44.6917C26.0452 44.3296 26.4375 43.9567 26.8281 43.5821C27.572 42.8702 28.3141 42.1547 29.058 41.4427Z" fill="#6AA8FE"/>
<path id="Vector_14" d="M9.40767 28.4018C8.22348 28.4018 7.03928 28.4054 5.85509 28.4018C5.2408 28.4 4.94786 28.1621 4.94609 27.6792C4.94254 27.1874 5.27631 26.9016 5.87462 26.9016C8.25898 26.898 10.6451 26.898 13.0295 26.9016C13.6171 26.9016 13.9598 27.207 13.9456 27.6934C13.9332 28.1461 13.6029 28.4 13.01 28.4018C11.8098 28.4054 10.6078 28.4018 9.40767 28.4018Z" fill="#9FACBA"/>
<path id="Vector_15" d="M29.058 41.4428C28.3142 42.1565 27.5738 42.8702 26.8281 43.5821C26.4376 43.955 26.047 44.3278 25.6457 44.6918C25.5179 44.8089 25.3581 44.8906 25.2125 44.9883C25.1806 43.417 25.1451 41.8458 25.1202 40.2746C25.1167 40.1024 25.1717 39.9301 25.2001 39.7579C26.4855 40.319 27.7709 40.8818 29.0563 41.4428H29.058Z" fill="#C7EEFD"/>
</g>
</g>
</g>
</g>
<defs>
<clipPath id="clip0_49_3302">
<rect width="50.627" height="49.4482" fill="white" transform="translate(0.101364 -0.203247)"/>
</clipPath>
</defs>
</svg>
